<?xml version="1.0" standalone="no"?>
<!DOCTYPE svg PUBLIC "-//W3C//DTD SVG 1.1//EN" "http://www.w3.org/Graphics/SVG/1.1/DTD/svg11.dtd" >
<svg xmlns="http://www.w3.org/2000/svg" xmlns:xlink="http://www.w3.org/1999/xlink" version="1.1">
<metadata>
Created by FontForge 20201107 at Thu Sep  1 00:31:21 2011
 By 
Copyright (c) 2010, Barry Schwartz (chemoelectric@chemoelectric.org)
</metadata>
<defs>
<font id="SortsMillGoudy-Italic" horiz-adv-x="327" >
  <font-face 
    font-family="Sorts Mill Goudy"
    font-weight="400"
    font-style="italic"
    font-stretch="normal"
    units-per-em="1000"
    panose-1="2 0 6 3 0 0 0 0 0 0"
    ascent="800"
    descent="-200"
    x-height="429"
    cap-height="704"
    bbox="-358 -478 1118 958"
    underline-thickness="49"
    underline-position="-146"
    slope="-7.40001"
    unicode-range="U+0020-FEFF"
  />
<missing-glyph horiz-adv-x="494" 
d="M50 -94v821h398v-821h-398zM104 57.5q-3 -4.5 -3 -8t4.5 -9t13 -13.5t12 -12t7 -8.5t5 -6.5t5 -5t5.5 -5t5 -3t6 -1t20 17t24.5 23t11.5 10q10 10 10 16.5t-13 20.5t-17.5 20t-7 9t-5.5 6q-5 6 -11 6t-11 -3.5t-13 -12.5q-11 -11 -23 -19t-17 -12.5t-8 -9zM200 204l-3 33
q0 37 25 74q8 12 12.5 19.5t16 22t17.5 22.5q20 24 33 40t22.5 27t16 20t14.5 23q18 29 18 63q0 52 -39 85.5t-81.5 33.5t-74.5 -22.5t-32 -36.5q0 -6 7 -6t26.5 9.5t43 9.5t49.5 -22.5t26 -48.5t-20.5 -64.5t-45 -75t-45 -79.5t-20.5 -72q0 -65 24 -65q10 0 10 10z" />
    <glyph glyph-name="f_f" unicode="ff" horiz-adv-x="530" 
d="M337 375l-105 2h-40q-15 0 -18 -20v-7q-2 -9 -4 -29q-19 -189 -30 -281.5t-22 -118.5q-20 -49 -60.5 -77t-68.5 -28t-28 20q0 14 7.5 41.5t20.5 27.5q10 0 12 -15q3 -19 14.5 -27.5t14.5 -8.5q18 0 27 44.5t25.5 187.5t25.5 214l7 56q0 17 -10 17h-34l-22 -1h-6
q-23 0 -23 17q0 13 5 17.5t37.5 4t54.5 -0.5q7 0 8 8q18 136 96 212.5t159 76.5q38 0 62 -18q8 -6 10 -6t11 9.5t20.5 21t34.5 21t48.5 9.5t33 -6.5t7.5 -20.5l-3 -27q-2 -32 -11 -32t-29.5 19t-42 19t-36.5 -15.5t-26 -45.5q-17 -46 -25 -89.5t-12 -63.5q-9 -38 -9 -49
q0 -22 15 -22l81 2q15 0 15 -22q0 -16 -28 -16l-87 1q-5 0 -14 -107.5t-14 -156.5q-17 -151 -36 -197.5t-40 -64t-48 -25.5t-36 -8q-30 0 -30 25q0 13 7.5 36.5t20.5 23.5q4 0 11.5 -15t17.5 -24t15 -9q30 0 47 206q3 38 7.5 73.5t10 82.5t8.5 72q6 38 11 68q0 19 -10 19z
M196 411l153 -1q6 0 7 8q17 113 46 176q9 18 9 24.5t-6.5 16.5t-25.5 20.5t-46 10.5q-41 0 -77 -48t-54 -103.5t-18 -94.5q0 -9 12 -9z" />
    <glyph glyph-name="f_i" unicode="fi" horiz-adv-x="490" 
d="M43 412l52 -2h20q7 0 8 8q9 62 35 131.5t62 108t77 62t79 23.5q65 0 65 -38q0 -9 -9.5 -30.5t-18.5 -21.5q-6 0 -16 11q-30 33 -62.5 33t-61 -27.5t-44.5 -65.5t-27 -80q-20 -73 -20 -104q0 -12 12 -12q132 0 155.5 3.5t33 5t16.5 1.5t12 -7t5 -12t-12 -65
q-36 -182 -36 -244q0 -15 6.5 -22.5t17.5 -7.5t30 24t24 24q10 0 10 -10q0 -13 -10 -26q-17 -19 -25 -27q-12 -17 -37.5 -34.5t-44.5 -17.5q-34 0 -34 83q0 52 19 162.5t19 120t-5.5 13t-16.5 4t-45.5 3t-64.5 2.5t-34.5 -6t-7 -45.5t-21 -204.5t-32.5 -202q-22 -53 -62 -80
t-67 -27t-27 21v6q0 62 25 62q10 0 12.5 -13.5t12.5 -24t16.5 -10.5t12 6.5t9.5 20t7.5 27t6.5 36t5 39t4.5 42.5t19 159.5t22.5 167.5v1q0 22 -13 22h-7l-54 -4q-19 0 -19 12t1 16q2 10 22 10z" />
    <glyph glyph-name="f_l" unicode="fl" horiz-adv-x="514" 
d="M278 376l-86 2q-15 0 -16 -15q-1 -4 -2 -13t-3 -23t-22.5 -194.5t-35.5 -213.5q-47 -100 -121 -100q-33 0 -33 21q0 16 6 43t19 27q8 0 20 -25t23 -25t19 14.5t12.5 41t7 51t5.5 56t24 184t21 162t-9 9.5l-63 -3q-24 0 -24 18q0 12 5 16.5t37.5 3.5t54.5 -1h2q5 0 8 25
t17.5 76.5t43.5 100t76.5 89.5t107.5 41l32 -3l25 3q17 0 22 -4t5 -20t-1.5 -25.5t-6.5 -31.5t-10 -59l-32 -228q-36 -260 -36 -281.5t3.5 -28t6.5 -7.5t17 -1t31.5 16.5t28.5 33.5t16 17q12 0 12 -12q0 -20 -49.5 -69t-91.5 -49q-22 0 -28.5 17.5t-6.5 51.5v19
q0 77 38.5 319.5t38.5 259.5q0 36 -53 36q-37 0 -68 -36.5t-48 -86.5q-35 -103 -35 -150q0 -9 3 -11t11 -2l78 1q20 0 20 -11q0 -26 -16 -26z" />
    <glyph glyph-name="f_f_i" unicode="ffi" horiz-adv-x="721" 
d="M425 411l122 3q42 1 58.5 3.5t20.5 2.5q20 0 20 -20q0 -12 -9 -51t-23.5 -130.5t-14.5 -111.5q0 -42 14 -42q16 0 37.5 25.5t26.5 25.5q9 0 9 -13q0 -31 -46 -72.5t-70 -41.5q-38 0 -38 79q0 40 20 151.5t20 131t-5 23.5t-19 4h-95q-37 0 -42.5 -2.5t-7.5 -16.5
q-10 -70 -19 -162.5t-12.5 -121.5t-10 -71t-14 -64t-20 -48.5t-28.5 -39.5q-39 -30 -89 -30q-19 0 -21 8q-1 4 -1 14.5t7.5 36.5t20.5 26q7 0 17.5 -24.5t25.5 -24.5q21 0 33 72q9 60 13.5 114.5t9 89.5t10.5 82t9 72q6 38 11 68q0 21 -9 21h-147q-13 0 -14.5 -6.5
t-2.5 -8.5q-4 -22 -24.5 -216.5t-32.5 -224.5q-20 -50 -57 -75.5t-67 -25.5h-8q-22 0 -22 15q0 28 7 49.5t15.5 21.5t11.5 -4.5t6 -14.5t11 -21t17 -11q17 0 28 57t25 194q24 221 31 249v1q0 20 -10 20l-61 -3q-22 0 -22 16q0 13 5 18t20 5h9l46 -1l14 -1q7 0 8 8
q15 118 83 198q29 34 82 63t94 29t78 -18q13 -7 14.5 -7t19.5 15.5t49 31t62 15.5t50 -8t19 -21l-3 -29q-1 -12 -8.5 -25.5t-14 -13.5t-13 7.5t-13 16.5t-24.5 16.5t-49 7.5t-59.5 -36t-44.5 -85q-34 -104 -34 -148q0 -16 15 -16zM193 411l154 -1q6 0 7 8q16 108 42 152
q24 41 24 49.5t-6 18.5t-24.5 20t-51 10t-65 -29t-51.5 -71q-40 -88 -40 -148q0 -9 11 -9z" />
    <glyph glyph-name="f_f_l" unicode="ffl" horiz-adv-x="741" 
d="M333 376l-143 1q-14 0 -16 -23q-1 -6 -2.5 -14t-4 -28t-11.5 -112.5t-17.5 -170.5t-20.5 -108q-20 -49 -60.5 -77t-68.5 -28t-28 20q0 14 7.5 41.5t20.5 27.5q10 0 12 -15q3 -19 14.5 -27.5t16.5 -8.5t10.5 6.5t10 22t7.5 33t7 48t7 58.5q17 163 29 247.5t12 86.5
q0 17 -10 17l-62 -1q-23 0 -23 17q0 13 5 17.5t20 4.5q45 -3 62 -3t18 10q10 74 40 132.5t69 91.5q77 65 146 65q36 0 78 -22q14 -7 15 -7t7.5 6.5t18 16t25.5 18.5q36 22 75 22l37 -3l25 2q22 0 22 -21q0 -13 -6.5 -44t-12.5 -71q-67 -462 -67 -519q0 -30 21 -30t38.5 16.5
t29.5 33.5t19 17t7 -9q0 -24 -44.5 -72.5t-95.5 -48.5q-36 0 -36 72v19q0 30 16 148l22 147q16 122 29.5 194.5t13.5 86.5t-15.5 26.5t-41.5 12.5q-57 0 -91 -59q-15 -26 -29 -77q-27 -100 -27 -123.5t4.5 -26.5t27.5 -3l60 2q18 0 18 -13t-7 -18t-31 -5h-19l-45 1
q-9 0 -12.5 -4.5t-5.5 -20t-19.5 -189.5t-36.5 -236t-68 -90q-32 -19 -60.5 -19t-28.5 27q0 12 8.5 35t21.5 23q2 0 15 -23.5t24 -23.5t19 15.5t12.5 42t7 52t5.5 57.5t23 177t20 168q0 2 -4.5 5.5t-8.5 3.5zM183 420q0 -12 15 -12h149q7 0 8.5 9.5t2.5 18.5q5 46 26.5 99.5
t25.5 58.5q8 10 8 26.5t-21.5 31t-63 14.5t-78 -48t-54.5 -104t-18 -94z" />
    <glyph glyph-name="f_h" unicode="fh" horiz-adv-x="746" 
d="M275 379l-83 1q-14 0 -17 -25q-8 -56 -20.5 -171t-21 -177.5t-20.5 -87.5q-47 -100 -121 -100q-33 0 -33 21q0 16 6 43t19 27q8 0 20 -25t23 -25t19 14.5t12.5 41t7 51t5.5 56t24 184t21 162t-9 9.5l-63 -3q-24 0 -24 18q0 12 5 16.5t38.5 3.5t55.5 -1q5 0 8 25
t17.5 76.5t43.5 100t76.5 89.5t107.5 41l32 -3l25 3q17 0 22 -4t5 -12t-25.5 -180t-25.5 -190.5t3.5 -18.5t16.5 13.5t30 29t44.5 29t55.5 13.5q89 0 89 -113q0 -30 -12 -105t-12 -97q0 -46 24 -46q13 0 32 11.5t27.5 22t14.5 18t9 7.5q9 0 9 -8q0 -35 -47.5 -76.5
t-82.5 -41.5q-49 0 -49 93q0 31 9 102.5t9 101.5q0 78 -56 78q-34 0 -68 -20q-51 -30 -67 -127q-6 -36 -13.5 -102t-11 -89t-12 -29t-25.5 -6q-32 0 -32 24q0 20 12.5 91.5t16 93.5t21.5 142q46 307 46 312q0 37 -53 37q-37 0 -68 -36.5t-48 -86.5q-35 -103 -35 -150
q0 -9 3 -11t11 -2l78 2q18 0 19 -3.5t1 -7.5q0 -24 -19 -24z" />
    <glyph glyph-name="f_f_h" unicode="ffh" horiz-adv-x="976" 
d="M468 375l-36 1h-3q-18 0 -21 -3q-5 -5 -32 -281q-12 -112 -31.5 -170.5t-65.5 -85.5q-32 -19 -60.5 -19t-28.5 27q0 12 8.5 35t21.5 23q2 0 15 -23.5t24 -23.5t19 15.5t12.5 42t7 52t5.5 57.5t23 178t20 164q0 9 -14 11t-76 2h-66q-11 0 -15 -15q-1 -4 -2 -7.5t-1.5 -9.5
t-1 -10t-1.5 -11.5t-3 -27.5t-11 -106t-10 -99q-14 -138 -30.5 -178.5t-57 -68.5t-68.5 -28t-28 20q0 14 7.5 41.5t20.5 27.5q10 0 12 -15q3 -19 14.5 -27.5t16.5 -8.5t10.5 6.5t10 22t7.5 33t7 48t7 58.5q17 163 29 247.5t12 86.5q0 17 -10 17l-62 -1q-23 0 -23 17
q0 13 5 17.5t20 4.5q45 -3 62 -3t18 10q10 74 40 132.5t69 91.5q77 65 146 65q36 0 78 -22q14 -7 15 -7t7.5 6.5t18 16t25.5 18.5q36 22 75 22l37 -3l25 2q22 0 22 -21q0 -2 -11 -85q-36 -254 -36 -274.5t3.5 -20.5t16.5 13.5t29.5 29t44 29t55.5 13.5q89 0 89 -113
q0 -30 -12 -105t-12 -97q0 -46 24 -46q13 0 32 11.5t27.5 22t14.5 18t9 7.5q9 0 9 -8q0 -35 -48.5 -76.5t-81.5 -41.5q-48 0 -48 93q0 31 9 102.5t9 101.5q0 78 -57 78q-34 0 -68 -20q-52 -30 -67 -127q-6 -37 -13 -101t-10.5 -88.5t-12 -30.5t-26.5 -6q-32 0 -32 24
q0 14 13 88.5t15.5 92.5t21.5 139q47 299 47 315t-15.5 28.5t-41.5 12.5q-57 0 -91 -59q-15 -26 -29 -77q-27 -100 -27 -123.5t4.5 -26.5t27.5 -3l60 2q18 0 18 -12.5t-7.5 -18t-32.5 -5.5h-15zM183 420q0 -12 15 -12h149q7 0 8.5 9.5t2.5 18.5q5 46 26.5 99.5t25.5 58.5
q8 10 8 26.5t-21.5 31t-63 14.5t-78 -48t-54.5 -104t-18 -94z" />
    <glyph glyph-name="f_k" unicode="fk" horiz-adv-x="714" 
d="M281 379l-89 1q-16 0 -18 -36q-1 -7 -2 -13t-22 -192t-37 -220q-47 -100 -121 -100q-33 0 -33 21q0 16 6 43t19 27q8 0 20 -25t23 -25t19 14.5t12.5 41t7 51t5.5 56t24 184t21 162t-9 9.5l-63 -3q-24 0 -24 18q0 12 5 16.5t37.5 3.5t54.5 -1h2q5 0 8 25t17.5 76.5
t43.5 100t76.5 89.5t107.5 41l32 -3l25 3q17 0 22 -4t5 -19.5t-2 -28.5t-6 -29q-12 -48 -46 -337l-5 -33q0 -2 -3 -13q-5 -26 -5 -40.5t1 -17.5q1 -8 10 -8t69.5 48t82.5 84q6 10 15.5 36t20.5 38t29 12t26.5 -10.5t8.5 -25.5q0 -26 -38.5 -60t-77 -58t-38.5 -25.5t26 -48.5
t32 -57t9 -15.5t8 -14.5t8.5 -14.5t7.5 -12t7.5 -10l7.5 -7.5q6 -7 12 -7q20 0 43 28t27 28q9 0 9 -23t-35 -63t-58 -40t-48 34.5t-44 75.5q-51 111 -68 111l-24 -13q-6 -3 -11.5 -6.5t-9 -4.5t-7 -3.5t-4.5 -3.5q-8 -2 -8 -13l-20 -145q-3 -30 -34.5 -30t-31.5 24
q0 21 27 183l60 401q7 50 7 55q0 37 -53 37q-37 0 -68 -36.5t-48 -86.5q-35 -103 -35 -150q0 -9 3.5 -11t11.5 -2l80 2q17 0 17 -12q0 -23 -13 -23z" />
    <glyph glyph-name="f_f_k" unicode="ffk" horiz-adv-x="944" 
d="M433 409l72 2q18 0 18 -12.5t-7.5 -17.5t-30.5 -5h-67q-9 0 -11 -3q-5 -8 -22.5 -193.5t-37 -250t-68.5 -93.5q-32 -19 -60.5 -19t-28.5 27q0 12 8.5 35t21.5 23q2 0 15 -23.5t24 -23.5t19 15.5t12.5 42t7 52t5.5 57.5q4 39 23.5 185t19.5 157q0 9 -14 11t-76 2h-66
q-17 0 -20 -44q0 -8 -2.5 -27t-11.5 -109.5t-17.5 -168t-20.5 -107.5q-20 -49 -60.5 -77t-68.5 -28t-28 20q0 14 7.5 41.5t20.5 27.5q10 0 12 -15q3 -19 14.5 -27.5t16.5 -8.5t10.5 6.5t10 22t7.5 33t7 48t7 58.5q17 163 29 247.5t12 86.5q0 17 -10 17l-62 -1q-23 0 -23 17
q0 13 5 17.5t20 4.5q45 -3 62 -3t18 10q10 74 40 132.5t69 91.5q77 65 146 65q36 0 78 -22q14 -7 15 -7t7.5 6.5t18 16t25.5 18.5q36 22 75 22l37 -3l25 2q22 0 22 -21q0 -6 -0.5 -10t-1 -9t-3 -18.5t-5.5 -33.5q-5 -35 -21 -152l-27 -203q-8 -56 -8 -67.5t10.5 -11.5
t71.5 48t83 84q6 11 15 36.5t20 37.5t29 12t26.5 -10.5t8.5 -25.5q0 -26 -38.5 -60t-77 -58t-38.5 -25l50 -90q4 -7 11 -20t12 -21l10 -17q19 -31 25 -35t10 -4q20 0 43.5 28t27.5 28q8 0 8 -23t-34.5 -63t-57.5 -40t-48 34.5t-44 75.5q-52 111 -69 111l-24 -13
q-15 -10 -21 -12t-10 -5t-4.5 -3t-2 -4l-1.5 -4l-20 -148q-3 -30 -35 -30t-32 24q0 21 27 183l20 133q11 75 24 156q25 148 25 163.5t-15.5 28t-41.5 12.5q-57 0 -91 -59q-15 -26 -29 -77q-27 -100 -27 -123.5t3 -26.5t17 -3zM183 420q0 -12 15 -12h149q7 0 8.5 9.5
t2.5 18.5q5 46 26.5 99.5t25.5 58.5q8 10 8 26.5t-21.5 31t-63 14.5t-78 -48t-54.5 -104t-18 -94z" />
    <glyph glyph-name="f_b" unicode="fb" horiz-adv-x="726" 
d="M272 379l-80 1q-13 0 -16 -16q0 -4 -0.5 -6.5t-1 -7.5t-2.5 -17.5t-23 -197t-36 -216.5q-47 -100 -121 -100q-33 0 -33 21q0 16 6 43t19 27q8 0 20 -25t23 -25t19 14.5t12.5 41t7 51t5.5 56t24 184t21 162t-9 9.5l-63 -3q-24 0 -24 18q0 12 5 16.5t37.5 3.5t54.5 -1h2
q5 0 8 25t17.5 76.5t43.5 100t76.5 89.5t107.5 41l32 -3l25 3q17 0 22 -4t5 -13l-52 -373q0 -14 3.5 -14t24.5 23t61 46.5t92 23.5t80.5 -37t28.5 -90q0 -109 -81.5 -212t-191.5 -103q-49 0 -85.5 21.5t-36.5 62.5q0 48 9 95q37 194 57.5 341.5t20.5 149.5q0 37 -53 37
q-37 0 -68 -36.5t-48 -86.5q-35 -103 -35 -150q0 -9 3 -11.5t11 -2.5l75 3q23 0 23 -12q0 -23 -22 -23zM365 87q0 -68 77 -68q66 0 124 85.5t58 173.5q0 42 -28.5 72t-69.5 30q-17 0 -35.5 -5t-44.5 -28.5t-40 -61t-24 -85.5q-17 -80 -17 -113z" />
    <glyph glyph-name="f_f_b" unicode="ffb" horiz-adv-x="958" 
d="M446 409l59 2q18 0 18 -13t-6.5 -17.5t-30.5 -4.5h-69q-8 0 -10 -2q-4 -6 -4 -23q-8 -62 -17.5 -160.5t-10.5 -108.5q-11 -105 -31 -162.5t-65 -83.5q-32 -19 -60.5 -19t-28.5 27q0 12 8.5 35t21.5 23q2 0 15 -23.5t24 -23.5t19 15.5t12.5 42t7 52t5.5 57.5t23 178
t20 164q0 9 -14 11t-76 2h-68q-8 0 -12 -14t-7 -37.5t-14 -133.5l-14 -140q-12 -105 -23 -131q-20 -49 -60.5 -77t-68.5 -28t-28 20q0 14 7.5 41.5t20.5 27.5q10 0 12 -15q3 -19 14.5 -27.5t16.5 -8.5t10.5 6.5t10 22t7.5 33t7 48t7 58.5q17 163 29 247.5t12 86.5
q0 17 -10 17l-62 -1q-23 0 -23 17q0 13 5 17.5t20 4.5q45 -3 62 -3t18 10q10 74 40 132.5t69 91.5q77 65 146 65q36 0 78 -22q14 -7 15 -7t7.5 6.5t18 16t25.5 18.5q36 22 75 22l37 -3l25 2q22 0 22 -21q0 -7 -23.5 -175t-23.5 -186t4 -18t17.5 14.5t31.5 32t52.5 32
t80.5 14.5t75 -37t29 -90q0 -109 -81.5 -212t-191.5 -103q-49 0 -85.5 21.5t-36.5 62.5t16.5 131t21 121.5t17.5 118.5q31 197 31 212t-15.5 27.5t-41.5 12.5q-57 0 -91 -59q-15 -26 -29 -77q-27 -100 -27 -123.5t5 -26.5t28 -3zM183 420q0 -12 15 -12h150q6 0 7.5 6.5
t5 30.5t14.5 59t21 60t14 30q8 10 8 26.5t-21.5 31t-63 14.5t-78 -48t-54.5 -104t-18 -94zM597 87q0 -68 77 -68q66 0 123.5 85t57.5 174q0 42 -28 72t-69 30q-17 0 -35.5 -5t-44.5 -28.5t-40 -61t-24 -85.5q-17 -80 -17 -113z" />
    <glyph glyph-name=".notdef" horiz-adv-x="494" 
d="M50 -94v821h398v-821h-398zM104 57.5q-3 -4.5 -3 -8t4.5 -9t13 -13.5t12 -12t7 -8.5t5 -6.5t5 -5t5.5 -5t5 -3t6 -1t20 17t24.5 23t11.5 10q10 10 10 16.5t-13 20.5t-17.5 20t-7 9t-5.5 6q-5 6 -11 6t-11 -3.5t-13 -12.5q-11 -11 -23 -19t-17 -12.5t-8 -9zM200 204l-3 33
q0 37 25 74q8 12 12.5 19.5t16 22t17.5 22.5q20 24 33 40t22.5 27t16 20t14.5 23q18 29 18 63q0 52 -39 85.5t-81.5 33.5t-74.5 -22.5t-32 -36.5q0 -6 7 -6t26.5 9.5t43 9.5t49.5 -22.5t26 -48.5t-20.5 -64.5t-45 -75t-45 -79.5t-20.5 -72q0 -65 24 -65q10 0 10 10z" />
    <glyph glyph-name=".null" horiz-adv-x="0" 
 />
    <glyph glyph-name="nonmarkingreturn" horiz-adv-x="333" 
 />
    <glyph glyph-name="space" unicode=" " horiz-adv-x="213" 
 />
    <glyph glyph-name="exclam" unicode="!" horiz-adv-x="249" 
d="M72 40q-4 6 -4 10.5t10.5 16.5t16.5 16.5t17 14.5q18 18 26 18t11.5 -3.5t11 -13.5t19 -23t11.5 -22.5t-28.5 -37t-33.5 -27.5q-12 0 -23.5 13.5t-20.5 22.5t-13 15zM133 211q0 6 2 28l26 388v8q0 7 0.5 10t1.5 9.5t3 10t5.5 8.5t8.5 7q13 7 29 7q36 0 36 -33
q0 -14 -4 -30q-20 -80 -35 -186.5t-39 -223.5q-1 -6 -7 -13t-14 -7q-13 0 -13 17z" />
    <glyph glyph-name="quotedbl" unicode="&#x22;" horiz-adv-x="410" 
d="M222 460q30 20 43 53t13 51t-8 32.5t-17.5 21.5t-17.5 15t-8 17t21.5 33.5t35.5 24.5q9 0 19.5 -10t17.5 -21q16 -28 16 -74.5t-26 -90t-53 -64.5t-39 -21t-12 12t15 21zM51 460q30 20 43 53t13 51t-8 32.5t-17.5 21.5t-17.5 15t-8 17t21.5 33.5t35.5 24.5q9 0 19.5 -10
t17.5 -21q16 -28 16 -74.5t-26 -90t-53 -64.5t-39 -21t-12 12t15 21z" />
    <glyph glyph-name="numbersign" unicode="#" horiz-adv-x="533" 
d="M128 -53l23 167q0 7 -8 7h-70q-14 0 -14 18v3q0 12 2 16.5t12 4.5h82q3 0 3 2l19 135q0 5 -7 5h-95q-9 0 -12.5 3.5t-3.5 21t16 17.5h102q9 0 9 7q14 100 19.5 143.5t8.5 48t21.5 4.5t18.5 -12l-26 -186q0 -5 6 -5h98q8 0 9 7q26 188 29 192t20.5 4t17.5 -10l-25 -188
q0 -5 5 -5h69q18 0 18 -21t-15 -21h-81q-3 0 -5 -6q-18 -129 -18 -132.5t7 -3.5h95q11 0 14 -5.5t3 -14.5q0 -22 -17 -22h-98q-9 0 -11 -10q-5 -35 -13 -94.5t-12 -71t-22 -11.5t-18 13l23 168q0 6 -7 6h-66q-35 0 -37.5 -2.5t-3.5 -5.5q-22 -166 -25.5 -172.5t-21.5 -6.5
t-18 13zM219 298q-18 -129 -18 -132t8 -3h95q9 0 10 7q4 34 9 65.5t7 42.5q2 17 2 22t-6 5h-98q-7 0 -9 -7z" />
    <glyph glyph-name="dollar" unicode="$" horiz-adv-x="488" 
d="M20 91q0 11 12 44t21.5 33t15.5 -10t12 -30q17 -58 49.5 -84.5t57.5 -26.5q7 0 9 3.5t6.5 39t13.5 105t14.5 108.5t5.5 45.5t-16.5 16.5t-39.5 22t-46 28.5t-39.5 46.5t-16.5 68q0 88 58 134t133 48q13 0 15 18.5l4 37t16 18.5q25 0 25 -18q0 -9 -5.5 -26t-5.5 -24t5 -9
q13 -5 26 -5q40 -12 68 -30q45 -28 45 -50t-6 -37q-9 -23 -21 -23q-8 0 -17 18.5t-13 24.5q-14 23 -42 45.5t-44 22.5q-10 0 -14 -29q-12 -105 -19 -151t-7 -57.5t19.5 -21t47 -21.5t55 -30.5t47 -56t19.5 -89.5q0 -92 -61.5 -147t-161.5 -55q-7 0 -12 -3.5t-6 -14.5t-3 -31
t-3.5 -32t-3 -24.5t-3 -19t-4.5 -12.5q-4 -10 -16 -10q-21 0 -21 16t10 65.5t10 50.5q0 11 -10 11q-62 10 -112.5 44t-50.5 64zM146.5 592.5q-15.5 -25.5 -15.5 -55.5q0 -57 43 -86q57 -37 66.5 -37t11.5 22q25 195 25 199q0 15 -16.5 15t-34 -4.5t-41 -16t-39 -37zM234 28
q0 -16 17.5 -16t38.5 7.5t47.5 24.5t45 52t18.5 71.5t-11.5 60.5t-28 38.5t-33.5 25.5q-33 19 -43 19q-14 0 -16 -16q-6 -37 -20.5 -147.5t-14.5 -119.5z" />
    <glyph glyph-name="percent" unicode="%" horiz-adv-x="771" 
d="M361 494q-1 0 0 -7.5t1 -38.5q0 -74 -52.5 -151t-140.5 -77q-35 0 -72.5 32.5t-37.5 91.5q0 81 57.5 157t141.5 76q32 0 56.5 -17.5t46.5 -34.5t44 -17t45 8.5t41.5 18.5t42.5 29q29 23 66 56l19 18q8 8 17.5 8t9.5 -8.5t-8 -21.5q-290 -433 -435 -663q-26 -40 -31.5 -42
t-13.5 -2t-18.5 8t-10.5 18t18 36t22 32l165 237q53 77 106 150q96 130 96 134t-2.5 4t-21.5 -11q-55 -33 -102 -33q-18 0 -33 5t-16 5zM162.5 491.5q-31.5 -56.5 -31.5 -119.5t16 -94t44 -31q48 0 77 66t29 143q0 40 -13 66t-34 26q-56 0 -87.5 -56.5zM386 64q0 85 55 157
t143 72q54 0 81 -34t27 -89q0 -87 -55 -167.5t-130 -80.5q-59 0 -90 40.5t-31 101.5zM488.5 203.5q-31.5 -58.5 -31.5 -122t16 -95.5t44 -32q45 0 77 68t32 143q0 40 -14.5 68.5t-35.5 28.5q-56 0 -87.5 -58.5z" />
    <glyph glyph-name="ampersand" unicode="&#x26;" horiz-adv-x="834" 
d="M39 219q0 55 29 109q42 75 99 107q16 9 23 13.5t7 8t-1 9.5q-6 24 -6 64.5t21.5 81.5t54.5 64q68 46 134 46q30 0 56 -12q51 -21 51 -72q0 -70 -65 -70q-12 0 -12 7q0 4 6.5 19.5t6.5 28.5t-17.5 27t-43.5 14q-77 0 -118 -54.5t-41 -115.5q0 -18 12 -18q5 0 29 5t43 5
q40 0 62 -20t22 -47t-21 -46t-52.5 -19t-52.5 11t-31.5 23.5t-19 23.5t-15 11t-25 -19.5t-36 -58t-17.5 -87.5t25.5 -101t81.5 -89t141 -37t157.5 62t72.5 141q0 42 -24 70t-62.5 28t-63.5 -21.5t-25 -53t14 -45t28 -13.5t24.5 11t16.5 11t6 -11t-16.5 -24t-40.5 -13
q-39 0 -61 32t-22 60t10 50t24 36.5t41.5 30t48 24.5t59.5 25t61 26q79 35 118 73t39 90q0 26 -21.5 49t-48.5 23q-63 0 -63 -52q0 -17 23.5 -27t23.5 -18q0 -41 -47 -41q-22 0 -34.5 18t-12.5 45q0 43 36 72.5t78.5 29.5t74.5 -34t32 -80t-23 -85.5t-55.5 -63.5t-65 -42
t-55.5 -29t-23 -15t9.5 -10.5t20.5 -15.5t20.5 -30t9.5 -50q0 -96 -63 -158.5t-125.5 -89t-149.5 -26.5q-121 0 -198.5 59.5t-77.5 169.5zM259 448.5q-13 -8.5 -13 -19.5t17 -27.5t35 -16.5t29.5 10t11.5 27t-17 26t-33.5 9t-29.5 -8.5z" />
    <glyph glyph-name="quotesingle" unicode="'" horiz-adv-x="239" 
d="M51 460q30 20 43 53t13 51t-8 32.5t-17.5 21.5t-17.5 15t-8 17t21.5 33.5t35.5 24.5q9 0 19.5 -10t17.5 -21q16 -28 16 -74.5t-26 -90t-53 -64.5t-39 -21t-12 12t15 21z" />
    <glyph glyph-name="parenleft" unicode="(" horiz-adv-x="288" 
d="M76.5 70.5q-13.5 67.5 -13.5 149.5t24.5 175t60 158.5t74 116.5t66.5 76.5t38 25.5q17 0 17 -17q0 -9 -20.5 -29.5t-51.5 -55t-63.5 -82.5t-60.5 -130t-35.5 -155.5t-7.5 -107.5q0 -88 21.5 -164.5t47 -117t47 -71t21.5 -37.5t-7.5 -13t-15 -6t-25.5 20t-40.5 59
t-42.5 88.5t-33.5 117z" />
    <glyph glyph-name="parenright" unicode=")" horiz-adv-x="288" 
d="M-55 -197q0 9 20.5 29.5t51.5 55t63.5 82.5t60.5 130t35.5 155.5t7.5 107.5q0 88 -21.5 164.5t-47 117.5t-47 71.5t-21.5 37.5t7.5 12.5t15 5.5t25.5 -20t40.5 -58.5t42.5 -87.5q47 -117 47 -254q0 -95 -24.5 -188t-60 -158.5t-74 -117t-66.5 -77t-38 -25.5q-17 0 -17 17
z" />
    <glyph glyph-name="asterisk" unicode="*" horiz-adv-x="431" 
d="M184 306l3 72q0 23 -4.5 23t-45 -26.5t-50 -26.5t-19 13t-9.5 22q0 13 54 37t54 27.5t-54 28.5t-54 37q0 9 9.5 22t20.5 13t50 -26.5t43.5 -26.5t4.5 19l-3 79q0 13 5 17t25 4t26.5 -6t6.5 -30l-4 -65q0 -18 5 -18t45.5 27t49.5 27t19.5 -12.5t10.5 -23.5t-54.5 -36
t-54.5 -29.5t54.5 -28.5t54.5 -35t-10 -23.5t-21.5 -12.5t-50.5 26.5t-43 26.5t-4 -19l3 -58q0 -29 -5.5 -35.5t-31.5 -6.5t-26 24z" />
    <glyph glyph-name="plus" unicode="+" horiz-adv-x="508" 
d="M24 193q-3 5 -3 16t1 15q2 8 18 8h169q22 0 22 19v176q0 13 9 15h12h13q11 -2 11 -20v-163q0 -27 17 -27h177q14 0 16 -8v-15.5t-3 -16t-18 -4.5h-172q-12 0 -14.5 -3.5t-2.5 -14.5v-175q0 -11 -5 -14t-18 -3t-17.5 2.5t-4.5 15.5v174q0 13 -4.5 15.5t-18.5 2.5h-169
q-12 0 -15 5z" />
    <glyph glyph-name="comma" unicode="," horiz-adv-x="226" 
d="M42 -153q0 10 15 21q55 40 55 106q0 35 -42 64q-13 10 -13 16.5t22.5 35t34.5 28.5q20 0 39 -30t19 -84t-44.5 -112t-70.5 -58q-15 0 -15 13z" />
    <glyph glyph-name="hyphen" unicode="-" horiz-adv-x="282" 
d="M39 185q0 13 8.5 22.5t40 19t59.5 19t39 13.5q23 9 35 9q22 0 22 -22q0 -23 -5 -28t-12.5 -8.5t-13.5 -5.5q-31 -8 -81 -28q-63 -24 -75 -24q-17 0 -17 33z" />
    <glyph glyph-name="period" unicode="." horiz-adv-x="222" 
d="M81 84q32 29 41.5 29t29.5 -30q2 -3 8 -9q13 -12 13 -23t-3.5 -16t-14.5 -14t-13 -11q-25 -25 -34 -25t-14 4t-11 13t-9 12l-16 16t-7 8q-2 4 -2 10.5t32 35.5z" />
    <glyph glyph-name="slash" unicode="/" horiz-adv-x="416" 
d="M20 -170q0 2 19 57q305 823 308 832t8.5 12.5t23 3.5t17.5 -12q0 -8 -14 -44l-304 -831q-8 -22 -13.5 -26.5t-25 -4.5t-19.5 13z" />
    <glyph glyph-name="zero" unicode="0" horiz-adv-x="518" 
d="M89 25.5q-57 50.5 -57 148.5t69 179t183 81q84 0 143 -56.5t59 -145.5q0 -61 -22.5 -111t-59.5 -81q-79 -65 -168.5 -65t-146.5 50.5zM91 170q0 -70 40.5 -108t108.5 -38t129 56t61 150q0 73 -42.5 113.5t-111.5 40.5t-127 -57t-58 -157z" />
    <glyph glyph-name="one" unicode="1" horiz-adv-x="309" 
d="M146 3l-103 -7q-23 0 -23 18q0 12 19.5 12t30.5 7t17.5 16.5t11.5 26.5t6.5 27.5t4 29.5t13 86t10.5 125q0 45 -56 48q-10 0 -22.5 6.5t-12.5 19.5t15 13q7 0 23 -4t29 -4l63 -1l94 6q11 0 17 -5t6 -10q0 -17 -34 -17q-38 0 -48.5 -47t-27.5 -235l-4 -33q0 -37 37 -49
q5 0 24 -3q36 -6 36 -19.5t-19 -13.5z" />
    <glyph glyph-name="two" unicode="2" horiz-adv-x="450" 
d="M202 0l-159 -2q-23 0 -23 13q0 6 22 18q101 57 152 99q146 119 146 188q0 41 -37 62.5t-68 21.5q-92 0 -92 -46q0 -11 7.5 -31t7.5 -26q0 -13 -14 -13q-68 0 -68 35q0 27 40 67q20 20 58 33.5t94 13.5t104 -27t48 -81q0 -36 -39 -81t-85 -78t-85 -62t-39 -36.5t45 -7.5
h66q61 0 90 29q16 16 20 24q10 12 16 12q12 0 12 -11q0 -3 -4 -9q-20 -30 -35.5 -67.5t-31.5 -37.5h-148z" />
    <glyph glyph-name="three" unicode="3" horiz-adv-x="390" 
d="M168 131l-75 -8q-12 0 -12 12q0 7 8 11.5t32 14.5t48 23q114 64 114 131q0 36 -31 60t-70.5 24t-67 -15.5t-33.5 -15.5q-14 0 -14 15t51.5 34t90.5 19t67 -7t51 -29t23 -48.5t-6.5 -44.5t-14.5 -30t-22.5 -25.5t-23.5 -19.5q-34 -25 -46 -31q-7 -6 -14 -10.5t-10 -6.5
t-5 -4q-4 -2 -4 -4.5t24.5 -8t53.5 -14.5t53.5 -35t24.5 -62t-21 -75.5t-58 -77t-98 -63t-118 -25.5t-71 11.5t-14 57.5q0 22 20 22q3 0 17 -12.5t39 -25t53 -12.5q72 0 127.5 56.5t55.5 105t-39 81t-85 32.5z" />
    <glyph glyph-name="four" unicode="4" horiz-adv-x="496" 
d="M261 -165l26 151q0 13 -11.5 15.5t-64 2.5t-103 -3t-74.5 -3t-24 16q0 12 8.5 22t13.5 15.5t14.5 14.5t15.5 15l282 292q47 50 64 50q13 0 13 -14t-4 -28q-16 -57 -29 -141l-9 -56q-3 -21 -8 -50q-10 -58 -10 -66q0 -16 26.5 -16t41.5 4t19 8q10 12 18 12q11 0 11 -12
q0 -5 -18 -44q-10 -20 -31 -20l-71 3q-6 0 -8 -5.5t-3.5 -31.5t-3 -43t-3 -34.5t-2 -24.5t-2.5 -18.5t-5 -16t-8 -9.5q-8 -9 -26.5 -9t-26.5 8t-8 16zM170 53l80 1h27q16 0 19.5 5.5t5 12t2 11.5t2.5 16q29 159 29 186t-4.5 27t-42 -37t-111 -118.5t-73.5 -89.5t13 -11
t53 -3z" />
    <glyph glyph-name="five" unicode="5" horiz-adv-x="373" 
d="M160 360l-19 1q-18 0 -21 -19q-5 -21 -9 -33.5t-4 -13.5q0 -11 21 -15.5t49.5 -7t65.5 -19t63 -46.5q37 -43 37 -108q0 -111 -89.5 -198.5t-234.5 -87.5q-22 0 -33 12q-21 24 -21 53.5t16 29.5q9 0 28 -18q35 -33 95.5 -33t119 56.5t58.5 145.5q0 69 -50 114.5t-153 45.5
q-21 0 -25.5 5.5t-4.5 11.5t26 82l27 82q3 9 5 12.5t10 8.5t16.5 5t34.5 -3t65 -3q102 0 116 16q1 1 4.5 6.5t6.5 9.5q9 10 15 10q9 0 9 -8q0 -7 -12.5 -27.5t-24.5 -43.5t-28 -23h-159z" />
    <glyph glyph-name="six" unicode="6" horiz-adv-x="490" 
d="M32 246q0 104 65 210t156 171t168 65q8 0 15.5 -4t7.5 -11.5t-9.5 -10.5t-35.5 -8q-100 -19 -198 -137q-71 -85 -71 -135q0 -5 3.5 -5t20 13.5t46.5 27t67 13.5q95 0 145.5 -59t50.5 -149.5t-61.5 -165t-165.5 -74.5q-204 0 -204 259zM103 239q0 -101 47.5 -160.5
t108.5 -59.5t95 53t34 130t-41 137t-110 60t-101.5 -46t-32.5 -114z" />
    <glyph glyph-name="seven" unicode="7" horiz-adv-x="473" 
d="M89 429l243 -5h64q14 0 27 7.5t20 7.5q10 0 10 -11q0 -9 -7.5 -18.5l-15 -19t-11.5 -14.5l-84 -116l-189 -271q-50 -76 -59.5 -92.5t-9.5 -31.5v-5q0 -23 -25 -23h-53q-22 0 -22 11q0 24 24.5 53.5t95 121t169.5 208t99 124.5q0 6 -23 6l-40 -1h-78l-110 -3
q-37 0 -43.5 -5.5t-7.5 -5.5q-1 -1 -3.5 -7.5t-4 -10t-2 -5.5t-2.5 -4q-4 -4 -12 -4q-19 0 -19 17q0 9 11 37.5t14 38t5 12.5q4 9 23 9h16z" />
    <glyph glyph-name="eight" unicode="8" horiz-adv-x="526" 
d="M42 148q0 43 17.5 79.5t42.5 58t50 36t42.5 21.5t17.5 8t-11 9t-27 21.5t-32 31.5q-39 42 -39 101.5t54 116.5t140 57t141 -38t55 -111q0 -36 -14 -65t-34 -44.5t-40.5 -26t-34.5 -16t-14 -7.5t14 -9.5t34.5 -21.5t41 -34t34.5 -51.5t14 -68.5q0 -97 -72.5 -158.5
t-170.5 -61.5t-153.5 48t-55.5 125zM143 271q-42 -63 -42 -118.5t37 -101.5t101.5 -46t117.5 36q69 47 69 137q0 76 -87 125q-14 8 -53 22.5t-46.5 14.5t-43.5 -21.5t-53 -47.5zM153 533q0 -34 25 -63t58 -44q68 -33 93 -33t68 42t43 93.5t-37 91t-100.5 39.5t-106.5 -33
t-43 -93z" />
    <glyph glyph-name="nine" unicode="9" horiz-adv-x="502" 
d="M32 184q0 54 25.5 110t80.5 98t133.5 42t139 -57t60.5 -176t-78 -232q-64 -93 -174 -146q-60 -28 -134 -28q-21 0 -26.5 4.5t-5.5 12.5q0 16 20 16q58 0 122.5 37.5t102 78t37.5 57.5q0 4 -4 4t-36.5 -12t-64.5 -12q-82 0 -140 49.5t-58 153.5zM103 216q0 -74 42 -134.5
t121 -60.5q76 0 104 57q24 49 24 112q0 85 -46.5 147.5t-105 62.5t-99 -55t-40.5 -129z" />
    <glyph glyph-name="colon" unicode=":" horiz-adv-x="298" 
d="M75 40q-5 6 -5 10.5t11 16.5t17.5 16.5t17.5 14.5q18 18 26 18t11.5 -3.5t11 -13.5t19 -23t11.5 -22.5t-30 -37.5q-3 -3 -11 -12q-18 -18 -21 -18q-10 0 -23 15.5t-21.5 24t-13.5 14.5zM136.5 326.5q-5.5 7.5 -19 21t-13.5 21t30 34t37.5 26.5t29.5 -25.5t22 -29.5
q0 -13 -30.5 -38.5t-36 -25.5t-10 4.5t-10 12z" />
    <glyph glyph-name="semicolon" unicode=";" horiz-adv-x="298" 
d="M66 -153q0 9 14.5 21t17.5 15q38 42 38 91q0 35 -42 64q-13 10 -13 16.5t22.5 35t38 28.5t34.5 -30t19 -84t-44.5 -112t-70.5 -58q-14 0 -14 13zM100 368q0 4 32 33.5t35 29.5q7 0 30 -29t23 -33q0 -12 -30 -38.5t-35.5 -26.5t-10.5 5.5t-11 13.5t-9 11q-24 24 -24 34z
" />
    <glyph glyph-name="less" unicode="&#x3c;" horiz-adv-x="508" 
d="M33 196q-2 4 -2 12.5t1 11.5q1 5 14 11q339 123 374.5 136.5t37.5 13.5q19 0 19 -25q0 -12 -16 -16l-305 -111q-42 -15 -42 -21q0 -3 42 -18l310 -112q11 -4 11 -12.5t-5.5 -16.5t-17.5 -8q-4 0 -409 147q-10 4 -12 8z" />
    <glyph glyph-name="equal" unicode="=" horiz-adv-x="508" 
d="M24 95q-3 5 -3 16t1 15q3 9 18 9h430q14 0 16 -9v-15t-3 -16.5t-18 -4.5h-426q-12 0 -15 5zM24 291q-3 5 -3 16t1 15q2 8 18 8h430q14 0 16 -8v-15.5t-3 -16t-18 -4.5h-426q-12 0 -15 5z" />
    <glyph glyph-name="greater" unicode="&#x3e;" horiz-adv-x="508" 
d="M36.5 49q-5.5 8 -5.5 16.5t11 12.5l310 112q42 15 42 18q0 6 -42 21l-306 111q-15 4 -15 16q0 25 18 25q3 0 102.5 -37t309.5 -113q16 -6 16 -18.5t-2.5 -16.5t-12.5 -8q-405 -147 -408 -147q-12 0 -17.5 8z" />
    <glyph glyph-name="question" unicode="?" horiz-adv-x="413" 
d="M105.5 40.5q-4.5 5.5 -4.5 9t3 8t8 8.5l24 18q8 6 16 14q15 16 21 16t8.5 -1t5.5 -4.5t5.5 -6.5t7 -9t17.5 -20t13 -20t-4 -10.5t-15 -14t-27.5 -26t-19.5 -16.5t-6.5 1.5t-7 4.5t-5.5 6q-15 18 -25 27.5t-14.5 15zM197 237l3 -33q0 -10 -10 -10q-24 0 -24 65
q0 36 32.5 94t65.5 112t33 82.5t-26 51t-49.5 22.5t-43 -9.5t-26.5 -9.5t-7 6q0 14 32 36.5t74.5 22.5t81.5 -33.5t39 -85.5q0 -34 -13 -55.5t-19 -30.5q-15 -20 -28 -33q-24 -30 -37 -46t-24.5 -30.5t-16 -22t-12.5 -19.5t-11.5 -20t-6.5 -17q-7 -18 -7 -37z" />
    <glyph glyph-name="at" unicode="@" horiz-adv-x="821" 
d="M44 286q0 96 32.5 172t80 119.5t107.5 72.5q100 47 199 47q139 0 226.5 -88.5t87.5 -216.5q0 -109 -68.5 -186t-159.5 -77q-32 0 -51 12.5t-23 27.5t-6 27.5t-4 12.5t-15.5 -15.5t-31.5 -33.5t-47.5 -33.5t-68.5 -15.5t-62 26.5t-23 77t31.5 115.5t86.5 111.5t113 46.5
q19 0 44.5 -4.5t27.5 -4.5q7 0 19 20t23 20q8 0 8 -11.5t-12 -59.5q-37 -150 -37 -202v-13q0 -59 41 -59q76 0 125 57.5t49 173t-78 185t-194 69.5q-151 0 -255.5 -100.5t-104.5 -261.5q0 -142 88.5 -233t230.5 -91q63 0 114 16.5t77 32.5t27 16q11 0 11 -12q0 -14 -44 -40
q-89 -50 -203 -50q-160 0 -260.5 93t-100.5 257zM284 227q0 -30 17.5 -45t45 -15t54.5 17t38 33.5t37 115.5t26 104t-22 12t-40 7q-49 0 -102.5 -64.5t-53.5 -164.5z" />
    <glyph glyph-name="A" unicode="A" horiz-adv-x="771" 
d="M115 0l-75 -2q-20 0 -20 11q0 13 25 21q30 12 45 35q24 39 40 69t34 62t46 83.5t60 108.5q178 320 184 325t14 5t11.5 -7t11.5 -35t11 -39l9 -33q18 -66 86.5 -275.5t80 -240t20.5 -41t38 -19.5q16 -5 16 -20q0 -10 -31 -10l-65 3l-93 -5q-27 0 -27 10t10.5 16t22.5 8
t22.5 11t10.5 25t-8 47.5t-19 67.5t-15 53q-6 24 -36 24l-121 -1q-76 0 -101 1.5t-33 1.5q-27 0 -35 -15q-56 -99 -70.5 -136t-14.5 -40q0 -25 17 -33.5t34 -11t17 -12.5q0 -14 -9 -14h-6zM321 304l191 1q14 0 16 7v11.5t-43.5 140.5t-52.5 132q-5 0 -83 -140t-78 -146
t19 -6h31z" />
    <glyph glyph-name="B" unicode="B" horiz-adv-x="612" 
d="M147 0l-106 -6q-21 0 -21 15.5t14 15.5q24 0 33 11t13 15.5t7 18t4 17.5t3 19l2 16q12 78 33 279.5t21 225.5t-25 42q-13 10 -31.5 11t-25 4.5t-6.5 10t4.5 10t8.5 3.5l68 -4l219 2q89 0 146 -39t57 -120q0 -33 -14.5 -63t-35.5 -49.5t-41.5 -33.5t-35 -22t-14.5 -9.5
t15 -6t36 -13.5t42 -24.5t36 -45.5t15 -67t-15.5 -74t-53 -73.5t-87.5 -52.5t-130 -16zM164 75q0 -24 25 -35.5t97 -11.5q98 0 147.5 55t49.5 115t-40.5 105.5t-117.5 51.5t-89 6h-29q-9 0 -17 -69.5t-11 -90.5l-8 -67q-1 -11 -3 -26q-4 -28 -4 -33zM208 404q0 -13 21 -15.5
t113 -2.5q39 0 69 16t45 40q30 48 30 90q0 58 -44 95q-26 22 -57.5 32t-77.5 10t-56 -8t-14 -34l-12 -82q-17 -111 -17 -141z" />
    <glyph glyph-name="C" unicode="C" horiz-adv-x="762" 
d="M59.5 187q-20.5 59 -20.5 129t24 139.5t70.5 127.5t122.5 92.5t172 34.5q61 0 119 -19t91 -38l32 -19q3 0 10.5 8t11.5 8q12 0 12 -16q0 -88 4.5 -115t4.5 -34q0 -24 -14 -24q-7 0 -12 8t-12.5 29.5t-15.5 41.5q-16 41 -59 70q-91 62 -184.5 62t-161 -50.5t-99 -126
t-31.5 -161.5q0 -147 81 -233.5t199.5 -86.5t209.5 103q12 13 22 34.5t17 34t16 12.5q16 0 16 -18q0 -13 -7.5 -34t-10.5 -31.5t-6.5 -27.5t-6 -23.5t-9.5 -10.5q-145 -76 -267 -76q-84 0 -150.5 28t-107 75.5t-61 106.5z" />
    <glyph glyph-name="D" unicode="D" horiz-adv-x="767" 
d="M298 0l-155 3q-35 0 -65.5 -4t-37.5 -4t-13.5 5.5t-6.5 13t8 11t18.5 5t22.5 12t18 30.5t10 44l68 500q2 16 2 18q0 15 -14 27.5t-31 13.5q-46 3 -46 21.5t31 18.5q17 0 46.5 -5.5t54.5 -5.5t69.5 5t86.5 5q190 0 279.5 -79.5t89.5 -204t-78 -244.5q-22 -35 -63.5 -74.5
t-67.5 -54.5q-94 -57 -226 -57zM172 63q0 -10 10 -19.5t38 -9.5h88q44 0 104 21q106 38 168 143q42 71 56 175q5 32 5 61t-7 59.5t-27 64t-51 58t-83.5 40.5t-117 16t-82.5 -8t-29 -47q-7 -32 -39.5 -288t-32.5 -266z" />
    <glyph glyph-name="E" unicode="E" horiz-adv-x="631" 
d="M167 3l-112 -3q-35 0 -35 13.5t22.5 14.5t35 16t17.5 33t10 49t5.5 35.5t8.5 53.5t12 81l36 303q1 9 1 29t-12 33.5t-26 14.5q-38 3 -38 17.5t23 14.5l253 -2l231 4q18 0 18 -19l-4 -53l3 -54q0 -28 -13 -28q-15 0 -15 24q0 43 -33 63q-10 6 -35 13.5t-56 7.5l-154 3
q-44 0 -53.5 -10t-17.5 -58q-25 -175 -25 -194t6.5 -21t86.5 -2t110.5 4t42 18t17.5 28t9 20t9 6q12 0 12 -10t-8.5 -47.5t-11 -53t-2.5 -43.5q0 -60 -16 -60q-11 0 -11 16q0 48 -17 60q-29 21 -107 21h-48l-31 1h-6q-38 0 -39 -17q-3 -30 -12 -89q-24 -148 -24 -159
q0 -24 24 -30.5t105.5 -6.5t141 15.5t81 34t36 34t20.5 15.5q10 0 10 -14q0 -27 -42 -80t-74 -53q-72 0 -179.5 5.5t-129.5 5.5z" />
    <glyph glyph-name="F" unicode="F" horiz-adv-x="585" 
d="M566 638l5 -54q0 -27 -12 -27q-13 0 -15 24q-3 29 -28.5 55.5t-90 29.5t-82.5 3h-34q-41 0 -51 -9.5t-14 -33.5q-29 -198 -29 -217.5t7 -23t35 -3.5h61q74 0 94.5 2t33.5 12.5t16 21.5q8 30 22 30q10 0 10 -10.5t-9.5 -57.5t-9.5 -94t-13 -47q-16 0 -16 21v11
q0 18 -2 28.5t-11.5 19t-20.5 12t-38 5.5q-38 4 -132 4q-35 0 -36 -22q-3 -29 -10 -84q-19 -137 -19 -145q0 -28 17 -42.5t37 -15.5q54 -3 54 -21q0 -12 -15 -12q-3 0 -36 2.5t-62 2.5q-48 0 -108 -6l-19 -2q-25 0 -25 13q0 6 6 11t19.5 6.5t26 13t20.5 39.5q18 61 26 143
q20 138 35 265.5t15 133.5q0 28 -14.5 41.5t-31.5 14t-31.5 4t-14.5 15.5q0 16 23 16q9 0 45 -1q86 -4 224 -4l180 2q18 0 18 -17v-53z" />
    <glyph glyph-name="G" unicode="G" horiz-adv-x="773" 
d="M631 356l84 4q19 0 19 -12q0 -13 -23 -16q-9 -2 -17.5 -10.5t-11.5 -24.5q-22 -137 -22 -192v-31q0 -20 -3.5 -23.5t-15.5 -6.5t-18.5 -5.5t-20.5 -8t-25.5 -9.5t-32.5 -10.5t-41 -10.5q-50 -10 -100 -10q-177 0 -270.5 101t-93.5 268q0 78 46 174q24 50 72.5 93.5
t115 66.5t120 23t96 -7.5t71.5 -18.5t51.5 -22t35.5 -18.5t15.5 -7.5t13.5 10t15 10q13 0 13 -18l-2 -52q0 -20 3.5 -50t3.5 -34q0 -23 -17 -23q-8 0 -12 9.5t-11 30t-19 37.5q-38 57 -110.5 87t-153.5 30q-76 0 -138 -37q-36 -22 -62.5 -56.5t-44 -93.5t-17.5 -135
q0 -139 77.5 -235.5t202.5 -96.5q46 0 77 7t60 28q58 44 58 183v6q0 52 -8.5 65.5t-46.5 13.5h-9q-29 0 -29 18q0 13 33 13z" />
    <glyph glyph-name="H" unicode="H" horiz-adv-x="786" 
d="M132 2l-78 -5q-34 0 -34 14q0 13 17 15q20 1 38 19q16 16 25 86q1 13 4 36t5 43t6 53.5t9 76t14 119.5q20 158 20 160q0 47 -60 54q-25 3 -26 4q-8 3 -8 12q0 15 27 15q11 0 41 -3.5t58 -3.5t59.5 3.5t38.5 3.5q18 0 18 -15q0 -7 -9.5 -9.5t-23 -6t-22 -13.5t-14 -34
t-13 -83.5t-13.5 -94.5t-6 -46t2.5 -13t9.5 -2l333 -3h20q17 0 22 7t7 24.5t7 63.5q13 120 13 126q0 48 -40 65q-5 2 -19 4q-35 3 -35 15.5t27 12.5l107 -3l86 4q22 0 22 -15q0 -8 -20 -12.5t-27 -13.5q-21 -25 -31.5 -127t-24.5 -208.5t-21 -159t-7 -65.5t1 -23t2.5 -17
t5 -12.5t5.5 -9.5t7.5 -6.5t7.5 -3.5q6 -5 17 -5l16 -1q33 -2 33 -18q0 -12 -18 -12l-102 9q-29 0 -56 -4t-34 -4q-32 0 -32 13t15 14.5t24 7.5t14 11t8 18q6 20 8 37l2 16q28 199 28 213t-5.5 16.5t-28.5 2.5l-100 -1h-235q-17 0 -19.5 -3t-4.5 -22l-7 -52
q-21 -145 -21 -164.5t3 -31.5t6 -19t11 -12.5t11 -6.5q21 -7 29 -8t10 -2t5.5 -1.5t5 -1.5t3.5 -3q3 -2 3 -7q0 -9 -16 -9z" />
    <glyph glyph-name="I" unicode="I" horiz-adv-x="325" 
d="M132 1l-77 -6q-35 0 -35 16q0 12 20 13q21 2 34 21t15 36t21 158q48 370 48 380q0 47 -60 54q-25 3 -26 4q-8 3 -8 12q0 15 27 15q11 0 41 -4t62 -4l94 6q18 0 18 -14q0 -7 -9.5 -9.5t-23 -6t-19.5 -10.5q-20 -23 -30.5 -126.5t-25.5 -209.5t-23 -159.5t-8 -71.5t3 -33
t10.5 -22t12 -10t16.5 -5t15.5 -3t8.5 -2t8.5 -1.5t6.5 -1.5q6 -2 6 -8.5t-3 -9.5q-4 -4 -18 -4z" />
    <glyph glyph-name="J" unicode="J" horiz-adv-x="405" 
d="M189 246l45 383q0 39 -68 45q-25 2 -25 18t26 16q12 0 38 -4.5t59.5 -4.5t64.5 4t33 4q23 0 23 -11t-6 -13.5t-15 -3.5t-19 -5q-23 -11 -35 -77q-2 -14 -18.5 -156t-29.5 -228.5t-39.5 -146t-80.5 -97.5t-100 -38q-23 0 -37.5 8.5t-14.5 20.5t11.5 45t25.5 33q8 0 15 -14
q19 -41 51 -41q39 0 60.5 71.5t35.5 191.5z" />
    <glyph glyph-name="K" unicode="K" horiz-adv-x="774" 
d="M163 3l-114 -5q-29 0 -29 15q0 9 9 12t21 4.5t25.5 16t22.5 50t36 268t27 256.5t-19.5 40t-48.5 18q-18 1 -18 17q0 12 18 12l5 -1q5 0 14.5 -1t21.5 -2q25 -2 74 -2l84 4q19 0 19 -10q0 -5 -3.5 -7.5t-13.5 -5.5q-43 -14 -54 -60q-8 -35 -17.5 -125t-10.5 -98
q-2 -16 -2 -20q0 -9 7.5 -9t117.5 81.5t191 144.5q53 42 53 60q0 14 -24 21t-24 17q0 12 27 12l92 -6l83 6q21 0 21 -16t-13 -19q-5 -2 -18.5 -4t-26.5 -6q-34 -11 -125 -77l-216 -155q-5 -4 -14.5 -10t-15.5 -10.5t-12.5 -9.5t-10 -9.5t-3.5 -8.5t33.5 -40t98.5 -111
t88.5 -101.5t56.5 -56t56 -37t52 -9.5t29 -14q0 -14 -17 -14l-99 4h-33l-24 -1q-10 0 -25 16.5t-82 96.5q-181 216 -187.5 220t-14.5 4t-15 -6.5t-7.5 -7.5t-2.5 -3t-3 -4t-2.5 -6t-2.5 -8t-2 -11q-2 -15 -11 -95t-9 -84q0 -54 10.5 -66.5t47 -17t36.5 -17t-23 -12.5z" />
    <glyph glyph-name="L" unicode="L" horiz-adv-x="589" 
d="M174 3l-126 -6q-23 0 -23 13q0 9 7 12t21 7t22.5 11t11.5 11t6 9.5t5 17t4 24.5t5 39.5t7 55t10.5 78t24.5 179.5t18 178q0 53 -61 55q-12 0 -20.5 6t-8.5 14q0 12 16 12q2 0 15 -2q39 -6 99 -6l91 4q21 0 21 -13q0 -8 -10 -12t-22.5 -7t-24.5 -17t-16 -39
q-71 -515 -71 -541.5t18.5 -37t88 -10.5t120 7.5t77 18.5t44.5 23.5t25 23.5q15 26 24 26q12 0 12 -18t-22.5 -55.5t-33.5 -47.5q-27 -24 -61 -24h-47q-47 0 -133 5.5t-113 5.5z" />
    <glyph glyph-name="M" unicode="M" horiz-adv-x="911" 
d="M116 1l-73 -3q-23 0 -23 12v4q0 4 1.5 4.5t3 1.5l3 2t5 2.5t6.5 2.5q9 3 19 7q24 9 35 42q14 41 23.5 97.5t25.5 137.5q33 160 33 208l-1 43q0 51 -30 93q-12 16 -25 20.5t-36 4.5h-15q-15 0 -15 16t71 16h6l64 1q16 0 27 -21t50 -118t87 -204q109 -244 117.5 -244
t160.5 306q1 2 30 58.5t42 83.5t24 53t16 38.5t11 24.5q10 18 23 18h30l55 4q24 0 24 -14q0 -4 -5 -9t-9 -6t-15.5 -2.5t-15 -3t-11 -8t-11.5 -18.5q-21 -74 -21 -197v-78l-2 -142l-1 -25l-1 -103q0 -42 11 -59t33 -20.5t30 -4.5q15 -2 15 -12q0 -14 -28 -14l-104 5l-83 -5
q-21 0 -21 12q0 13 26 18q11 2 23 12t17 28q15 50 15 324q0 115 -6 115q-10 0 -39 -56l-146 -283q-28 -55 -51 -102.5t-28 -54t-14 -6.5q-7 0 -37.5 67t-106 238.5t-79 178t-7 6.5t-8.5 -17t-9.5 -56.5t-31.5 -178.5t-27 -170q0 -38 55 -44q25 -3 28.5 -8t3.5 -9
q0 -12 -21 -12z" />
    <glyph glyph-name="N" unicode="N" horiz-adv-x="804" 
d="M107 -2l-65 -3q-22 0 -22 11q0 9 14 12q20 6 28 13.5t14.5 15.5t11.5 21.5t8 24t7.5 35t7 41.5t8.5 56t9 60t11.5 71.5t12.5 80.5q14 90 14 118.5t-2 39.5t-4 17t-9 14.5t-9 11t-12.5 12t-12.5 11.5q-12 11 -35 12.5t-38.5 3t-15.5 14.5q0 19 67 19l42 -3l30 1
q17 0 23.5 -7.5t8.5 -10.5t7.5 -10.5t9.5 -13.5q237 -328 349 -507q20 -32 26 -32q19 0 48.5 228.5t29.5 258.5t-12.5 45t-28.5 17q-40 7 -40 26q0 10 25 10l76 -4l70 4q16 0 21 -3t5 -8.5t-1.5 -7.5t-5.5 -3.5t-7 -1.5q-41 -7 -54 -45t-21 -105q-42 -353 -78 -517
q-1 -8 -7 -17.5t-13.5 -9.5t-15.5 9t-23 33t-33 54q-64 105 -113.5 175.5t-79 112.5t-45 63.5t-28.5 39.5q-21 29 -27.5 42t-16.5 13q-14 0 -19 -47q-11 -111 -32 -239.5t-21 -169t39 -52.5q4 -1 11.5 -3t11.5 -3t9 -3q9 -4 9 -12q0 -12 -17 -12q-5 0 -26 1.5t-74 1.5z" />
    <glyph glyph-name="O" unicode="O" horiz-adv-x="815" 
d="M39 314q0 74 26.5 145t75.5 129t125.5 93t164.5 35t155.5 -28.5t107.5 -76.5q82 -98 82 -235q0 -148 -92 -266q-46 -59 -121 -94.5t-169 -35.5q-160 0 -257.5 92t-97.5 242zM125 347q0 -154 82 -242.5t194 -88.5q87 0 154.5 55t100 136.5t32.5 171t-21 142.5
q-29 75 -92.5 120t-144.5 45t-139 -32.5t-93 -83.5q-73 -106 -73 -223z" />
    <glyph glyph-name="P" unicode="P" horiz-adv-x="576" 
d="M132 2l-81 -6q-32 0 -32 14q0 11 21 15q3 1 4 1q32 6 43 52q3 16 34 263t31 295q0 52 -69 54q-18 0 -18 14q0 12 23 12l157 -6l108 7q84 0 134 -42.5t50 -115t-34 -130t-93 -82.5q-39 -16 -86 -16q-89 0 -89 16q0 2 3 2l26 -1h29q57 0 111 53t54 139q0 33 -13 59t-25 37
q-55 48 -126 48q-20 0 -27 -0.5t-10 -1.5t-7 -5q-17 -15 -58 -359q-10 -85 -19 -158l-11 -79q0 -27 23 -40.5t46 -18.5t23 -12q0 -15 -19 -15q-7 0 -40 3.5t-63 3.5z" />
    <glyph glyph-name="Q" unicode="Q" horiz-adv-x="807" 
d="M39 -40q0 37 12.5 63.5t27 36.5t27 17t12.5 11.5t-12.5 21.5t-27 38.5t-27 62.5t-12.5 88.5t10.5 98t39 109t72 104t117 76t165.5 30.5q110 0 181 -50q15 -11 20 -16t22.5 -19t35.5 -37q71 -96 71 -235.5t-90.5 -247t-212.5 -122.5q-45 -5 -49.5 -9.5t-4.5 -8t46.5 -29
t110.5 -52t95.5 -26.5t51 12.5t29 24.5t14.5 12q8 0 8 -10q0 -28 -40.5 -66t-91 -38t-133 37t-149.5 81q-178 119 -210 119t-55 -28t-23 -59.5t11.5 -56t11.5 -26.5q0 -13 -12 -13q-41 0 -41 106zM124 326q0 -130 71.5 -221t208.5 -91q69 0 124.5 34t89.5 90q69 115 69 251
q0 102 -38 167q-29 51 -89 91.5t-135 40.5q-126 0 -213.5 -97t-87.5 -265z" />
    <glyph glyph-name="R" unicode="R" horiz-adv-x="637" 
d="M227 -3l-75 6q-29 0 -66.5 -4.5t-38.5 -4.5q-27 0 -27 15q0 10 6.5 14t21 8t24.5 9q14 8 18.5 30.5t18 144.5t20.5 180t13.5 107t11 82.5t4.5 39.5q0 49 -62 54q-32 2 -32 12.5t6.5 14t23.5 3.5l81 -6q25 0 73.5 4t93 4t65.5 -2q68 -6 108 -49t40 -101.5t-40.5 -110
t-118.5 -78.5q-9 -3 -9 -15.5t51.5 -129t77.5 -150.5q35 -48 82 -48q19 0 19 -11q0 -23 -64.5 -23t-87.5 18.5t-51.5 82t-55 135t-38.5 97t-24 25.5l-46 -1l-35 1q-11 0 -16 -17t-10 -71l-14 -141l-3 -35q0 -23 14 -36.5t30 -17.5q45 -9 45 -22t-34 -13zM208 412
q0 -26 31 -26h14q89 0 121.5 7.5t55.5 37.5q38 50 38 108.5t-37.5 97.5t-105.5 39q-45 0 -67 -12t-25 -53t-9.5 -88.5t-11 -76.5t-4.5 -34z" />
    <glyph glyph-name="S" unicode="S" horiz-adv-x="481" 
d="M441 676l-1 -35v-17q0 -15 6 -48t6 -40t-5.5 -12.5t-12.5 -5.5t-12 9.5t-8 24t-16.5 37.5t-35.5 45q-49 48 -119 48q-58 0 -77 -34q-15 -28 -15 -59t19.5 -65.5t41.5 -57.5t66 -64t72 -70t43.5 -48.5t29 -53t13.5 -65.5t-10.5 -59t-35 -55.5t-73.5 -46.5t-135.5 -18
t-124.5 22q-14 8 -25.5 53t-11.5 70.5t16 25.5q7 0 11 -11q16 -52 60.5 -88t116.5 -36q42 0 72.5 12t44.5 31q25 34 25 68t-17 63t-54 66l-117 116q-95 97 -95 177q0 39 11 67t23 40q51 54 134 54q35 0 88.5 -17.5t56 -17.5t15 8t17.5 8q13 0 13 -21z" />
    <glyph glyph-name="T" unicode="T" horiz-adv-x="692" 
d="M296 4l-86 -5q-32 0 -32 14q0 13 12 15h5q6 2 14 2q29 4 38.5 18.5t13.5 44.5q69 517 69 545q0 11 -13 13.5t-83.5 2.5t-99.5 -7t-43 -23t-20.5 -30t-8.5 -22q-5 -21 -20 -21q-13 0 -13 17.5t3.5 27t12 31t14.5 45.5t15.5 29t32.5 5l258 -3q102 0 191 2l90 2q24 0 27 -11
q1 -3 1 -9l4 -111q0 -23 -19 -23q-8 0 -10 6t-3 11q-3 15 -12.5 42.5t-33 32.5t-117.5 5h-45q-24 0 -29 -10t-8 -39.5t-3.5 -34.5t-1 -13t-5.5 -57t-19 -156q-30 -229 -30 -255.5t13.5 -39.5t29.5 -14q43 -3 43 -18t-25 -15z" />
    <glyph glyph-name="U" unicode="U" horiz-adv-x="827" 
d="M94 215l37 411q0 24 -13.5 36t-29.5 13q-44 3 -44 19q0 14 17 14l35 -3q35 -3 79 -3l90 6q20 0 20 -14q0 -15 -33 -20q-13 -2 -25 -16t-15.5 -52.5t-15.5 -135.5q-24 -205 -24 -254.5t7 -74t25.5 -53t58.5 -46t98 -17.5q194 0 259 159q22 56 47.5 219t25.5 214
q0 31 -21.5 43t-43.5 16t-22 16.5t24 12.5l55 -4l104 4q7 0 12.5 -4t5.5 -10t-12 -9q-41 -13 -52 -51q-2 -7 -15 -103q-36 -280 -71 -364q-22 -53 -53 -83.5t-89 -65.5q-24 -14 -72.5 -24t-78.5 -10q-87 0 -138 17t-83 49.5t-40.5 67.5t-8.5 100z" />
    <glyph glyph-name="V" unicode="V" horiz-adv-x="780" 
d="M675 702l51 2q34 0 34 -11q0 -13 -14 -15q-18 -1 -37.5 -17t-49.5 -70.5t-71.5 -138t-64.5 -122t-51.5 -88t-49 -84.5t-43.5 -74q-47 -78 -67 -100q-5 -5 -11 -5q-13 0 -25 47q-3 8 -4 13l-137 496q-10 38 -15.5 54.5t-18 38.5t-25 29.5t-23 10t-17.5 2.5q-16 2 -16 20
q0 15 36 15l80 -4l78 4q36 0 36 -13q0 -10 -13.5 -12.5t-27 -14t-13.5 -38.5t69.5 -273.5t80.5 -246.5q9 0 143.5 250.5t134.5 280.5q0 16 -12.5 24.5t-27.5 9.5q-39 5 -39 21q0 8 3.5 11t16.5 3z" />
    <glyph glyph-name="W" unicode="W" horiz-adv-x="1053" 
d="M933 706l66 4q34 0 34 -15q0 -13 -19 -15q-22 -1 -41.5 -17t-49.5 -71t-71.5 -139t-69.5 -131t-71 -124q-96 -171 -125 -213q-6 -10 -16.5 -10t-14 2.5t-5.5 8.5t-3.5 12.5t-4 18.5t-5.5 22l-59 224q-5 20 -7.5 20t-43.5 -69q-128 -216 -138 -228q-7 -7 -13.5 -7
t-11.5 11q-6 13 -75.5 293.5t-83.5 325.5t-32 56q-3 1 -8.5 4.5t-19.5 8.5t-19.5 9t-5.5 13.5t20 9.5q3 0 34 -3.5t58 -3.5l79 4q28 0 28 -12q0 -10 -13 -11q-28 -2 -38.5 -12.5t-10.5 -38.5t64.5 -279t75.5 -251q2 0 35.5 52.5t66 110t32.5 69t-5 31.5l-43 170
q-2 6 -7 26.5t-7 28t-7 23.5t-10 24q-13 22 -25.5 30t-26 12t-20 7.5t-6.5 10.5q0 10 29 10l77 -5l79 4q31 0 31 -12q0 -13 -28 -15q-10 0 -18.5 -9.5t-8.5 -24.5t25.5 -112.5t29.5 -97.5q11 0 56.5 96t45.5 113t-17 26t-33.5 13.5t-16.5 14t26 9.5l78 -3l64 3
q30 0 30 -13.5t-13 -13.5q-18 0 -30 -10t-18 -16t-13 -17t-11.5 -18t-13.5 -23t-13 -23t-14.5 -27t-17.5 -32t-17 -30.5t-16.5 -30.5t-13 -23t-10 -17.5t-7 -12.5t-5 -9.5t-2.5 -6t-1.5 -5t-0.5 -4.5v-5q0 -18 38 -144t45.5 -126t144 256.5t136.5 285.5q0 18 -11.5 26.5
t-25.5 9.5q-37 3 -37 18q0 13 21 13z" />
    <glyph glyph-name="X" unicode="X" horiz-adv-x="737" 
d="M128 3l-80 -10q-28 0 -28 17q0 10 6 14t17 5.5t34 15.5t43 34t39 42t32 39q67 85 110.5 139.5t43.5 57t-6.5 18t-19 46t-32 79t-52 98t-57.5 55.5q-24 8 -37 8q-37 0 -58.5 -26t-21.5 -60.5t25 -49.5q3 -2 8.5 -3.5t9.5 -3.5q9 -4 9 -18q0 -19 -27 -19t-44.5 34
t-17.5 73.5t14.5 66.5t37.5 40q42 24 82 24q65 0 102 -34q57 -51 110 -191q14 -37 19 -50.5t9 -13.5t19 20l65 87q72 95 72 120t-29.5 28.5t-29.5 15.5q0 15 17 15l81 -3l83 3q31 0 31 -18q0 -11 -14 -14q-37 -6 -64.5 -31.5t-99 -117t-91.5 -115.5q-22 -27 -22 -30
q0 -12 42.5 -106t69 -141t39.5 -63.5t38 -31.5t49 -15t39 7.5t24.5 7.5t9.5 -11q0 -19 -31 -31.5t-77.5 -12.5t-78 12t-47.5 33q-24 31 -103 221q-23 54 -27.5 54t-29.5 -33l-93 -124q-52 -71 -52 -96q0 -28 60 -33q17 0 17 -14.5t-28 -14.5z" />
    <glyph glyph-name="Y" unicode="Y" horiz-adv-x="690" 
d="M413 -6l-113 7q-26 0 -50.5 -4t-33.5 -4q-27 0 -27 13q0 14 25 18q9 2 13 3q14 4 20 17.5t21.5 121t15.5 125t-1.5 24t-6 18t-9.5 22.5t-17 33.5t-23 43.5t-31.5 60.5t-40.5 77.5q-50 98 -88 110q-3 1 -17 2q-30 1 -30 18q0 14 33 14l93 -4l89 4q30 0 30 -15
q0 -10 -25 -19t-25 -23q0 -41 44 -117q16 -30 37 -77q48 -104 51 -104t49 62t92 136t46 92.5t-11 24.5t-25 6q-35 -2 -35 18q0 14 26 14l53 -2l103 3q26 0 26 -15q0 -6 -11 -11t-27.5 -11.5t-32.5 -23.5t-102 -143t-104 -146.5t-26.5 -41.5t-14.5 -73q-16 -153 -16 -171
t16.5 -32t30.5 -18t24 -5q24 -1 24 -14q0 -9 -5 -11.5t-14 -2.5z" />
    <glyph glyph-name="Z" unicode="Z" horiz-adv-x="587" 
d="M155 -4l-109 -5q-26 0 -26 13q0 12 20 36q40 49 72 93q357 476 357 499q0 4 -33 4l-53 -1l-112 10q-58 0 -95.5 -8.5t-62 -35t-24.5 -51t5.5 -36.5t12.5 -14q18 -7 18 -20q0 -16 -24 -16t-34 24.5t-10 51t12.5 58.5t49.5 67.5t69.5 42.5t91.5 7t127 -7t89 -7l49 6
q15 0 18.5 -4t3.5 -14t-217.5 -305t-217.5 -305q0 -8 12.5 -9.5t60.5 -1.5h43q56 0 114.5 -3t72.5 -3q75 0 75 27q0 6 -14 11t-28 14t-14 27.5t15.5 31t35.5 12.5t31 -17.5t11 -31.5q0 -65 -59 -113q-14 -15 -28.5 -19.5t-26.5 -7.5q-24 -6 -90.5 -6t-126 3t-61.5 3z" />
    <glyph glyph-name="bracketleft" unicode="[" horiz-adv-x="266" 
d="M113 -159l84 1q20 0 20 -16q0 -20 -11.5 -25t-40.5 -5h-83q-16 0 -21.5 4.5t-5.5 20.5l3 36l6 61q8 72 35.5 309t35.5 312t11.5 113.5t5 59.5t2.5 31.5t11 15t38 4.5h40l55 1h6q13 0 13 -20.5t-13 -20.5l-86 -1h-15q-7 0 -12.5 -58t-11 -108.5t-25.5 -231.5
q-50 -439 -50 -461t9 -22z" />
    <glyph glyph-name="backslash" unicode="\" horiz-adv-x="416" 
d="M20 723q0 12 17.5 12t23 -3.5t9.5 -14.5l307 -830q3 -8 8 -21q11 -29 11 -33q0 -16 -33 -16q-8 0 -12.5 5.5t-12.5 25.5l-304 831q-14 36 -14 44z" />
    <glyph glyph-name="bracketright" unicode="]" horiz-adv-x="266" 
d="M211 738l-9 -96q-8 -72 -35.5 -309t-35.5 -312t-11.5 -113.5t-5 -59.5t-2.5 -32q-2 -20 -49 -20h-101q-13 0 -13 20.5t13 20.5h101q7 0 12.5 58.5t11 109t25.5 231.5q50 439 50 460.5t-9 21.5h-84q-20 0 -20 15q0 29 18 29q94 2 113.5 2t25 -5t5.5 -21z" />
    <glyph glyph-name="asciicircum" unicode="^" horiz-adv-x="333" 
d="M29 331q0 5 13.5 27t45.5 76t45 70.5t29.5 16.5t29 -16.5t44 -70t44.5 -74.5t13 -31q0 -8 -18 -8h-15q-11 0 -15 6l-6 9q-6 9 -9 18q-11 18 -20.5 37.5t-15 29t-8.5 15.5t-6.5 12t-6 9t-4.5 6t-3.5 4t-3.5 1t-4.5 -2t-5.5 -6.5t-6.5 -10t-9 -16t-11 -20.5t-14.5 -27
l-13.5 -25.5t-7.5 -14t-4 -7.5t-4 -6.5t-6 -6.5q-7 -4 -13 -4h-14q-20 0 -20 9z" />
    <glyph glyph-name="underscore" unicode="_" horiz-adv-x="213" 
d="M3 -57q-3 5 -3 16t1 15q3 9 18 9h178q14 0 15 -9q1 -3 1 -14.5t-3 -16.5t-18 -5h-174q-12 0 -15 5z" />
    <glyph glyph-name="grave" unicode="`" horiz-adv-x="439" 
d="M184 549q-53 67 -53 82t21 22t31 7t16 -18q25 -80 42 -113t17 -37q0 -10 -10.5 -10t-63.5 67z" />
    <glyph glyph-name="a" unicode="a" horiz-adv-x="518" 
d="M53.5 19.5q-21.5 34.5 -21.5 101t58 158.5t133 128q37 18 62.5 18t52 -5.5t40 -5.5t29.5 24.5t26.5 24.5t10.5 -12t-8.5 -36t-10.5 -32t-22 -119.5t-20 -136.5t10 -44t26 -19t39.5 32.5t32 32.5t8.5 -14.5t-19.5 -42.5t-48 -53.5t-52 -25.5t-37.5 28t-16.5 56t-3.5 28
t-11.5 -12.5t-28 -30t-38.5 -34.5q-53 -43 -111 -43t-79.5 34.5zM107 174q-5 -30 -5 -60t22.5 -52t62 -22t74 31.5t46.5 55.5t25 83q27 130 27 151.5t-22 30t-49 8.5t-62 -22t-57 -59q-52 -86 -62 -145z" />
    <glyph glyph-name="b" unicode="b" horiz-adv-x="471" 
d="M116 709l-41 -2q-12 0 -15.5 3.5t-3.5 9t1.5 8.5t5.5 5.5t7.5 4t11 2.5t13.5 2t17 2t23 2.5t27 4.5q28 6 31 6q19 0 19 -18q0 -2 -32 -173.5t-32 -200.5t4 -29t25 23t61 46.5t92 23.5t80.5 -37t28.5 -90q0 -109 -81.5 -212t-191.5 -103q-49 0 -85.5 21.5t-36.5 62.5
q0 48 9 95q26 137 45.5 262.5t31 182t11.5 86.5q0 12 -25 12zM110 83q0 -68 77 -68q66 0 124 85.5t58 173.5q0 42 -28.5 72t-69.5 30q-17 0 -35.5 -5t-44.5 -28.5t-40 -61t-24 -85.5q-17 -80 -17 -113z" />
    <glyph glyph-name="c" unicode="c" horiz-adv-x="418" 
d="M32 149q0 107 75.5 197t178.5 90q37 0 76 -28q24 -18 24 -38.5t-10 -32.5t-23.5 -12t-27 11.5t-23.5 24.5t-28.5 24.5t-34.5 11.5q-34 0 -73 -35q-29 -26 -47.5 -74t-18.5 -89q0 -153 118 -153q36 0 65.5 13.5t46 27t22.5 13.5q13 0 13 -13q0 -9 -21 -31.5t-66 -45
t-95 -22.5q-151 0 -151 161z" />
    <glyph glyph-name="d" unicode="d" horiz-adv-x="495" 
d="M347 711l-29 -1h-6q-16 0 -16 11q0 8 8.5 11t27 5t30 5t24 6t17 4.5t10.5 3t11 1.5h12q7 0 11.5 -5t4.5 -12t-1.5 -18t-6 -41.5t-10.5 -72.5q-20 -130 -44.5 -305t-24.5 -199q0 -43 26 -43q31 0 65 47q12 15 18 15q11 0 11 -9q0 -23 -42.5 -72.5t-85.5 -49.5
q-24 0 -37 17.5t-15 38.5t-3.5 38.5t-5.5 17.5q-2 0 -15 -17.5t-30.5 -38.5t-48.5 -38.5t-65 -17.5q-61 0 -90.5 36.5t-29.5 96.5q0 115 79 209.5t170 94.5q13 0 36.5 -6.5t37.5 -6.5q2 0 19 131.5t17 140.5t-8.5 16t-20.5 7zM111 265q-24 -59 -24 -109q0 -106 85 -106
q60 0 101 52q26 32 40.5 124t14.5 142q0 19 -21.5 29.5t-45.5 10.5q-44 0 -85 -42t-65 -101z" />
    <glyph glyph-name="e" unicode="e" horiz-adv-x="402" 
d="M66.5 30q-34.5 42 -34.5 111t30 131t84.5 113t137.5 51q36 0 61.5 -21t25.5 -49.5t-12 -51t-30 -37.5q-32 -27 -55 -36q-58 -26 -157 -27q-17 0 -17 -49.5t36 -83t108 -33.5q42 0 90 32q15 11 18 11q12 0 12 -10q0 -21 -57.5 -57t-116.5 -36q-89 0 -123.5 42zM130.5 301
q-16.5 -37 -16.5 -53.5t9 -16.5q71 0 125 40t54 88q0 25 -17.5 36t-35.5 11q-37 0 -82 -47q-20 -21 -36.5 -58z" />
    <glyph glyph-name="f" unicode="f" horiz-adv-x="302" 
d="M277 373l-84 2q-13 0 -14.5 -5t-2.5 -6q-1 -5 -1 -11t-10 -109t-21 -193.5t-27 -128.5t-44 -64t-46.5 -32t-33 -6t-25.5 6.5t-11 18.5t8 39.5t20.5 27.5t14.5 -15t12.5 -25t18 -10t14 12t11 36t7.5 47.5t6.5 59t25 189t21.5 155.5q0 13 -10 13h-61q-15 0 -20 4t-5 16.5
t4.5 17.5t21.5 5q50 -2 72 -2q6 0 7 7q23 158 86 248q57 80 126 80q47 0 47 -37q0 -14 -4 -35.5t-12 -21.5t-33 20.5t-51 20.5q-33 0 -66 -120t-33 -152q0 -10 12 -10l81 2q19 0 19 -17q0 -27 -20 -27z" />
    <glyph glyph-name="g" unicode="g" horiz-adv-x="435" 
d="M38 16q14 5 24 8t10 4.5t-3 5.5q-9 14 -9 36.5t10 37.5t19.5 22.5t9.5 9.5t-10.5 11.5t-21.5 38.5t-11 79.5t41.5 104t107.5 53.5q23 0 60 -13t51 -13t39 11t33.5 11t18 -6t9.5 -18t-10 -22.5t-26 -10.5t-34 4t-20 4q-12 0 -12 -9q0 -2 4 -13q14 -31 14 -65
q0 -56 -40.5 -114t-102.5 -58q-27 0 -50 6.5t-25.5 6.5t-5.5 -2q-8 -9 -8 -34.5t40 -44.5t87.5 -29.5t87.5 -37t40 -67.5q0 -60 -45.5 -84t-130 -24t-144 30.5t-59.5 93t62 87.5zM31 -61q0 -53 45.5 -81t102.5 -28q112 0 112 65q0 17 -35.5 37.5t-93.5 43.5q-71 29 -80 38
q-13 0 -32 -24t-19 -51zM142.5 360.5q-26.5 -40.5 -26.5 -103t19.5 -91t51.5 -28.5t59.5 39.5t27.5 100.5t-20.5 92t-52.5 31t-58.5 -40.5z" />
    <glyph glyph-name="h" unicode="h" horiz-adv-x="485" 
d="M101 705l-41 -1q-13 0 -13 11.5t42.5 15t69.5 10t34 6.5q12 0 12 -13q0 -2 -30 -165.5t-30 -217.5q0 -11 3.5 -11t16.5 13.5t29.5 29t44 29t55.5 13.5q89 0 89 -113q0 -30 -12 -105t-12 -97q0 -46 24 -46q13 0 32 11.5t27.5 22t14.5 18t9 7.5q10 0 10 -8q0 -34 -48 -76
t-82 -42q-49 0 -49 93q0 31 9 102.5t9 101.5q0 78 -57 78q-34 0 -68 -20q-50 -30 -66 -126q-6 -37 -13.5 -103t-11 -89t-12 -29t-25.5 -6q-33 0 -33 24q0 14 13 88.5t16 94t22 147.5t34 227t15 102q0 23 -28 23z" />
    <glyph glyph-name="i" unicode="i" horiz-adv-x="250" 
d="M142.5 562q-16.5 22 -16.5 30.5t19 31t32 22.5t25.5 -19t12.5 -33.5t-18 -34t-28 -19.5t-26.5 22zM79 383l-45 1q-14 0 -14 12q0 14 23 14h10q18 0 50.5 4.5t63.5 4.5q14 0 14 -11q0 -13 -11.5 -52t-15.5 -64q-30 -189 -30 -199t6 -18.5t14 -8.5q20 0 38.5 26t23.5 26
q10 0 10 -10t-10 -30t-19 -29q-55 -59 -92 -59t-37 83q0 40 22.5 151.5t22.5 130.5t-5 23.5t-19 4.5z" />
    <glyph glyph-name="j" unicode="j" horiz-adv-x="242" 
d="M124 561q-15 21 -15 32t18 31t31 20t26 -17t13 -32t-16 -35t-29 -20t-28 21zM71 412l74 9q23 0 23 -16q0 -25 -9.5 -76.5t-15 -91.5t-14.5 -114.5t-12.5 -103t-10 -65.5t-13.5 -52q-18 -39 -47 -66q-13 -13 -15.5 -15t-8 -6.5t-10 -6t-10.5 -4.5q-12 -4 -32.5 -4
t-29.5 5.5t-10 21.5t-2 27.5t-1 14.5q0 16 13 16q10 0 30 -21t35 -21t25 40t21.5 133t22.5 170q22 167 22 173q0 24 -32 24h-26q-18 0 -18 12q0 16 20 16z" />
    <glyph glyph-name="k" unicode="k" horiz-adv-x="452" 
d="M116 176l-20 -147q-3 -30 -35 -30t-32 24q0 21 27 183l20 133q14 97 24.5 178.5t18 124t7.5 44.5q0 19 -25 19l-41 2q-15 0 -15 12q0 15 15 15q47 2 80.5 8.5t41.5 6.5q18 0 18 -15q0 -4 -7 -46l-9 -58q-22 -129 -40 -267l-9 -69q0 -3 -3 -14q-6 -29 -6 -41.5v-16.5
q2 -7 11 -7t70 48t83 84q6 11 15 36.5t20 37.5t29 12q35 0 35 -37q0 -26 -38.5 -60t-77 -57.5t-38.5 -24.5l50 -90q4 -7 11 -20t12 -20l10 -18q19 -31 25 -35t10 -4q20 0 43 28t27 28q9 0 9 -23t-35 -63t-58 -40t-47.5 34.5t-43.5 76.5q-52 110 -69 110l-24 -13
q-15 -10 -21 -12t-10 -5t-4.5 -3t-2 -4t-1.5 -5z" />
    <glyph glyph-name="l" unicode="l" horiz-adv-x="261" 
d="M105 705l-29 -1q-29 0 -29 13.5t15 14.5q40 3 75 9t46 6q21 0 21 -16q0 -8 -4.5 -23t-13 -61.5t-14.5 -90t-11.5 -101t-26.5 -200.5t-21 -162.5t3 -26.5t17.5 -7t29.5 11t23 24q19 36 34 36q12 0 12 -15t-50 -73q-18 -21 -44.5 -35.5t-40 -14.5t-19.5 2t-14 10
q-18 15 -18 82q0 43 14 116t16 88t9.5 83t26 186.5t18.5 125.5q0 20 -25 20z" />
    <glyph glyph-name="m" unicode="m" horiz-adv-x="762" 
d="M36 298q-12 0 -12 24.5t34.5 67.5t58 43t34.5 -16t13 -35q5 -52 8.5 -52t8 6t13.5 16.5t22 21.5q31 30 71.5 44t67.5 14q59 0 59 -74v-21q0 -8 2.5 -8t6.5 5l12 17q8 11 18 20q64 62 124 62q27 0 45.5 -14t25.5 -35q11 -33 11 -57t-10 -119.5t-10 -110.5q0 -35 20 -35
q15 0 36 18l7 5q6 8 11 15q8 13 19 13q10 0 10 -12q0 -29 -49 -66.5t-83 -37.5q-15 0 -26 18.5t-11 33.5t11 119t11 140t-17.5 56.5t-42 20.5t-52.5 -28.5t-40.5 -52t-17 -40.5t-9.5 -57t-11.5 -110.5t-6.5 -75.5q-2 -27 -41 -27q-28 0 -28 32q0 4 18 117.5t18 169.5
q0 15 -9 34q-16 37 -62 37q-24 0 -49 -22q-48 -41 -68 -144q-9 -45 -16.5 -118t-9 -82.5t-13 -16t-25.5 -6.5q-35 0 -35 34q0 17 22.5 126t22.5 143q0 58 -26 58q-17 0 -34 -29t-27 -29z" />
    <glyph glyph-name="n" unicode="n" horiz-adv-x="526" 
d="M61.5 330q-18.5 -28 -28 -28t-9.5 24.5t35 66.5t62 42t36 -26.5t9 -52.5t2 -26t6 6q20 26 44 44q73 57 122 57q84 0 84 -125q0 -40 -8.5 -119t-8.5 -91q0 -36 19 -36q18 0 40 22q3 3 7.5 10t6.5 10q8 7 17 7t9 -12q0 -29 -49.5 -69t-82.5 -40q-15 0 -26 18.5t-11 53
t10.5 129.5t10.5 109t-3 29.5t-20.5 34t-49 18.5t-62.5 -44q-14 -20 -20 -29t-11 -24.5t-6 -24.5q-8 -45 -17.5 -97.5t-14 -82t-5 -38t-1 -14t-1.5 -14.5q-2 -20 -30 -20t-34.5 5t-6.5 24t22 126t22 140.5t-7.5 49t-15.5 15.5q-17 0 -35.5 -28z" />
    <glyph glyph-name="o" unicode="o" horiz-adv-x="446" 
d="M75.5 36q-43.5 46 -43.5 140.5t64.5 176.5t171.5 82q71 0 108.5 -50.5t37.5 -121t-25.5 -130.5t-79.5 -101.5t-122 -41.5t-111.5 46zM181 371.5q-35 -33.5 -53.5 -97.5t-18.5 -121t24.5 -95t62.5 -38t67.5 27t44.5 67q32 83 32 153t-24.5 104t-62 34t-72.5 -33.5z" />
    <glyph glyph-name="p" unicode="p" horiz-adv-x="488" 
d="M83 -195l-54 -1h-9q-17 0 -17 13.5t20.5 22.5t23 16t31.5 234t40 280v2q0 5 -5 5t-25 -9t-26 -9q-13 0 -13 12v4q0 9 7 13q12 5 23.5 9t18 6.5t12 3.5t8.5 4t5.5 3t3.5 5t1.5 6.5t2 10.5t3.5 19.5t5.5 32.5t5 29.5t5.5 18.5q5 15 21 23.5t30.5 8.5t14.5 -16t-13.5 -61
t-13.5 -59v-4q0 -5 3.5 -5t13.5 1q25 4 73 4q177 0 177 -134q0 -83 -39 -149q-8 -16 -13 -23t-10 -15.5t-8.5 -13t-10 -12t-12.5 -13.5q-75 -68 -165 -68l-54 4q-9 0 -12 -5q-3 -7 -6 -36.5t-6 -46.5q-6 -36 -6 -45q0 -22 21 -30.5t41.5 -11.5t20.5 -12q0 -13 -14 -13z
M215 403l-24 -3q-8 0 -17 -77l-13 -111q-20 -150 -20 -157.5t4 -12.5t18 -10t35 -5q71 0 128 78.5t57 151.5q0 39 -14.5 67.5t-34 43t-45.5 22.5q-38 13 -74 13z" />
    <glyph glyph-name="q" unicode="q" horiz-adv-x="507" 
d="M409 -199l-88 4q-27 0 -45.5 -2.5t-27.5 -2.5q-31 0 -31 15q0 8 12 11t27 5t29.5 17.5t18.5 51t12 90.5q19 120 19 126t-2.5 6t-11 -13.5t-23.5 -33t-37.5 -39t-60.5 -33t-78.5 -13.5t-70 32.5t-29.5 88.5t34 120q104 196 253 196q34 0 53.5 -9t21.5 -9q12 0 32 39t30 39
q12 0 12 -12q0 -8 -6 -27q-20 -58 -30.5 -142t-36 -258t-25.5 -190t11.5 -22t24.5 -6q37 2 37 -19q0 -10 -24 -10zM117 239q-27 -63 -27 -105.5t24 -70.5t67 -28t93.5 47.5t71.5 120.5q8 27 15 78t7 68.5t-21 34t-53 16.5q-51 0 -100.5 -49t-76.5 -112z" />
    <glyph glyph-name="r" unicode="r" horiz-adv-x="352" 
d="M331 368q-5 -38 -22 -38q-9 0 -15 10.5t-15 21t-24 10.5q-29 0 -49 -60t-26 -113l-5 -33q-18 -141 -26 -157q-10 -13 -30 -13h-5q-30 0 -30 26q0 16 21.5 118t21.5 144q0 68 -34 68q-18 0 -30 -14.5t-18 -33t-9.5 -22t-8.5 -3.5q-12 0 -12 17q0 64 31 98q35 40 61 40
t39 -35q25 -66 28 -66q1 0 19 25.5t48.5 51.5t56 26t35 -9.5t9.5 -19.5t-5.5 -24t-5.5 -15z" />
    <glyph glyph-name="s" unicode="s" horiz-adv-x="333" 
d="M50.5 3.5q-35.5 15.5 -35.5 51t32 35.5q17 0 28 -11t16 -23.5t18 -23.5t35.5 -11t40.5 8t25 20q12 21 12 37t-4 29.5t-18.5 31.5t-19.5 23l-51.5 51.5t-29 31.5t-13.5 21q-11 25 -11 50q0 50 38.5 81.5t97.5 31.5q93 0 93 -52q0 -14 -9 -23q-12 -11 -29.5 -11t-38 28
t-40.5 28q-53 0 -53 -53q0 -31 51 -78q27 -25 29.5 -28t17 -18.5t20 -23t14.5 -22.5q16 -25 16 -53t-7 -48t-22.5 -42.5t-48.5 -37.5t-75.5 -15t-78 15.5z" />
    <glyph glyph-name="t" unicode="t" horiz-adv-x="299" 
d="M256 369l-81 5q-13 0 -17 -4t-6 -6.5t-3 -8.5t-2 -10t-2 -14t-3 -25t-10 -66q-21 -123 -21 -140t10.5 -30.5t17.5 -15.5t22 -2t35 11t32 22t18 11q11 0 11 -14q0 -22 -52 -58t-95 -36q-26 0 -45 21t-19 74t21 164t21 116q0 10 -29.5 11t-29.5 16q0 8 10.5 14.5t32 19
t36.5 28.5t26 29t16 18q9 11 19 11t10 -12q0 -6 -9 -36.5t-9 -37t5.5 -7.5t29.5 -1l58 1q26 0 26 -18t-5 -24t-19 -6z" />
    <glyph glyph-name="u" unicode="u" horiz-adv-x="525" 
d="M20 294q0 38 33.5 86t79.5 48q16 0 25 -17q13 -22 13 -61.5t-18.5 -137t-18.5 -121.5t6 -31.5t11.5 -7.5t11 1.5t11.5 5t11 7.5t12.5 11t12 12t13 14.5t13.5 15.5l30 36q71 86 116 259q4 16 33 16t29 -22q0 -10 -30.5 -151t-30.5 -167t22 -26q42 0 69 56q9 18 17 18
q14 0 14 -24t-47 -73.5t-109 -49.5q-30 0 -30 54q0 50 9 100t9 56.5t-3.5 6.5t-7.5 -6.5t-13 -23t-22 -34.5q-109 -155 -192 -155q-34 0 -34 62t22.5 159t22.5 120t-20 23q-7 0 -21 -17.5t-22 -36t-17.5 -18.5t-9.5 13z" />
    <glyph glyph-name="v" unicode="v" horiz-adv-x="427" 
d="M10 253q0 71 43.5 124t79.5 53q22 0 33.5 -24t11.5 -52.5t-10 -104t-10 -134.5q0 -24 14.5 -42.5t35.5 -18.5q53 0 102.5 90t49.5 178q0 18 -10.5 41.5t-10.5 36t13.5 22t22.5 9.5q32 0 32 -54q0 -35 -16.5 -104t-37.5 -109q-51 -99 -110.5 -138t-79.5 -39q-65 0 -65 155
q0 6 -14 8.5t-30 6t-30 28t-14 68.5zM61 312.5q-25 -38.5 -25 -67.5t11 -45q16 -24 30 -24t17 5q6 10 6 27q14 104 14 123.5t-14 19.5t-39 -38.5z" />
    <glyph glyph-name="w" unicode="w" horiz-adv-x="675" 
d="M10 248q0 69 43 125t78 56q22 0 32 -25t10 -59t-6 -105t-6 -123q0 -23 12.5 -42t26.5 -19q33 0 68 46t58.5 102.5t40.5 176.5q3 21 5 28q5 18 31.5 18t26.5 -25q0 -14 -13.5 -83t-13.5 -118t8 -86t17 -49.5t27 -12.5q35 0 72 47t58.5 101.5t21.5 96t-9.5 65.5t-9.5 34.5
t13 21t25 10.5q29 0 29 -43t-16.5 -111t-38.5 -109q-45 -86 -101.5 -131t-92.5 -45q-57 0 -59 173q0 19 -3 19q-1 0 -11.5 -20t-28 -48t-39 -56.5t-49.5 -48.5t-55 -20q-61 0 -61 155q0 5 -14 8.5t-31 8t-31 27t-14 60.5zM43 243q0 -61 43 -61q11 0 15 11t8.5 51.5t4.5 69
t-14.5 28.5t-35.5 -32.5t-21 -66.5z" />
    <glyph glyph-name="x" unicode="x" horiz-adv-x="475" 
d="M393 30l34 2q14 0 14 -12q0 -17 -25.5 -24.5t-44.5 -7.5t-37.5 4.5t-28.5 10t-18 15.5t-10.5 16.5t-6 17.5t-7 20t-13.5 38q-20 56 -26 56q-1 0 -23.5 -45t-62.5 -90.5t-82 -45.5q-16 0 -26 11t-10 27q0 41 35 41q11 0 23 -5t20 -5q16 0 45.5 38.5t50.5 77.5l21 38
q0 6 -21.5 62t-31 70.5t-26.5 14.5t-26.5 -15t-14.5 -30t-13 -15q-14 0 -14 35q0 12 7 34.5t17.5 37t27 24.5t27.5 10q23 0 44 -24.5t33 -54.5q30 -79 34 -79q2 0 15 25t30.5 55t46 55t58.5 25q15 0 26 -12.5t11 -28t-9 -26.5t-25 -11l-43 7q-21 0 -62 -54.5t-41 -63.5
q0 -19 78 -179q20 -40 50 -40z" />
    <glyph glyph-name="y" unicode="y" horiz-adv-x="407" 
d="M7 -125q0 13 9.5 23t25.5 10t38 -16.5t46 -16.5q39 0 81.5 65.5t42.5 107.5t-63.5 174.5t-99.5 132.5q-25 0 -35.5 -18.5t-15 -37.5t-16.5 -19q-10 0 -10 23.5t7 51t26.5 52t50 24.5t68 -44.5t63.5 -97.5t46 -97.5t23 -44.5q10 0 23 62t13 112q0 15 -12.5 39t-12.5 38
t8.5 25t25.5 11t28 -15t11 -47.5t-21.5 -127t-61.5 -195.5q-92 -233 -205 -233q-83 0 -83 59z" />
    <glyph glyph-name="z" unicode="z" horiz-adv-x="409" 
d="M25 5q-5 5 -5 11.5t9 15.5q242 248 242 264q0 3 -19.5 11t-49 21t-42 19t-22.5 11q-16 6 -25.5 6t-19 -11t-9.5 -22.5t8.5 -26t8.5 -16.5q0 -9 -12 -9q-5 0 -13.5 7.5t-16.5 25t-8 43.5t24 50.5t51 24.5t73 -24q87 -44 122 -44q15 0 22 29.5t24 29.5q9 0 16 -5t7 -14
t-21 -33l-193 -215q-35 -39 -35 -44t12.5 -15t31 -24.5t30 -27t31.5 -44t35 -51t25 -19.5q18 0 29.5 27t31.5 27q10 0 16 -7.5t6 -15.5q0 -22 -30 -39.5t-71 -17.5q-28 0 -44.5 12.5t-27.5 22.5q-16 14 -35 40q-61 71 -88 71q-6 0 -27 -24.5t-28.5 -24.5t-12.5 5z" />
    <glyph glyph-name="braceleft" unicode="{" horiz-adv-x="266" 
d="M167 752l57 -8q19 0 38 3t30 3t11 -9q0 -23 -36 -39.5t-63 -16.5q-8 0 -8 -9q-43 -383 -62.5 -581t-19.5 -201.5t10 -5.5q42 -11 56 -19q28 -19 28 -34.5t-8 -15.5q-1 0 -10 3q-25 6 -55 6t-48.5 -7t-24.5 -7q-10 0 -10 11l43 383q0 17 -13.5 30.5t-13.5 28t19.5 26.5
t20.5 28q7 68 20 207t20 206q1 18 19 18z" />
    <glyph glyph-name="bar" unicode="|" horiz-adv-x="209" 
d="M127 -137l1 -26v-8q0 -38 -17 -38q-22 0 -27.5 10t-5.5 51v61l6 657v82l-1 86q0 13 5.5 18.5t19 5.5t18 -5.5t4.5 -19.5l-1 -23l2 -155l-5 -549q0 -97 1 -147z" />
    <glyph glyph-name="braceright" unicode="}" horiz-adv-x="266" 
d="M215 737l-47 -420q0 -14 14.5 -23.5t14.5 -24t-18.5 -30t-20.5 -37.5q-16 -144 -25.5 -253t-12 -122t-12.5 -13q-6 0 -22.5 7t-38.5 7t-38 -2t-26 -4.5t-11 -2.5q-7 0 -7 7q0 23 37 43q13 7 32 11q39 10 39 15q18 165 24 213.5t18 168.5l40 400q0 8 -6 8q-25 0 -56 14.5
t-31 37.5q0 13 18 13q6 0 24.5 -3t37.5 -3l59 8q14 0 14 -15z" />
    <glyph glyph-name="asciitilde" unicode="~" horiz-adv-x="380" 
d="M29 172q0 4 14 25.5t40 44.5t50 23t59.5 -22.5t57.5 -22.5t39.5 12t27.5 24.5t14 12.5q20 0 20 -15q0 -5 -15 -25.5t-44 -42.5t-57.5 -22t-61 23t-52.5 23t-36 -13.5t-24.5 -27t-11.5 -13.5q-20 0 -20 16z" />
    <glyph glyph-name="uni00A0" unicode="&#xa0;" horiz-adv-x="213" 
 />
    <glyph glyph-name="exclamdown" unicode="&#xa1;" horiz-adv-x="249" 
d="M68 21q0 14 4 31q21 84 35 187t39 222q1 6 7 13t14 7q13 0 13 -17q0 -5 -2 -27l-26 -389v-8q0 -7 -0.5 -9.5t-1.5 -9.5t-3 -10t-5.5 -8t-8.5 -7q-13 -7 -29 -7q-36 0 -36 32zM152.5 577q-7.5 10 -19 23t-11.5 22.5t28.5 37t33.5 27.5q12 0 31 -23q4 -5 13 -14
q17 -17 17 -23.5t-10.5 -18t-16.5 -16t-16 -14.5q-19 -18 -27 -18t-11.5 3.5t-11 13.5z" />
    <glyph glyph-name="cent" unicode="&#xa2;" horiz-adv-x="418" 
d="M187 -24q0 5 -7 5h-8q-15 0 -39 10q-101 38 -101 168q0 86 46 158q50 78 140 105q8 2 10.5 2t5.5 2q3 3 5 19l4 36q0 10 18.5 10t18.5 -10l-6 -45q0 -7 14 -8q56 -4 82 -19q10 -7 10 -22q-2 -82 -18 -82q-9 0 -15 13q-12 26 -57 51q-13 7 -16 7q-6 0 -8 -20l-35 -311
l-1 -4q0 -10 16 -10q57 0 108 39q17 13 20 13q9 0 9 -8.5t-16 -27t-52 -40t-79 -26.5h-3q-10 -1 -11 -6.5t-2.5 -26t-3.5 -39.5q-1 -11 -18 -11t-17 12zM155 68q23 -25 34 -25q6 0 7 15l35 316v7q0 5 -2.5 6t-11.5 1q-37 0 -74.5 -54.5t-37.5 -133t50 -132.5z" />
    <glyph glyph-name="sterling" unicode="&#xa3;" horiz-adv-x="530" 
d="M139 333l-75 -1q-11 0 -11 21.5t15 21.5h55q16 0 16 1.5t-4 17.5q-12 50 -12 96q0 110 62.5 169.5t147.5 59.5q59 0 102.5 -27t43.5 -69q0 -22 -17 -40t-26 -18t-13 9.5t-9 29t-13.5 36.5t-33 30t-49 13t-42.5 -5.5t-38.5 -19.5t-33 -44.5t-12.5 -75t28 -142.5
q4 -13 7 -16.5t9 -3.5h143q19 0 19 -12q0 -27 -12 -30q-4 -1 -13 -1h-113q-21 0 -21 -2.5t3 -17.5q11 -45 11 -84.5t-14 -80.5q-22 -64 -39 -81q57 -17 114 -17t91.5 16t50.5 34.5t28 34.5t16 16q11 0 11 -12.5t-9.5 -36t-27.5 -51.5t-51 -48t-73 -20q-78 0 -181 44
q-4 0 -17 -10q-36 -28 -81 -28q-25 0 -38 14t-13 36.5t17.5 41.5t52.5 19q30 0 50 -10.5t22 -10.5q11 7 19 37.5t8 63t-29 131.5q-1 2 -3 9t-5 10t-13 3zM55 42q0 -9 8.5 -17t23 -8t31.5 12t20 18q-3 4 -21 10t-33 6q-29 0 -29 -21z" />
    <glyph glyph-name="currency" unicode="&#xa4;" horiz-adv-x="527" 
d="M27 26q-7 8 -7 19t18 29l68 69q-39 51 -39 118t38 118l-67 69q-18 18 -18 30t8 19.5t19.5 7.5t29.5 -18l69 -69q52 39 117 39t118 -39l69 69q17 17 29.5 17t20 -8t7.5 -19t-18 -29l-69 -70q41 -56 41 -117.5t-41 -116.5l69 -70q18 -18 18 -30t-8.5 -19.5t-19.5 -7.5
t-29 18l-69 69q-52 -39 -118 -39t-117 38l-69 -68q-17 -17 -30 -17t-20 8zM124 260q0 -59 41 -99.5t98 -40.5t98.5 41.5t41.5 99.5t-41.5 100.5t-99 42.5t-98 -42.5t-40.5 -101.5z" />
    <glyph glyph-name="yen" unicode="&#xa5;" horiz-adv-x="690" 
d="M280 261l4 41q0 12 -10 34.5t-13 23.5t-13 1h-95q-12 0 -15.5 3t-3.5 17t6 19t20 5h68q12 0 12 2t-1 3.5t-3 5t-4 6.5l-77 148q-50 98 -88 110q-3 1 -17 2q-30 1 -30 18q0 14 33 14l93 -4l89 4q30 0 30 -15q0 -10 -25 -19t-25 -23q0 -28 31 -90q9 -18 28.5 -58.5
t29.5 -61.5t12.5 -26.5t3.5 -7t2 -4t2 -3.5q5 -1 8 -1h38t15 1.5t3 3.5q7 10 10 14t35 49t66.5 103t34.5 75t-11 23t-25 6q-35 -2 -35 18q0 14 26 14l53 -2l103 3q26 0 26 -15q0 -6 -11 -11t-27.5 -11.5t-27.5 -18.5t-38 -49.5t-65 -93.5t-48 -69.5t-13.5 -18t-5.5 -7
t-4 -5.5q-4 -4 -4 -6.5t93 -2.5q11 0 11 -21.5t-15 -21.5h-86q-37 0 -41 -3.5t-5.5 -4.5t-4 -7t-8.5 -16t-12.5 -42t-6.5 -42q0 -6 10 -6l129 1q20 0 20 -13q0 -20 -6.5 -26t-20.5 -6h-126q-9 0 -10 -1.5t-6 -55t-5 -61.5q0 -20 16.5 -34t30.5 -18t24 -5q24 -1 24 -14
q0 -9 -5 -11.5t-14 -2.5l-113 7q-26 0 -50.5 -4t-33.5 -4q-27 0 -27 13q0 14 25 18q9 2 13 3q14 4 20 17.5t14.5 74.5t8.5 67t-5.5 8.5t-25.5 2.5l-114 1q-11 0 -11 21.5t14 21.5h129q16 0 19 1q4 3 4 19z" />
    <glyph glyph-name="brokenbar" unicode="&#xa6;" horiz-adv-x="208" 
d="M127 -8l1 -132v-31q0 -38 -17 -38q-22 0 -27.5 10t-5.5 51l1 66l1 258q0 25 26 25q13 0 17 -5.5t4 -19.5v-184zM83 414v324q0 13 5.5 18.5t19 5.5t18 -5.5t4.5 -19.5v-346q0 -38 -16 -38q-22 0 -26.5 9.5t-4.5 51.5z" />
    <glyph glyph-name="section" unicode="&#xa7;" horiz-adv-x="542" 
d="M478 690l5 -126q0 -38 -15 -38q-10 0 -15 15t-8.5 35.5t-19.5 46t-46 43t-80 17.5t-81 -35t-31 -69t30.5 -56.5t73.5 -38.5t86 -35.5t73.5 -55.5t30.5 -79t-9 -73t-21.5 -48.5t-25.5 -32t-22 -21t-9 -9t8 -6.5q27 -19 36.5 -52t9.5 -51q0 -74 -59.5 -138t-164.5 -64
q-42 0 -72 7t-69 31q-12 7 -18 63t-6 88t16 32q9 0 11.5 -5.5t3.5 -8t2.5 -10t5 -20t12 -32.5t24.5 -45q37 -55 103.5 -55t111 35.5t44.5 83.5q0 30 -32 53t-77.5 40.5t-91 38.5t-77.5 57.5t-32 78.5t11.5 71.5t28 47t33 29.5t28 18.5t11.5 9t-17.5 13.5t-35 35.5
t-17.5 60.5q0 74 56.5 129t141.5 55q44 0 78.5 -13.5t38.5 -13.5l23 7q15 0 15 -10zM144 299q0 -43 45 -74q18 -13 89 -42.5t77 -29.5q15 0 42.5 36t27.5 74q0 33 -19 54q-8 8 -13 13.5t-15.5 12t-16 10t-17.5 9t-15.5 7.5t-15.5 7t-38.5 16.5t-41.5 11.5t-52 -31t-37 -74z
" />
    <glyph glyph-name="dieresis" unicode="&#xa8;" horiz-adv-x="439" 
d="M135 557q-13 17 -13 30.5t17.5 33t32 19.5t27.5 -16t13 -31t-19 -34t-27 -19q-18 0 -31 17zM289 557q-13 17 -13 30.5t18 33t32.5 19.5t27.5 -16t13 -31t-19.5 -34t-27.5 -19q-18 0 -31 17z" />
    <glyph glyph-name="copyright" unicode="&#xa9;" horiz-adv-x="796" 
d="M149 82.5q-105 103.5 -105 251t103.5 253t252 105.5t252.5 -105.5t104 -251t-103 -251t-251 -105.5t-253 103.5zM177 556.5q-91 -92.5 -91 -222.5t93 -221.5t221 -91.5t221 91t93 221t-91 223t-223 93t-223 -92.5zM164 322q0 102 62.5 169.5t174.5 67.5q38 0 76.5 -11
t61 -22t24 -11t4.5 3t7.5 3t7.5 -2t4.5 -9t1.5 -14q3 -36 6 -54t3 -20q0 -15 -13 -15q-8 0 -14 11q-59 107 -169 107q-75 0 -123 -46t-48 -121q0 -70 40 -136q20 -34 62 -55t99 -21q80 0 136 79q6 9 10.5 20t7.5 14.5t12 3.5q7 0 7 -8q0 -25 -12 -83q-2 -10 -13 -14
q-82 -41 -124 -46q-19 -3 -40 -3q-63 0 -110.5 17t-73.5 40.5t-42 55.5q-25 49 -25 100z" />
    <glyph glyph-name="ordfeminine" unicode="&#xaa;" horiz-adv-x="337" 
d="M214 458q-70 -70 -128 -70q-39 0 -52.5 21t-13.5 58q0 57 50 122t122 65l61 -7q5 0 17 15t18.5 15t6.5 -8t-1.5 -14t-4.5 -15l-4.5 -13.5t-7.5 -35.5q-18 -93 -18 -112t6 -29t14 -10t22 19.5t20.5 19.5t6.5 -14t-27 -43t-41 -29t-22.5 5.5t-12.5 14.5t-6 17q-5 18 -5 28z
M66 471q0 -20 13 -32.5t35.5 -12.5t43.5 12q28 15 44 40q9 16 20.5 70t11.5 66q0 20 -44 20q-22 0 -46 -13t-39 -34q-39 -64 -39 -116z" />
    <glyph glyph-name="guillemotleft" unicode="&#xab;" horiz-adv-x="351" 
d="M158 91q-6 -7 -10 -7t-52 49.5t-62 64t-14 18.5t7 11q146 122 149.5 122t7.5 -6.5t4 -12t-49.5 -57t-49.5 -57.5t37.5 -56.5t37.5 -56t-6 -12.5zM280.5 91.5q-5.5 -7.5 -10 -7.5t-47 44.5t-61.5 64t-19 24t6 10.5q146 122 150 122t8.5 -6.5t4.5 -12t-50 -57t-50 -57
t37 -57.5t37 -56t-5.5 -11.5z" />
    <glyph glyph-name="logicalnot" unicode="&#xac;" horiz-adv-x="508" 
d="M21 215q0 17 19 17h427q13 0 16.5 -3t3.5 -16v-158q0 -15 -15 -15q-21 0 -25.5 5t-4.5 15v111q0 17 -26 17h-375q-17 0 -19 11q-1 5 -1 16z" />
    <glyph glyph-name="uni00AD" unicode="&#xad;" horiz-adv-x="282" 
d="M39 185q0 13 8.5 22.5t40 19t59.5 19t39 13.5q23 9 35 9q22 0 22 -22q0 -23 -5 -28t-12.5 -8.5t-13.5 -5.5q-31 -8 -81 -28q-63 -24 -75 -24q-17 0 -17 33z" />
    <glyph glyph-name="registered" unicode="&#xae;" horiz-adv-x="478" 
d="M90 398.5q-61 61.5 -61 148.5t61 148.5t148 61.5t149 -61.5t62 -148.5t-62 -148.5t-149 -61.5t-148 61.5zM112 673q-53 -53 -53 -126t53 -125.5t126 -52.5t126.5 52.5t53.5 125.5t-53.5 126t-126.5 53t-126 -53zM163 529l1 96q0 26 -30 26q-11 0 -11 7q0 9 12 9h23l76 2
q37 0 62 -15.5t25 -48.5q0 -19 -11.5 -30.5t-22.5 -15.5t-11 -5t4 -5q15 -17 23.5 -33t31.5 -47q12 -15 21 -15h2q3 1 6 1t3 -4.5t-6 -10.5t-19.5 -6t-27.5 8t-42 55.5t-36 49.5h-25q-7 0 -8.5 -3t-1.5 -27t4 -42.5t22 -22t18 -9t-7 -5.5l-51 2q-11 0 -28 -1l-17 -1
q-7 0 -7 7q0 4 12.5 7t14 16.5t1.5 36.5v24zM215 562l14 -1q30 0 41.5 9t11.5 29t-15.5 36.5t-48.5 16.5q-11 0 -14 -4t-3 -19v-33q0 -20 2.5 -27t11.5 -7z" />
    <glyph glyph-name="macron" unicode="&#xaf;" horiz-adv-x="439" 
d="M321 563l-188 1q-8 0 -8 17q0 27 20 27l180 -2q8 0 10.5 -2.5t2.5 -11.5q0 -29 -17 -29z" />
    <glyph glyph-name="degree" unicode="&#xb0;" horiz-adv-x="259" 
d="M59.5 679.5q29.5 33.5 75 33.5t70.5 -35.5t25 -77t-37.5 -69t-65 -27.5t-49.5 12t-32 31q-16 33 -16 66t29.5 66.5zM91 651.5q-19 -17.5 -19 -43.5t16.5 -43t42.5 -17q24 0 40.5 18.5t16.5 41.5q0 61 -57 61q-21 0 -40 -17.5z" />
    <glyph glyph-name="plusminus" unicode="&#xb1;" horiz-adv-x="508" 
d="M26 112.5q5 4.5 14 4.5h428q11 0 14.5 -4t3.5 -16.5t-3.5 -18t-17.5 -5.5h-426q-18 0 -18 17.5t5 22zM21 324q0 22 19 22h181q10 0 10 10v139q0 15 17 15t22 -3t5 -14v-136q0 -11 12 -11h184q15 0 15 -15q0 -20 -5.5 -25t-15.5 -5h-178q-12 0 -12 -17v-132
q0 -14 -16.5 -14t-22 2.5t-5.5 11.5v132q0 10 -2.5 13.5t-13.5 3.5h-176q-12 0 -15 5t-3 18z" />
    <glyph glyph-name="uni00B2" unicode="&#xb2;" 
d="M120 352l-68 -2q-15 0 -15 6v2q0 8 16 27q81 96 125.5 166.5t44.5 118.5q0 30 -14.5 48t-40 18t-43.5 -15t-28 -29.5t-16 -14.5t-6 9.5t11.5 31t39 44t64 22.5t68.5 -24.5t32 -79.5q0 -33 -27 -78.5t-59 -81.5q-87 -94 -87 -107q0 -3 26.5 -3t49 1t36 6t17.5 7t12 13
q14 21 20 21t6 -8.5t-23 -54t-37 -45.5z" />
    <glyph glyph-name="uni00B3" unicode="&#xb3;" 
d="M130 564l-23 -3q-8 0 -8 11q0 4 3 6q36 15 60 30q53 33 53 83q0 24 -16 40.5t-41.5 16.5t-51.5 -15t-29.5 -15t-3.5 5q0 18 33 40t74 22t68.5 -19t27.5 -52t-21.5 -58t-43 -38.5t-21.5 -16.5q0 -1 9 -3.5t22 -8t26 -15.5q31 -24 31 -77.5t-46.5 -101.5t-112.5 -48
q-36 0 -65 10.5t-29 25.5t12 15q3 0 9 -5q17 -14 62 -14t75.5 35t30.5 71.5t-21 57.5t-63 21z" />
    <glyph glyph-name="acute" unicode="&#xb4;" horiz-adv-x="439" 
d="M197 508.5q10 12.5 20 26.5q22 33 61 107q9 18 20 18t29 -6.5t18 -16.5q0 -16 -69 -85.5t-79 -69.5t-10 7t10 19.5z" />
    <glyph glyph-name="uni00B5" unicode="&#xb5;" horiz-adv-x="536" 
d="M40 -199q-30 0 -30 49t9.5 96t28.5 114q33 111 55.5 224t26.5 125t12.5 12t27 -6t18.5 -17.5t-25 -154.5t-25 -163q0 -36 20 -36q34 0 82 56q77 91 147 254q14 33 17 44.5t4 14t2 4.5t2.5 3t3.5 1h5q13 0 28 -6.5t15 -14.5q0 -3 -31 -150t-31 -166q0 -34 25 -34
q22 0 41 36t27 36q11 0 11 -17q0 -36 -42 -81t-95 -45q-40 0 -40 72q0 26 9.5 86t9.5 63.5t-2.5 3.5t-11.5 -18q-36 -65 -79 -112q-84 -92 -143 -92q-15 0 -24.5 10.5t-13 21.5t-5 11t-6.5 -19q-13 -51 -13 -80.5t13 -60t13 -36t-8.5 -17t-27.5 -11.5z" />
    <glyph glyph-name="paragraph" unicode="&#xb6;" horiz-adv-x="485" 
d="M372 716l56 2h11q2 0 4.5 -3.5t2.5 -8t-7 -8t-19 -8.5t-19 -13q-15 -15 -23 -91t-26 -233.5t-29 -267t-69 -190t-138 -80.5q-37 0 -60 15q-5 3 -5 20.5t13 44.5t22 27q8 0 14 -38q3 -15 15.5 -27t34.5 -12q68 0 90 261q1 7 1 10l15 168q2 18 2 24q0 13 -25.5 13t-49 2.5
t-52 11.5t-47.5 24.5t-32 45t-13 69.5q0 73 35.5 130.5t82 84t90.5 26.5zM206 429q0 -79 33 -79q12 0 19 7.5t8.5 16.5t3.5 28t5 57t6.5 73.5t7.5 68.5t5 41q3 12 3 24q0 27 -22 27q-29 0 -37 -21q-12 -30 -20 -92q-12 -94 -12 -151zM245 -53q0 -6 6 -6q4 0 14 21.5t22 65
t17 92.5l56 558v1q0 7 -6 12t-17.5 5t-13.5 -13q-21 -152 -56 -537l-11 -120q-4 -49 -7.5 -61t-3.5 -18z" />
    <glyph glyph-name="periodcentered" unicode="&#xb7;" horiz-adv-x="301" 
d="M120 300.5q-16 22.5 -16 31t18.5 30.5t31.5 22t25.5 -19t12.5 -33.5t-18 -34t-28 -19.5t-26 22.5z" />
    <glyph glyph-name="cedilla" unicode="&#xb8;" horiz-adv-x="439" 
d="M172 -79q34 33 48 33q18 0 34 -19.5t16 -39.5q0 -42 -31.5 -68t-49.5 -26q-5 0 -5 4q0 2 10 8q30 18 30 43t-13 36t-26 17t-13 12z" />
    <glyph glyph-name="uni00B9" unicode="&#xb9;" 
d="M168 355l-80 -4q-15 0 -15 13q0 15 19 15h8q16 0 26 6q13 9 13 19q8 38 23 230l5 64q0 22 -16 22l-37 -7q-10 0 -10 9t9 13t22 5q49 4 82 34q11 9 18 9q5 0 5 -7v-9q-6 -42 -21.5 -186t-15.5 -164q0 -37 43 -39h8q4 0 5.5 -0.5t4.5 -1t4 -1t2 -1.5q3 -3 3 -9
q0 -13 -18 -13z" />
    <glyph glyph-name="ordmasculine" unicode="&#xba;" horiz-adv-x="291" 
d="M48 413.5q-28 28.5 -28 87t41 108t114 49.5q48 0 72 -31t24 -86t-40 -105.5t-110 -50.5q-45 0 -73 28.5zM78 549q-7 -29 -7 -63t16 -56t41 -22q52 0 76 58q18 42 18 90q0 79 -56 79q-35 0 -58 -28.5t-30 -57.5z" />
    <glyph glyph-name="guillemotright" unicode="&#xbb;" horiz-adv-x="351" 
d="M43 90.5q-4 6.5 -4 12.5t50 58t50 54q0 6 -37 58.5t-37 56.5t5.5 11.5t10 7.5t32 -29t35.5 -38q24 -25 42 -43t18 -23t-24.5 -25t-76 -63.5t-56 -43.5t-8.5 6.5zM166 90.5q-4 6.5 -4 12t49.5 57t49.5 57.5t-37 59t-37 56.5t6 10t10 6.5t19 -15l105 -109q4 -4 4 -8t-7 -11
q-146 -122 -150 -122t-8 6.5z" />
    <glyph glyph-name="onequarter" unicode="&#xbc;" horiz-adv-x="874" 
d="M715 61l-144 -1q-12 0 -14.5 1t-2.5 7l1 23q1 15 214 284q24 30 32 30t8 -12l-33 -272q0 -6 6 -6h14q14 0 20 14t13 14t7 -8q-12 -59 -16 -67t-8 -8h-37q-4 0 -5 -17.5t-1.5 -22.5t-1 -13.5t-2.5 -29.5t-5 -25t-24 -8l-18 -3q-14 0 -14 13q0 6 8.5 48.5t8.5 55.5
q0 3 -6 3zM607 120q0 -5 11 -5h94q12 0 14 2t13.5 92t11.5 92.5t-4 2.5t-72 -86t-68 -98zM216 -72q0 14 385 588q63 94 67 100.5t9 13.5q16 20 21.5 20t12 -4.5t6.5 -9.5t-9 -20q-297 -443 -379 -573.5t-87 -132t-10 -1.5q-16 0 -16 19zM168 178l-80 -4q-15 0 -15 13
q0 15 19 15h8q16 0 26 6q13 9 13 19q8 38 23 230l5 64q0 22 -16 22l-37 -7q-10 0 -10 9t9 13t22 5q49 4 82 34q11 9 18 9q5 0 5 -7v-9q-6 -42 -21.5 -186t-15.5 -164q0 -37 43 -39h8q4 0 5.5 -0.5t4.5 -1t4 -1t2 -1.5q3 -3 3 -9q0 -13 -18 -13z" />
    <glyph glyph-name="onehalf" unicode="&#xbd;" horiz-adv-x="874" 
d="M667 -34l-68 -2q-15 0 -15 6v2q0 8 16 27q81 96 125.5 166.5t44.5 118.5q0 30 -14.5 48t-40 18t-43.5 -15t-28 -29.5t-16 -14.5t-6 9.5t11.5 31t39 44t64 22.5t68.5 -24.5t32 -79.5q0 -33 -27 -78.5t-59 -81.5q-87 -94 -87 -107q0 -3 26.5 -3t49 1t36 6t17.5 7t12 13
q14 21 20 21t6 -8.5t-23 -54t-37 -45.5zM216 -72q0 14 385 588q63 94 67 100.5t9 13.5q16 20 21.5 20t12 -4.5t6.5 -9.5t-9 -20q-297 -443 -379 -573.5t-87 -132t-10 -1.5q-16 0 -16 19zM168 178l-80 -4q-15 0 -15 13q0 15 19 15h8q16 0 26 6q13 9 13 19q8 38 23 230l5 64
q0 22 -16 22l-37 -7q-10 0 -10 9t9 13t22 5q49 4 82 34q11 9 18 9q5 0 5 -7v-9q-6 -42 -21.5 -186t-15.5 -164q0 -37 43 -39h8q4 0 5.5 -0.5t4.5 -1t4 -1t2 -1.5q3 -3 3 -9q0 -13 -18 -13z" />
    <glyph glyph-name="threequarters" unicode="&#xbe;" horiz-adv-x="874" 
d="M715 61l-144 -1q-12 0 -14.5 1t-2.5 7l1 23q1 15 214 284q24 30 32 30t8 -12l-33 -272q0 -6 6 -6h14q14 0 20 14t13 14t7 -8q-12 -59 -16 -67t-8 -8h-37q-4 0 -5 -17.5t-1.5 -22.5t-1 -13.5t-2.5 -29.5t-5 -25t-24 -8l-18 -3q-14 0 -14 13q0 6 8.5 48.5t8.5 55.5
q0 3 -6 3zM607 120q0 -5 11 -5h94q12 0 14 2t13.5 92t11.5 92.5t-4 2.5t-72 -86t-68 -98zM216 -72q0 14 385 588q63 94 67 100.5t9 13.5q16 20 21.5 20t12 -4.5t6.5 -9.5t-9 -20q-297 -443 -379 -573.5t-87 -132t-10 -1.5q-16 0 -16 19zM130 387l-23 -3q-8 0 -8 11q0 4 3 6
q36 15 60 30q53 33 53 83q0 24 -16 40.5t-41.5 16.5t-51.5 -15t-29.5 -15t-3.5 5q0 18 33 40t74 22t68.5 -19t27.5 -52t-21.5 -58t-43 -38.5t-21.5 -16.5q0 -1 9 -3.5t22 -8t26 -15.5q31 -24 31 -77.5t-46.5 -101.5t-112.5 -48q-36 0 -65 10.5t-29 25.5t12 15q3 0 9 -5
q17 -14 62 -14t75.5 35t30.5 71.5t-21 57.5t-63 21z" />
    <glyph glyph-name="questiondown" unicode="&#xbf;" horiz-adv-x="354" 
d="M227 416l-3 33q0 10 9 10q25 0 25 -65q0 -36 -33 -94t-66 -112t-33 -82.5t26.5 -51t50 -22.5t43 9.5t26.5 9.5t7 -6q0 -14 -32 -36.5t-74.5 -22.5t-81.5 33t-39 85q0 35 13 56.5t19 30.5q15 20 28 33q24 30 37 46t24.5 30.5t16 22t12.5 19.5t11.5 20t6.5 18q7 17 7 36z
M193 601q0 5 5 10q10 12 29 26q30 30 33 30t6.5 -1.5t7 -4.5t5.5 -5q15 -19 25 -28q19 -18 19 -25q0 -9 -35 -35q-8 -6 -16 -14q-14 -15 -20.5 -15t-9 1t-5.5 4.5t-5.5 6.5t-7 9t-18 21t-13.5 20z" />
    <glyph glyph-name="Agrave" unicode="&#xc0;" horiz-adv-x="771" 
d="M424 813q-53 67 -53 82t21 22t31 7t16 -18q25 -80 42 -113t17 -37q0 -10 -10.5 -10t-63.5 67zM115 0l-75 -2q-20 0 -20 11q0 13 25 21q30 12 45 35q24 39 40 69t34 62t46 83.5t60 108.5q178 320 184 325t14 5t11.5 -7t11.5 -35t11 -39l9 -33q18 -66 86.5 -275.5t80 -240
t20.5 -41t38 -19.5q16 -5 16 -20q0 -10 -31 -10l-65 3l-93 -5q-27 0 -27 10t10.5 16t22.5 8t22.5 11t10.5 25t-8 47.5t-19 67.5t-15 53q-6 24 -36 24l-121 -1q-76 0 -101 1.5t-33 1.5q-27 0 -35 -15q-56 -99 -70.5 -136t-14.5 -40q0 -25 17 -33.5t34 -11t17 -12.5
q0 -14 -9 -14h-6zM321 304l191 1q14 0 16 7v11.5t-43.5 140.5t-52.5 132q-5 0 -83 -140t-78 -146t19 -6h31z" />
    <glyph glyph-name="Aacute" unicode="&#xc1;" horiz-adv-x="771" 
d="M437 772.5q10 12.5 20 26.5q22 33 61 107q9 18 20 18t29 -6.5t18 -16.5q0 -16 -69 -85.5t-79 -69.5t-10 7t10 19.5zM115 0l-75 -2q-20 0 -20 11q0 13 25 21q30 12 45 35q24 39 40 69t34 62t46 83.5t60 108.5q178 320 184 325t14 5t11.5 -7t11.5 -35t11 -39l9 -33
q18 -66 86.5 -275.5t80 -240t20.5 -41t38 -19.5q16 -5 16 -20q0 -10 -31 -10l-65 3l-93 -5q-27 0 -27 10t10.5 16t22.5 8t22.5 11t10.5 25t-8 47.5t-19 67.5t-15 53q-6 24 -36 24l-121 -1q-76 0 -101 1.5t-33 1.5q-27 0 -35 -15q-56 -99 -70.5 -136t-14.5 -40
q0 -25 17 -33.5t34 -11t17 -12.5q0 -14 -9 -14h-6zM321 304l191 1q14 0 16 7v11.5t-43.5 140.5t-52.5 132q-5 0 -83 -140t-78 -146t19 -6h31z" />
    <glyph glyph-name="Acircumflex" unicode="&#xc2;" horiz-adv-x="771" 
d="M415.5 801q-48.5 -42 -55 -42t-6.5 2.5t10 15.5t23.5 31t22.5 30.5t16.5 23.5t11.5 18t8 13l6 9q5 8 12 8h26q10 0 14 -10q14 -30 33 -63q38 -69 38 -74t-8 -5t-49.5 42.5t-47.5 42.5t-54.5 -42zM115 0l-75 -2q-20 0 -20 11q0 13 25 21q30 12 45 35q24 39 40 69t34 62
t46 83.5t60 108.5q178 320 184 325t14 5t11.5 -7t11.5 -35t11 -39l9 -33q18 -66 86.5 -275.5t80 -240t20.5 -41t38 -19.5q16 -5 16 -20q0 -10 -31 -10l-65 3l-93 -5q-27 0 -27 10t10.5 16t22.5 8t22.5 11t10.5 25t-8 47.5t-19 67.5t-15 53q-6 24 -36 24l-121 -1
q-76 0 -101 1.5t-33 1.5q-27 0 -35 -15q-56 -99 -70.5 -136t-14.5 -40q0 -25 17 -33.5t34 -11t17 -12.5q0 -14 -9 -14h-6zM321 304l191 1q14 0 16 7v11.5t-43.5 140.5t-52.5 132q-5 0 -83 -140t-78 -146t19 -6h31z" />
    <glyph glyph-name="Atilde" unicode="&#xc3;" horiz-adv-x="771" 
d="M344.5 802q-9.5 -14 -16.5 -14t-7 13t40 54.5t65 41.5t61 -24t56.5 -24t33.5 14t22 28t15 14q9 0 9 -14.5t-39.5 -54t-65.5 -39.5t-63 24t-55.5 24t-32 -14.5t-23 -28.5zM115 0l-75 -2q-20 0 -20 11q0 13 25 21q30 12 45 35q24 39 40 69t34 62t46 83.5t60 108.5
q178 320 184 325t14 5t11.5 -7t11.5 -35t11 -39l9 -33q18 -66 86.5 -275.5t80 -240t20.5 -41t38 -19.5q16 -5 16 -20q0 -10 -31 -10l-65 3l-93 -5q-27 0 -27 10t10.5 16t22.5 8t22.5 11t10.5 25t-8 47.5t-19 67.5t-15 53q-6 24 -36 24l-121 -1q-76 0 -101 1.5t-33 1.5
q-27 0 -35 -15q-56 -99 -70.5 -136t-14.5 -40q0 -25 17 -33.5t34 -11t17 -12.5q0 -14 -9 -14h-6zM321 304l191 1q14 0 16 7v11.5t-43.5 140.5t-52.5 132q-5 0 -83 -140t-78 -146t19 -6h31z" />
    <glyph glyph-name="Adieresis" unicode="&#xc4;" horiz-adv-x="771" 
d="M375 821q-13 17 -13 30.5t17.5 33t32 19.5t27.5 -16t13 -31t-19 -34t-27 -19q-18 0 -31 17zM529 821q-13 17 -13 30.5t18 33t32.5 19.5t27.5 -16t13 -31t-19.5 -34t-27.5 -19q-18 0 -31 17zM115 0l-75 -2q-20 0 -20 11q0 13 25 21q30 12 45 35q24 39 40 69t34 62t46 83.5
t60 108.5q178 320 184 325t14 5t11.5 -7t11.5 -35t11 -39l9 -33q18 -66 86.5 -275.5t80 -240t20.5 -41t38 -19.5q16 -5 16 -20q0 -10 -31 -10l-65 3l-93 -5q-27 0 -27 10t10.5 16t22.5 8t22.5 11t10.5 25t-8 47.5t-19 67.5t-15 53q-6 24 -36 24l-121 -1q-76 0 -101 1.5
t-33 1.5q-27 0 -35 -15q-56 -99 -70.5 -136t-14.5 -40q0 -25 17 -33.5t34 -11t17 -12.5q0 -14 -9 -14h-6zM321 304l191 1q14 0 16 7v11.5t-43.5 140.5t-52.5 132q-5 0 -83 -140t-78 -146t19 -6h31z" />
    <glyph glyph-name="Aring" unicode="&#xc5;" horiz-adv-x="771" 
d="M466 776q-67 0 -67 72q0 30 26.5 56t58 26t47.5 -22.5t16 -54.5t-31 -54.5t-50 -22.5zM447.5 882q-15.5 -13 -15.5 -32t10 -29.5t25 -10.5t31 12t16 37q0 36 -36 36q-15 0 -30.5 -13zM115 0l-75 -2q-20 0 -20 11q0 13 25 21q30 12 45 35q24 39 40 69t34 62t46 83.5
t60 108.5q178 320 184 325t14 5t11.5 -7t11.5 -35t11 -39l9 -33q18 -66 86.5 -275.5t80 -240t20.5 -41t38 -19.5q16 -5 16 -20q0 -10 -31 -10l-65 3l-93 -5q-27 0 -27 10t10.5 16t22.5 8t22.5 11t10.5 25t-8 47.5t-19 67.5t-15 53q-6 24 -36 24l-121 -1q-76 0 -101 1.5
t-33 1.5q-27 0 -35 -15q-56 -99 -70.5 -136t-14.5 -40q0 -25 17 -33.5t34 -11t17 -12.5q0 -14 -9 -14h-6zM321 304l191 1q14 0 16 7v11.5t-43.5 140.5t-52.5 132q-5 0 -83 -140t-78 -146t19 -6h31z" />
    <glyph glyph-name="AE" unicode="&#xc6;" horiz-adv-x="1078" 
d="M106 0l-70 -2q-16 0 -16 9q0 12 20 19.5t28 12.5t17 13.5t23.5 27.5t32.5 43t51.5 69.5t71.5 97.5q123 166 238 314l39 50q5 8 5 13q0 11 -30.5 12t-30.5 12q0 14 23 14h108l199 -2l231 5q17 0 17 -20l-3 -52l3 -54q0 -10 -3.5 -19.5t-9.5 -9.5q-15 0 -15 24q0 44 -33 64
q-10 6 -35 13t-56 7l-155 3q-44 0 -53 -9.5t-17 -57.5q-25 -175 -25 -194t7 -21.5t86 -2.5t110 4.5t41.5 17.5t16 23.5t7.5 17.5q4 14 12 14q13 0 13 -11t-8.5 -49t-11 -52.5t-2.5 -42.5q0 -60 -16 -60q-11 0 -11 17q0 48 -17 60q-28 21 -107 21h-49l-31 1h-6q-37 0 -38 -18
q-3 -30 -13 -90q-23 -147 -23 -158q0 -24 23.5 -30t105.5 -6t141.5 15.5t81 33.5t36 33.5t20.5 15.5q10 0 10 -13q0 -27 -42.5 -80t-74.5 -53q-72 0 -179 5t-129 5l-113 -2q-35 0 -35 14q0 4 6 8.5t17 5.5q37 2 48.5 37.5t34.5 188.5q-8 6 -21 6l-113 -1q-71 0 -94 1.5
t-30 1.5q-24 0 -35 -15q-71 -91 -95 -132t-25 -45t-1 -12q0 -21 25.5 -27t25.5 -14q0 -11 -5 -14t-20 -3zM383 304l197 1l27 238q2 22 5 46q7 45 7 60.5t-13 15.5q-10 0 -32 -26q-58 -75 -151.5 -199.5t-93.5 -127.5q0 -8 28 -8h26z" />
    <glyph glyph-name="Ccedilla" unicode="&#xc7;" horiz-adv-x="762" 
d="M333 -79q34 33 48 33q18 0 34 -19.5t16 -39.5q0 -42 -31.5 -68t-49.5 -26q-5 0 -5 4q0 2 10 8q30 18 30 43t-13 36t-26 17t-13 12zM59.5 187q-20.5 59 -20.5 129t24 139.5t70.5 127.5t122.5 92.5t172 34.5q61 0 119 -19t91 -38l32 -19q3 0 10.5 8t11.5 8q12 0 12 -16
q0 -88 4.5 -115t4.5 -34q0 -24 -14 -24q-7 0 -12 8t-12.5 29.5t-15.5 41.5q-16 41 -59 70q-91 62 -184.5 62t-161 -50.5t-99 -126t-31.5 -161.5q0 -147 81 -233.5t199.5 -86.5t209.5 103q12 13 22 34.5t17 34t16 12.5q16 0 16 -18q0 -13 -7.5 -34t-10.5 -31.5t-6.5 -27.5
t-6 -23.5t-9.5 -10.5q-145 -76 -267 -76q-84 0 -150.5 28t-107 75.5t-61 106.5z" />
    <glyph glyph-name="Egrave" unicode="&#xc8;" horiz-adv-x="631" 
d="M348 813q-53 67 -53 82t21 22t31 7t16 -18q25 -80 42 -113t17 -37q0 -10 -10.5 -10t-63.5 67zM167 3l-112 -3q-35 0 -35 13.5t22.5 14.5t35 16t17.5 33t10 49t5.5 35.5t8.5 53.5t12 81l36 303q1 9 1 29t-12 33.5t-26 14.5q-38 3 -38 17.5t23 14.5l253 -2l231 4
q18 0 18 -19l-4 -53l3 -54q0 -28 -13 -28q-15 0 -15 24q0 43 -33 63q-10 6 -35 13.5t-56 7.5l-154 3q-44 0 -53.5 -10t-17.5 -58q-25 -175 -25 -194t6.5 -21t86.5 -2t110.5 4t42 18t17.5 28t9 20t9 6q12 0 12 -10t-8.5 -47.5t-11 -53t-2.5 -43.5q0 -60 -16 -60q-11 0 -11 16
q0 48 -17 60q-29 21 -107 21h-48l-31 1h-6q-38 0 -39 -17q-3 -30 -12 -89q-24 -148 -24 -159q0 -24 24 -30.5t105.5 -6.5t141 15.5t81 34t36 34t20.5 15.5q10 0 10 -14q0 -27 -42 -80t-74 -53q-72 0 -179.5 5.5t-129.5 5.5z" />
    <glyph glyph-name="Eacute" unicode="&#xc9;" horiz-adv-x="631" 
d="M361 772.5q10 12.5 20 26.5q22 33 61 107q9 18 20 18t29 -6.5t18 -16.5q0 -16 -69 -85.5t-79 -69.5t-10 7t10 19.5zM167 3l-112 -3q-35 0 -35 13.5t22.5 14.5t35 16t17.5 33t10 49t5.5 35.5t8.5 53.5t12 81l36 303q1 9 1 29t-12 33.5t-26 14.5q-38 3 -38 17.5t23 14.5
l253 -2l231 4q18 0 18 -19l-4 -53l3 -54q0 -28 -13 -28q-15 0 -15 24q0 43 -33 63q-10 6 -35 13.5t-56 7.5l-154 3q-44 0 -53.5 -10t-17.5 -58q-25 -175 -25 -194t6.5 -21t86.5 -2t110.5 4t42 18t17.5 28t9 20t9 6q12 0 12 -10t-8.5 -47.5t-11 -53t-2.5 -43.5q0 -60 -16 -60
q-11 0 -11 16q0 48 -17 60q-29 21 -107 21h-48l-31 1h-6q-38 0 -39 -17q-3 -30 -12 -89q-24 -148 -24 -159q0 -24 24 -30.5t105.5 -6.5t141 15.5t81 34t36 34t20.5 15.5q10 0 10 -14q0 -27 -42 -80t-74 -53q-72 0 -179.5 5.5t-129.5 5.5z" />
    <glyph glyph-name="Ecircumflex" unicode="&#xca;" horiz-adv-x="631" 
d="M339.5 801q-48.5 -42 -55 -42t-6.5 2.5t10 15.5t23.5 31t22.5 30.5t16.5 23.5t11.5 18t8 13l6 9q5 8 12 8h26q10 0 14 -10q14 -30 33 -63q38 -69 38 -74t-8 -5t-49.5 42.5t-47.5 42.5t-54.5 -42zM167 3l-112 -3q-35 0 -35 13.5t22.5 14.5t35 16t17.5 33t10 49t5.5 35.5
t8.5 53.5t12 81l36 303q1 9 1 29t-12 33.5t-26 14.5q-38 3 -38 17.5t23 14.5l253 -2l231 4q18 0 18 -19l-4 -53l3 -54q0 -28 -13 -28q-15 0 -15 24q0 43 -33 63q-10 6 -35 13.5t-56 7.5l-154 3q-44 0 -53.5 -10t-17.5 -58q-25 -175 -25 -194t6.5 -21t86.5 -2t110.5 4t42 18
t17.5 28t9 20t9 6q12 0 12 -10t-8.5 -47.5t-11 -53t-2.5 -43.5q0 -60 -16 -60q-11 0 -11 16q0 48 -17 60q-29 21 -107 21h-48l-31 1h-6q-38 0 -39 -17q-3 -30 -12 -89q-24 -148 -24 -159q0 -24 24 -30.5t105.5 -6.5t141 15.5t81 34t36 34t20.5 15.5q10 0 10 -14
q0 -27 -42 -80t-74 -53q-72 0 -179.5 5.5t-129.5 5.5z" />
    <glyph glyph-name="Edieresis" unicode="&#xcb;" horiz-adv-x="631" 
d="M299 821q-13 17 -13 30.5t17.5 33t32 19.5t27.5 -16t13 -31t-19 -34t-27 -19q-18 0 -31 17zM453 821q-13 17 -13 30.5t18 33t32.5 19.5t27.5 -16t13 -31t-19.5 -34t-27.5 -19q-18 0 -31 17zM167 3l-112 -3q-35 0 -35 13.5t22.5 14.5t35 16t17.5 33t10 49t5.5 35.5
t8.5 53.5t12 81l36 303q1 9 1 29t-12 33.5t-26 14.5q-38 3 -38 17.5t23 14.5l253 -2l231 4q18 0 18 -19l-4 -53l3 -54q0 -28 -13 -28q-15 0 -15 24q0 43 -33 63q-10 6 -35 13.5t-56 7.5l-154 3q-44 0 -53.5 -10t-17.5 -58q-25 -175 -25 -194t6.5 -21t86.5 -2t110.5 4t42 18
t17.5 28t9 20t9 6q12 0 12 -10t-8.5 -47.5t-11 -53t-2.5 -43.5q0 -60 -16 -60q-11 0 -11 16q0 48 -17 60q-29 21 -107 21h-48l-31 1h-6q-38 0 -39 -17q-3 -30 -12 -89q-24 -148 -24 -159q0 -24 24 -30.5t105.5 -6.5t141 15.5t81 34t36 34t20.5 15.5q10 0 10 -14
q0 -27 -42 -80t-74 -53q-72 0 -179.5 5.5t-129.5 5.5z" />
    <glyph glyph-name="Igrave" unicode="&#xcc;" horiz-adv-x="325" 
d="M157 813q-53 67 -53 82t21 22t31 7t16 -18q25 -80 42 -113t17 -37q0 -10 -10.5 -10t-63.5 67zM132 1l-77 -6q-35 0 -35 16q0 12 20 13q21 2 34 21t15 36t21 158q48 370 48 380q0 47 -60 54q-25 3 -26 4q-8 3 -8 12q0 15 27 15q11 0 41 -4t62 -4l94 6q18 0 18 -14
q0 -7 -9.5 -9.5t-23 -6t-19.5 -10.5q-20 -23 -30.5 -126.5t-25.5 -209.5t-23 -159.5t-8 -71.5t3 -33t10.5 -22t12 -10t16.5 -5t15.5 -3t8.5 -2t8.5 -1.5t6.5 -1.5q6 -2 6 -8.5t-3 -9.5q-4 -4 -18 -4z" />
    <glyph glyph-name="Iacute" unicode="&#xcd;" horiz-adv-x="325" 
d="M170 772.5q10 12.5 20 26.5q22 33 61 107q9 18 20 18t29 -6.5t18 -16.5q0 -16 -69 -85.5t-79 -69.5t-10 7t10 19.5zM132 1l-77 -6q-35 0 -35 16q0 12 20 13q21 2 34 21t15 36t21 158q48 370 48 380q0 47 -60 54q-25 3 -26 4q-8 3 -8 12q0 15 27 15q11 0 41 -4t62 -4l94 6
q18 0 18 -14q0 -7 -9.5 -9.5t-23 -6t-19.5 -10.5q-20 -23 -30.5 -126.5t-25.5 -209.5t-23 -159.5t-8 -71.5t3 -33t10.5 -22t12 -10t16.5 -5t15.5 -3t8.5 -2t8.5 -1.5t6.5 -1.5q6 -2 6 -8.5t-3 -9.5q-4 -4 -18 -4z" />
    <glyph glyph-name="Icircumflex" unicode="&#xce;" horiz-adv-x="325" 
d="M148.5 801q-48.5 -42 -55 -42t-6.5 2.5t10 15.5t23.5 31t22.5 30.5t16.5 23.5t11.5 18t8 13l6 9q5 8 12 8h26q10 0 14 -10q14 -30 33 -63q38 -69 38 -74t-8 -5t-49.5 42.5t-47.5 42.5t-54.5 -42zM132 1l-77 -6q-35 0 -35 16q0 12 20 13q21 2 34 21t15 36t21 158
q48 370 48 380q0 47 -60 54q-25 3 -26 4q-8 3 -8 12q0 15 27 15q11 0 41 -4t62 -4l94 6q18 0 18 -14q0 -7 -9.5 -9.5t-23 -6t-19.5 -10.5q-20 -23 -30.5 -126.5t-25.5 -209.5t-23 -159.5t-8 -71.5t3 -33t10.5 -22t12 -10t16.5 -5t15.5 -3t8.5 -2t8.5 -1.5t6.5 -1.5
q6 -2 6 -8.5t-3 -9.5q-4 -4 -18 -4z" />
    <glyph glyph-name="Idieresis" unicode="&#xcf;" horiz-adv-x="325" 
d="M108 821q-13 17 -13 30.5t17.5 33t32 19.5t27.5 -16t13 -31t-19 -34t-27 -19q-18 0 -31 17zM262 821q-13 17 -13 30.5t18 33t32.5 19.5t27.5 -16t13 -31t-19.5 -34t-27.5 -19q-18 0 -31 17zM132 1l-77 -6q-35 0 -35 16q0 12 20 13q21 2 34 21t15 36t21 158q48 370 48 380
q0 47 -60 54q-25 3 -26 4q-8 3 -8 12q0 15 27 15q11 0 41 -4t62 -4l94 6q18 0 18 -14q0 -7 -9.5 -9.5t-23 -6t-19.5 -10.5q-20 -23 -30.5 -126.5t-25.5 -209.5t-23 -159.5t-8 -71.5t3 -33t10.5 -22t12 -10t16.5 -5t15.5 -3t8.5 -2t8.5 -1.5t6.5 -1.5q6 -2 6 -8.5t-3 -9.5
q-4 -4 -18 -4z" />
    <glyph glyph-name="Eth" unicode="&#xd0;" horiz-adv-x="767" 
d="M298 0l-155 3q-35 0 -65.5 -4t-37.5 -4t-13.5 5.5t-6.5 13t8 11t18.5 5t22.5 12t17 26.5q6 18 32 198l7 57q0 9 -3.5 11t-12.5 2h-50q-13 0 -13 22q0 9 3.5 15.5t7.5 6.5l67 -2q8 0 9.5 3.5t3.5 24.5l28 210q2 16 2 18q0 15 -14 27.5t-31 13.5q-46 3 -46 21.5t31 18.5
q17 0 46.5 -5.5t54.5 -5.5t69.5 5t86.5 5q190 0 279.5 -79.5t89.5 -204t-78 -244.5q-22 -35 -63.5 -74.5t-67.5 -54.5q-94 -57 -226 -57zM395 337l-101 -1h-74q-11 0 -13 -2.5t-4 -15.5l-7 -60q-24 -183 -24 -194t10 -20.5t38 -9.5h88q44 0 104 21q106 38 168 143
q42 71 56 175q5 32 5 61t-7 59.5t-27 64t-51 58t-83.5 40.5t-117 16t-82.5 -8t-29 -47q-9 -31 -26 -179l-7 -53q0 -7 13 -7l167 3q12 0 12 -22t-8 -22z" />
    <glyph glyph-name="Ntilde" unicode="&#xd1;" horiz-adv-x="804" 
d="M307.5 802q-9.5 -14 -16.5 -14t-7 13t40 54.5t65 41.5t61 -24t56.5 -24t33.5 14t22 28t15 14q9 0 9 -14.5t-39.5 -54t-65.5 -39.5t-63 24t-55.5 24t-32 -14.5t-23 -28.5zM107 -2l-65 -3q-22 0 -22 11q0 9 14 12q20 6 28 13.5t14.5 15.5t11.5 21.5t8 24t7.5 35t7 41.5
t8.5 56t9 60t11.5 71.5t12.5 80.5q14 90 14 118.5t-2 39.5t-4 17t-9 14.5t-9 11t-12.5 12t-12.5 11.5q-12 11 -35 12.5t-38.5 3t-15.5 14.5q0 19 67 19l42 -3l30 1q17 0 23.5 -7.5t8.5 -10.5t7.5 -10.5t9.5 -13.5q237 -328 349 -507q20 -32 26 -32q19 0 48.5 228.5
t29.5 258.5t-12.5 45t-28.5 17q-40 7 -40 26q0 10 25 10l76 -4l70 4q16 0 21 -3t5 -8.5t-1.5 -7.5t-5.5 -3.5t-7 -1.5q-41 -7 -54 -45t-21 -105q-42 -353 -78 -517q-1 -8 -7 -17.5t-13.5 -9.5t-15.5 9t-23 33t-33 54q-64 105 -113.5 175.5t-79 112.5t-45 63.5t-28.5 39.5
q-21 29 -27.5 42t-16.5 13q-14 0 -19 -47q-11 -111 -32 -239.5t-21 -169t39 -52.5q4 -1 11.5 -3t11.5 -3t9 -3q9 -4 9 -12q0 -12 -17 -12q-5 0 -26 1.5t-74 1.5z" />
    <glyph glyph-name="Ograve" unicode="&#xd2;" horiz-adv-x="815" 
d="M398 813q-53 67 -53 82t21 22t31 7t16 -18q25 -80 42 -113t17 -37q0 -10 -10.5 -10t-63.5 67zM39 314q0 74 26.5 145t75.5 129t125.5 93t164.5 35t155.5 -28.5t107.5 -76.5q82 -98 82 -235q0 -148 -92 -266q-46 -59 -121 -94.5t-169 -35.5q-160 0 -257.5 92t-97.5 242z
M125 347q0 -154 82 -242.5t194 -88.5q87 0 154.5 55t100 136.5t32.5 171t-21 142.5q-29 75 -92.5 120t-144.5 45t-139 -32.5t-93 -83.5q-73 -106 -73 -223z" />
    <glyph glyph-name="Oacute" unicode="&#xd3;" horiz-adv-x="815" 
d="M411 772.5q10 12.5 20 26.5q22 33 61 107q9 18 20 18t29 -6.5t18 -16.5q0 -16 -69 -85.5t-79 -69.5t-10 7t10 19.5zM39 314q0 74 26.5 145t75.5 129t125.5 93t164.5 35t155.5 -28.5t107.5 -76.5q82 -98 82 -235q0 -148 -92 -266q-46 -59 -121 -94.5t-169 -35.5
q-160 0 -257.5 92t-97.5 242zM125 347q0 -154 82 -242.5t194 -88.5q87 0 154.5 55t100 136.5t32.5 171t-21 142.5q-29 75 -92.5 120t-144.5 45t-139 -32.5t-93 -83.5q-73 -106 -73 -223z" />
    <glyph glyph-name="Ocircumflex" unicode="&#xd4;" horiz-adv-x="815" 
d="M389.5 801q-48.5 -42 -55 -42t-6.5 2.5t10 15.5t23.5 31t22.5 30.5t16.5 23.5t11.5 18t8 13l6 9q5 8 12 8h26q10 0 14 -10q14 -30 33 -63q38 -69 38 -74t-8 -5t-49.5 42.5t-47.5 42.5t-54.5 -42zM39 314q0 74 26.5 145t75.5 129t125.5 93t164.5 35t155.5 -28.5
t107.5 -76.5q82 -98 82 -235q0 -148 -92 -266q-46 -59 -121 -94.5t-169 -35.5q-160 0 -257.5 92t-97.5 242zM125 347q0 -154 82 -242.5t194 -88.5q87 0 154.5 55t100 136.5t32.5 171t-21 142.5q-29 75 -92.5 120t-144.5 45t-139 -32.5t-93 -83.5q-73 -106 -73 -223z" />
    <glyph glyph-name="Otilde" unicode="&#xd5;" horiz-adv-x="815" 
d="M318.5 802q-9.5 -14 -16.5 -14t-7 13t40 54.5t65 41.5t61 -24t56.5 -24t33.5 14t22 28t15 14q9 0 9 -14.5t-39.5 -54t-65.5 -39.5t-63 24t-55.5 24t-32 -14.5t-23 -28.5zM39 314q0 74 26.5 145t75.5 129t125.5 93t164.5 35t155.5 -28.5t107.5 -76.5q82 -98 82 -235
q0 -148 -92 -266q-46 -59 -121 -94.5t-169 -35.5q-160 0 -257.5 92t-97.5 242zM125 347q0 -154 82 -242.5t194 -88.5q87 0 154.5 55t100 136.5t32.5 171t-21 142.5q-29 75 -92.5 120t-144.5 45t-139 -32.5t-93 -83.5q-73 -106 -73 -223z" />
    <glyph glyph-name="Odieresis" unicode="&#xd6;" horiz-adv-x="815" 
d="M349 821q-13 17 -13 30.5t17.5 33t32 19.5t27.5 -16t13 -31t-19 -34t-27 -19q-18 0 -31 17zM503 821q-13 17 -13 30.5t18 33t32.5 19.5t27.5 -16t13 -31t-19.5 -34t-27.5 -19q-18 0 -31 17zM39 314q0 74 26.5 145t75.5 129t125.5 93t164.5 35t155.5 -28.5t107.5 -76.5
q82 -98 82 -235q0 -148 -92 -266q-46 -59 -121 -94.5t-169 -35.5q-160 0 -257.5 92t-97.5 242zM125 347q0 -154 82 -242.5t194 -88.5q87 0 154.5 55t100 136.5t32.5 171t-21 142.5q-29 75 -92.5 120t-144.5 45t-139 -32.5t-93 -83.5q-73 -106 -73 -223z" />
    <glyph glyph-name="multiply" unicode="&#xd7;" horiz-adv-x="508" 
d="M89.5 45q-10.5 10 -10.5 15.5t8 13.5l120 121q9 9 9 15t-7 13l-124 124q-6 6 -6 11.5t10.5 15.5t16.5 10t14 -8l116 -115q12 -12 19 -12t12 5l125 125q6 6 11 6t15.5 -10t10.5 -15.5t-10 -15.5l-121 -121q-7 -7 -7 -12.5t7 -12.5l124 -124q7 -7 7 -12.5t-11 -16
t-16 -10.5t-12 7l-123 124q-7 7 -13 7t-17 -11l-119 -120q-7 -7 -12.5 -7t-16 10z" />
    <glyph glyph-name="Oslash" unicode="&#xd8;" horiz-adv-x="815" 
d="M54.5 204.5q-15.5 50.5 -15.5 117t26.5 137.5t75.5 129t125.5 93t167.5 35q78 0 128 -20q7 -2 9 -2t11 17l35 62q9 15 17 15t18 -6t10 -11t-2 -11l-38 -66q-2 -4 -4 -7t-3 -5t-2 -3t-1 -2l9 -5q58 -38 91 -84q40 -57 52 -111.5t12 -113t-23.5 -127t-69 -127t-120.5 -94
t-169 -35.5q-61 0 -90.5 8t-43.5 12.5t-21.5 7.5t-9 3t-14.5 -24l-48 -83q-10 -15 -17 -15t-17 7t-10 13.5t3 11.5l64 109q0 1 -15.5 11.5t-37.5 31.5t-44.5 51t-38 80.5zM144 461q-19 -58 -19 -111t10 -97.5t24 -73t28.5 -50t24.5 -31t12 -9.5t15 25l300 522q10 17 10 19.5
t-18 10.5q-49 20 -115.5 20t-124.5 -32.5t-93 -83.5t-54 -109zM277.5 46.5q19.5 -10.5 54.5 -20.5t69 -10q87 0 154.5 55t100 136.5t32.5 172.5q0 152 -80 233q-18 18 -21 18q-1 0 -103 -177t-164 -284t-62 -110t19.5 -13.5z" />
    <glyph glyph-name="Ugrave" unicode="&#xd9;" horiz-adv-x="827" 
d="M416 813q-53 67 -53 82t21 22t31 7t16 -18q25 -80 42 -113t17 -37q0 -10 -10.5 -10t-63.5 67zM94 215l37 411q0 24 -13.5 36t-29.5 13q-44 3 -44 19q0 14 17 14l35 -3q35 -3 79 -3l90 6q20 0 20 -14q0 -15 -33 -20q-13 -2 -25 -16t-15.5 -52.5t-15.5 -135.5
q-24 -205 -24 -254.5t7 -74t25.5 -53t58.5 -46t98 -17.5q194 0 259 159q22 56 47.5 219t25.5 214q0 31 -21.5 43t-43.5 16t-22 16.5t24 12.5l55 -4l104 4q7 0 12.5 -4t5.5 -10t-12 -9q-41 -13 -52 -51q-2 -7 -15 -103q-36 -280 -71 -364q-22 -53 -53 -83.5t-89 -65.5
q-24 -14 -72.5 -24t-78.5 -10q-87 0 -138 17t-83 49.5t-40.5 67.5t-8.5 100z" />
    <glyph glyph-name="Uacute" unicode="&#xda;" horiz-adv-x="827" 
d="M429 772.5q10 12.5 20 26.5q22 33 61 107q9 18 20 18t29 -6.5t18 -16.5q0 -16 -69 -85.5t-79 -69.5t-10 7t10 19.5zM94 215l37 411q0 24 -13.5 36t-29.5 13q-44 3 -44 19q0 14 17 14l35 -3q35 -3 79 -3l90 6q20 0 20 -14q0 -15 -33 -20q-13 -2 -25 -16t-15.5 -52.5
t-15.5 -135.5q-24 -205 -24 -254.5t7 -74t25.5 -53t58.5 -46t98 -17.5q194 0 259 159q22 56 47.5 219t25.5 214q0 31 -21.5 43t-43.5 16t-22 16.5t24 12.5l55 -4l104 4q7 0 12.5 -4t5.5 -10t-12 -9q-41 -13 -52 -51q-2 -7 -15 -103q-36 -280 -71 -364q-22 -53 -53 -83.5
t-89 -65.5q-24 -14 -72.5 -24t-78.5 -10q-87 0 -138 17t-83 49.5t-40.5 67.5t-8.5 100z" />
    <glyph glyph-name="Ucircumflex" unicode="&#xdb;" horiz-adv-x="827" 
d="M407.5 801q-48.5 -42 -55 -42t-6.5 2.5t10 15.5t23.5 31t22.5 30.5t16.5 23.5t11.5 18t8 13l6 9q5 8 12 8h26q10 0 14 -10q14 -30 33 -63q38 -69 38 -74t-8 -5t-49.5 42.5t-47.5 42.5t-54.5 -42zM94 215l37 411q0 24 -13.5 36t-29.5 13q-44 3 -44 19q0 14 17 14l35 -3
q35 -3 79 -3l90 6q20 0 20 -14q0 -15 -33 -20q-13 -2 -25 -16t-15.5 -52.5t-15.5 -135.5q-24 -205 -24 -254.5t7 -74t25.5 -53t58.5 -46t98 -17.5q194 0 259 159q22 56 47.5 219t25.5 214q0 31 -21.5 43t-43.5 16t-22 16.5t24 12.5l55 -4l104 4q7 0 12.5 -4t5.5 -10t-12 -9
q-41 -13 -52 -51q-2 -7 -15 -103q-36 -280 -71 -364q-22 -53 -53 -83.5t-89 -65.5q-24 -14 -72.5 -24t-78.5 -10q-87 0 -138 17t-83 49.5t-40.5 67.5t-8.5 100z" />
    <glyph glyph-name="Udieresis" unicode="&#xdc;" horiz-adv-x="827" 
d="M367 821q-13 17 -13 30.5t17.5 33t32 19.5t27.5 -16t13 -31t-19 -34t-27 -19q-18 0 -31 17zM521 821q-13 17 -13 30.5t18 33t32.5 19.5t27.5 -16t13 -31t-19.5 -34t-27.5 -19q-18 0 -31 17zM94 215l37 411q0 24 -13.5 36t-29.5 13q-44 3 -44 19q0 14 17 14l35 -3
q35 -3 79 -3l90 6q20 0 20 -14q0 -15 -33 -20q-13 -2 -25 -16t-15.5 -52.5t-15.5 -135.5q-24 -205 -24 -254.5t7 -74t25.5 -53t58.5 -46t98 -17.5q194 0 259 159q22 56 47.5 219t25.5 214q0 31 -21.5 43t-43.5 16t-22 16.5t24 12.5l55 -4l104 4q7 0 12.5 -4t5.5 -10t-12 -9
q-41 -13 -52 -51q-2 -7 -15 -103q-36 -280 -71 -364q-22 -53 -53 -83.5t-89 -65.5q-24 -14 -72.5 -24t-78.5 -10q-87 0 -138 17t-83 49.5t-40.5 67.5t-8.5 100z" />
    <glyph glyph-name="Yacute" unicode="&#xdd;" horiz-adv-x="690" 
d="M344 772.5q10 12.5 20 26.5q22 33 61 107q9 18 20 18t29 -6.5t18 -16.5q0 -16 -69 -85.5t-79 -69.5t-10 7t10 19.5zM413 -6l-113 7q-26 0 -50.5 -4t-33.5 -4q-27 0 -27 13q0 14 25 18q9 2 13 3q14 4 20 17.5t21.5 121t15.5 125t-1.5 24t-6 18t-9.5 22.5t-17 33.5
t-23 43.5t-31.5 60.5t-40.5 77.5q-50 98 -88 110q-3 1 -17 2q-30 1 -30 18q0 14 33 14l93 -4l89 4q30 0 30 -15q0 -10 -25 -19t-25 -23q0 -41 44 -117q16 -30 37 -77q48 -104 51 -104t49 62t92 136t46 92.5t-11 24.5t-25 6q-35 -2 -35 18q0 14 26 14l53 -2l103 3
q26 0 26 -15q0 -6 -11 -11t-27.5 -11.5t-32.5 -23.5t-102 -143t-104 -146.5t-26.5 -41.5t-14.5 -73q-16 -153 -16 -171t16.5 -32t30.5 -18t24 -5q24 -1 24 -14q0 -9 -5 -11.5t-14 -2.5z" />
    <glyph glyph-name="Thorn" unicode="&#xde;" horiz-adv-x="553" 
d="M132 1l-77 -6q-35 0 -35 16q0 13 26 15q10 1 22.5 12.5t19.5 33.5l35 272q35 273 35 275q0 47 -60 54q-25 3 -26 4q-8 3 -8 12q0 15 27 15q11 0 41 -4t62 -4l94 6q18 0 18 -14q0 -7 -9.5 -9.5t-23 -6t-23.5 -15t-18 -58.5t-8 -59.5t9 -12.5l98 7q84 0 133.5 -42
t49.5 -124q0 -64 -34 -121t-93 -82q-41 -17 -87 -17q-88 0 -88 17q0 2 3 2l55 -2q57 0 111 53t54 139q0 33 -13 59t-26 37q-54 48 -125 48q-39 0 -46 -8t-14.5 -72t-19.5 -146t-18 -122t-6 -58t3 -33t10.5 -22t12 -10t16.5 -5t15.5 -3t8.5 -2t8.5 -1.5t6.5 -1.5q6 -2 6 -8.5
t-3 -9.5q-4 -4 -18 -4z" />
    <glyph glyph-name="germandbls" unicode="&#xdf;" horiz-adv-x="509" 
d="M-43 -166q0 13 8 40.5t20.5 27.5t14.5 -14.5t12.5 -24.5t16.5 -10t11 5t8.5 16.5t6.5 26t6 39.5t6 49q11 84 17.5 133t17 128t14.5 106.5t12.5 79.5t15 73t16.5 53q16 51 46.5 93t65 63.5t61 21.5t52 -8t50 -36t24.5 -70t-23 -80t-51 -62q-74 -65 -74 -109
q0 -20 18.5 -48t41 -53t35.5 -39.5t17 -19.5t13.5 -18.5t13 -23t7 -25t3.5 -31.5t-7 -36t-22.5 -42.5t-48.5 -37.5t-75.5 -15t-78.5 15t-36 50.5t33 35.5q29 0 43 -35q5 -12 18 -23t35.5 -11t40.5 8t25 20q12 22 12 40.5t-10.5 40.5t-22.5 35.5t-35 36.5q-77 80 -77 135
q0 32 22.5 66t49.5 59.5t49.5 64.5t22.5 80.5t-22 67.5t-54 26q-26 0 -49 -15q-21 -14 -33 -51q-26 -61 -48 -176q-12 -61 -27 -215.5t-24.5 -224.5t-24.5 -105.5t-43 -61.5t-46.5 -32t-33.5 -6q-36 0 -36 23z" />
    <glyph glyph-name="agrave" unicode="&#xe0;" horiz-adv-x="518" 
d="M254 549q-53 67 -53 82t21 22t31 7t16 -18q25 -80 42 -113t17 -37q0 -10 -10.5 -10t-63.5 67zM53.5 19.5q-21.5 34.5 -21.5 101t58 158.5t133 128q37 18 62.5 18t52 -5.5t40 -5.5t29.5 24.5t26.5 24.5t10.5 -12t-8.5 -36t-10.5 -32t-22 -119.5t-20 -136.5t10 -44t26 -19
t39.5 32.5t32 32.5t8.5 -14.5t-19.5 -42.5t-48 -53.5t-52 -25.5t-37.5 28t-16.5 56t-3.5 28t-11.5 -12.5t-28 -30t-38.5 -34.5q-53 -43 -111 -43t-79.5 34.5zM107 174q-5 -30 -5 -60t22.5 -52t62 -22t74 31.5t46.5 55.5t25 83q27 130 27 151.5t-22 30t-49 8.5t-62 -22
t-57 -59q-52 -86 -62 -145z" />
    <glyph glyph-name="aacute" unicode="&#xe1;" horiz-adv-x="518" 
d="M267 508.5q10 12.5 20 26.5q22 33 61 107q9 18 20 18t29 -6.5t18 -16.5q0 -16 -69 -85.5t-79 -69.5t-10 7t10 19.5zM53.5 19.5q-21.5 34.5 -21.5 101t58 158.5t133 128q37 18 62.5 18t52 -5.5t40 -5.5t29.5 24.5t26.5 24.5t10.5 -12t-8.5 -36t-10.5 -32t-22 -119.5
t-20 -136.5t10 -44t26 -19t39.5 32.5t32 32.5t8.5 -14.5t-19.5 -42.5t-48 -53.5t-52 -25.5t-37.5 28t-16.5 56t-3.5 28t-11.5 -12.5t-28 -30t-38.5 -34.5q-53 -43 -111 -43t-79.5 34.5zM107 174q-5 -30 -5 -60t22.5 -52t62 -22t74 31.5t46.5 55.5t25 83q27 130 27 151.5
t-22 30t-49 8.5t-62 -22t-57 -59q-52 -86 -62 -145z" />
    <glyph glyph-name="acircumflex" unicode="&#xe2;" horiz-adv-x="518" 
d="M245.5 537q-48.5 -42 -55 -42t-6.5 2.5t10 15.5t23.5 31t22.5 30.5t16.5 23.5t11.5 18t8 13l6 9q5 8 12 8h26q10 0 14 -10q14 -30 33 -63q38 -69 38 -74t-8 -5t-49.5 42.5t-47.5 42.5t-54.5 -42zM53.5 19.5q-21.5 34.5 -21.5 101t58 158.5t133 128q37 18 62.5 18t52 -5.5
t40 -5.5t29.5 24.5t26.5 24.5t10.5 -12t-8.5 -36t-10.5 -32t-22 -119.5t-20 -136.5t10 -44t26 -19t39.5 32.5t32 32.5t8.5 -14.5t-19.5 -42.5t-48 -53.5t-52 -25.5t-37.5 28t-16.5 56t-3.5 28t-11.5 -12.5t-28 -30t-38.5 -34.5q-53 -43 -111 -43t-79.5 34.5zM107 174
q-5 -30 -5 -60t22.5 -52t62 -22t74 31.5t46.5 55.5t25 83q27 130 27 151.5t-22 30t-49 8.5t-62 -22t-57 -59q-52 -86 -62 -145z" />
    <glyph glyph-name="atilde" unicode="&#xe3;" horiz-adv-x="518" 
d="M174.5 538q-9.5 -14 -16.5 -14t-7 13t40 54.5t65 41.5t61 -24t56.5 -24t33.5 14t22 28t15 14q9 0 9 -14.5t-39.5 -54t-65.5 -39.5t-63 24t-55.5 24t-32 -14.5t-23 -28.5zM53.5 19.5q-21.5 34.5 -21.5 101t58 158.5t133 128q37 18 62.5 18t52 -5.5t40 -5.5t29.5 24.5
t26.5 24.5t10.5 -12t-8.5 -36t-10.5 -32t-22 -119.5t-20 -136.5t10 -44t26 -19t39.5 32.5t32 32.5t8.5 -14.5t-19.5 -42.5t-48 -53.5t-52 -25.5t-37.5 28t-16.5 56t-3.5 28t-11.5 -12.5t-28 -30t-38.5 -34.5q-53 -43 -111 -43t-79.5 34.5zM107 174q-5 -30 -5 -60t22.5 -52
t62 -22t74 31.5t46.5 55.5t25 83q27 130 27 151.5t-22 30t-49 8.5t-62 -22t-57 -59q-52 -86 -62 -145z" />
    <glyph glyph-name="adieresis" unicode="&#xe4;" horiz-adv-x="518" 
d="M205 557q-13 17 -13 30.5t17.5 33t32 19.5t27.5 -16t13 -31t-19 -34t-27 -19q-18 0 -31 17zM359 557q-13 17 -13 30.5t18 33t32.5 19.5t27.5 -16t13 -31t-19.5 -34t-27.5 -19q-18 0 -31 17zM53.5 19.5q-21.5 34.5 -21.5 101t58 158.5t133 128q37 18 62.5 18t52 -5.5
t40 -5.5t29.5 24.5t26.5 24.5t10.5 -12t-8.5 -36t-10.5 -32t-22 -119.5t-20 -136.5t10 -44t26 -19t39.5 32.5t32 32.5t8.5 -14.5t-19.5 -42.5t-48 -53.5t-52 -25.5t-37.5 28t-16.5 56t-3.5 28t-11.5 -12.5t-28 -30t-38.5 -34.5q-53 -43 -111 -43t-79.5 34.5zM107 174
q-5 -30 -5 -60t22.5 -52t62 -22t74 31.5t46.5 55.5t25 83q27 130 27 151.5t-22 30t-49 8.5t-62 -22t-57 -59q-52 -86 -62 -145z" />
    <glyph glyph-name="aring" unicode="&#xe5;" horiz-adv-x="518" 
d="M296 512q-67 0 -67 72q0 30 26.5 56t58 26t47.5 -22.5t16 -54.5t-31 -54.5t-50 -22.5zM277.5 618q-15.5 -13 -15.5 -32t10 -29.5t25 -10.5t31 12t16 37q0 36 -36 36q-15 0 -30.5 -13zM53.5 19.5q-21.5 34.5 -21.5 101t58 158.5t133 128q37 18 62.5 18t52 -5.5t40 -5.5
t29.5 24.5t26.5 24.5t10.5 -12t-8.5 -36t-10.5 -32t-22 -119.5t-20 -136.5t10 -44t26 -19t39.5 32.5t32 32.5t8.5 -14.5t-19.5 -42.5t-48 -53.5t-52 -25.5t-37.5 28t-16.5 56t-3.5 28t-11.5 -12.5t-28 -30t-38.5 -34.5q-53 -43 -111 -43t-79.5 34.5zM107 174q-5 -30 -5 -60
t22.5 -52t62 -22t74 31.5t46.5 55.5t25 83q27 130 27 151.5t-22 30t-49 8.5t-62 -22t-57 -59q-52 -86 -62 -145z" />
    <glyph glyph-name="ae" unicode="&#xe6;" horiz-adv-x="704" 
d="M296 420l80 -6q10 0 26 24.5t26.5 24.5t10.5 -11.5t-11.5 -46t-11.5 -42.5t2 -8t9 8.5t19.5 20.5t29.5 24q44 28 109 28q36 0 61.5 -21t25.5 -53.5t-21.5 -61t-40.5 -40.5q-69 -45 -192 -46q-17 0 -17 -49.5t36 -83t108 -33.5q42 0 89 32q16 11 19 11q13 0 13 -10
q0 -21 -57.5 -57t-110 -36t-84.5 12.5t-46 30t-21 35t-10 30t-6.5 12.5t-22.5 -19t-41.5 -42.5t-58 -42.5t-69.5 -19q-64 0 -85.5 34.5t-21.5 93.5t34.5 129.5t97.5 124t132 53.5zM102 120q0 -36 22.5 -58t62 -22t74 31.5t46 55.5t24 81t20 102t7.5 49q0 16 -20 25t-40 9
q-70 0 -133 -85.5t-63 -187.5zM432 301q-16 -37 -16 -53.5t8 -16.5q71 0 125 40t54 88q0 25 -17.5 36t-35.5 11q-37 0 -82 -47q-20 -21 -36 -58z" />
    <glyph glyph-name="ccedilla" unicode="&#xe7;" horiz-adv-x="418" 
d="M147 -79q34 33 48 33q18 0 34 -19.5t16 -39.5q0 -42 -31.5 -68t-49.5 -26q-5 0 -5 4q0 2 10 8q30 18 30 43t-13 36t-26 17t-13 12zM32 149q0 107 75.5 197t178.5 90q37 0 76 -28q24 -18 24 -38.5t-10 -32.5t-23.5 -12t-27 11.5t-23.5 24.5t-28.5 24.5t-34.5 11.5
q-34 0 -73 -35q-29 -26 -47.5 -74t-18.5 -89q0 -153 118 -153q36 0 65.5 13.5t46 27t22.5 13.5q13 0 13 -13q0 -9 -21 -31.5t-66 -45t-95 -22.5q-151 0 -151 161z" />
    <glyph glyph-name="egrave" unicode="&#xe8;" horiz-adv-x="402" 
d="M232 549q-53 67 -53 82t21 22t31 7t16 -18q25 -80 42 -113t17 -37q0 -10 -10.5 -10t-63.5 67zM66.5 30q-34.5 42 -34.5 111t30 131t84.5 113t137.5 51q36 0 61.5 -21t25.5 -49.5t-12 -51t-30 -37.5q-32 -27 -55 -36q-58 -26 -157 -27q-17 0 -17 -49.5t36 -83t108 -33.5
q42 0 90 32q15 11 18 11q12 0 12 -10q0 -21 -57.5 -57t-116.5 -36q-89 0 -123.5 42zM130.5 301q-16.5 -37 -16.5 -53.5t9 -16.5q71 0 125 40t54 88q0 25 -17.5 36t-35.5 11q-37 0 -82 -47q-20 -21 -36.5 -58z" />
    <glyph glyph-name="eacute" unicode="&#xe9;" horiz-adv-x="402" 
d="M245 508.5q10 12.5 20 26.5q22 33 61 107q9 18 20 18t29 -6.5t18 -16.5q0 -16 -69 -85.5t-79 -69.5t-10 7t10 19.5zM66.5 30q-34.5 42 -34.5 111t30 131t84.5 113t137.5 51q36 0 61.5 -21t25.5 -49.5t-12 -51t-30 -37.5q-32 -27 -55 -36q-58 -26 -157 -27
q-17 0 -17 -49.5t36 -83t108 -33.5q42 0 90 32q15 11 18 11q12 0 12 -10q0 -21 -57.5 -57t-116.5 -36q-89 0 -123.5 42zM130.5 301q-16.5 -37 -16.5 -53.5t9 -16.5q71 0 125 40t54 88q0 25 -17.5 36t-35.5 11q-37 0 -82 -47q-20 -21 -36.5 -58z" />
    <glyph glyph-name="ecircumflex" unicode="&#xea;" horiz-adv-x="402" 
d="M223.5 537q-48.5 -42 -55 -42t-6.5 2.5t10 15.5t23.5 31t22.5 30.5t16.5 23.5t11.5 18t8 13l6 9q5 8 12 8h26q10 0 14 -10q14 -30 33 -63q38 -69 38 -74t-8 -5t-49.5 42.5t-47.5 42.5t-54.5 -42zM66.5 30q-34.5 42 -34.5 111t30 131t84.5 113t137.5 51q36 0 61.5 -21
t25.5 -49.5t-12 -51t-30 -37.5q-32 -27 -55 -36q-58 -26 -157 -27q-17 0 -17 -49.5t36 -83t108 -33.5q42 0 90 32q15 11 18 11q12 0 12 -10q0 -21 -57.5 -57t-116.5 -36q-89 0 -123.5 42zM130.5 301q-16.5 -37 -16.5 -53.5t9 -16.5q71 0 125 40t54 88q0 25 -17.5 36
t-35.5 11q-37 0 -82 -47q-20 -21 -36.5 -58z" />
    <glyph glyph-name="edieresis" unicode="&#xeb;" horiz-adv-x="402" 
d="M183 557q-13 17 -13 30.5t17.5 33t32 19.5t27.5 -16t13 -31t-19 -34t-27 -19q-18 0 -31 17zM337 557q-13 17 -13 30.5t18 33t32.5 19.5t27.5 -16t13 -31t-19.5 -34t-27.5 -19q-18 0 -31 17zM66.5 30q-34.5 42 -34.5 111t30 131t84.5 113t137.5 51q36 0 61.5 -21
t25.5 -49.5t-12 -51t-30 -37.5q-32 -27 -55 -36q-58 -26 -157 -27q-17 0 -17 -49.5t36 -83t108 -33.5q42 0 90 32q15 11 18 11q12 0 12 -10q0 -21 -57.5 -57t-116.5 -36q-89 0 -123.5 42zM130.5 301q-16.5 -37 -16.5 -53.5t9 -16.5q71 0 125 40t54 88q0 25 -17.5 36
t-35.5 11q-37 0 -82 -47q-20 -21 -36.5 -58z" />
    <glyph glyph-name="igrave" unicode="&#xec;" horiz-adv-x="250" 
d="M91 549q-53 67 -53 82t21 22t31 7t16 -18q25 -80 42 -113t17 -37q0 -10 -10.5 -10t-63.5 67zM79 383l-45 1q-14 0 -14 12q0 14 23 14h10q18 0 50.5 4.5t63.5 4.5q14 0 14 -11q0 -13 -11.5 -52t-15.5 -64q-30 -189 -30 -199t6 -18.5t14 -8.5q20 0 38.5 26t23.5 26
q10 0 10 -10t-10 -30t-19 -29q-55 -59 -92 -59t-37 83q0 40 22.5 151.5t22.5 130.5t-5 23.5t-19 4.5z" />
    <glyph glyph-name="iacute" unicode="&#xed;" horiz-adv-x="250" 
d="M104 508.5q10 12.5 20 26.5q22 33 61 107q9 18 20 18t29 -6.5t18 -16.5q0 -16 -69 -85.5t-79 -69.5t-10 7t10 19.5zM79 383l-45 1q-14 0 -14 12q0 14 23 14h10q18 0 50.5 4.5t63.5 4.5q14 0 14 -11q0 -13 -11.5 -52t-15.5 -64q-30 -189 -30 -199t6 -18.5t14 -8.5
q20 0 38.5 26t23.5 26q10 0 10 -10t-10 -30t-19 -29q-55 -59 -92 -59t-37 83q0 40 22.5 151.5t22.5 130.5t-5 23.5t-19 4.5z" />
    <glyph glyph-name="icircumflex" unicode="&#xee;" horiz-adv-x="250" 
d="M82.5 537q-48.5 -42 -55 -42t-6.5 2.5t10 15.5t23.5 31t22.5 30.5t16.5 23.5t11.5 18t8 13l6 9q5 8 12 8h26q10 0 14 -10q14 -30 33 -63q38 -69 38 -74t-8 -5t-49.5 42.5t-47.5 42.5t-54.5 -42zM79 383l-45 1q-14 0 -14 12q0 14 23 14h10q18 0 50.5 4.5t63.5 4.5
q14 0 14 -11q0 -13 -11.5 -52t-15.5 -64q-30 -189 -30 -199t6 -18.5t14 -8.5q20 0 38.5 26t23.5 26q10 0 10 -10t-10 -30t-19 -29q-55 -59 -92 -59t-37 83q0 40 22.5 151.5t22.5 130.5t-5 23.5t-19 4.5z" />
    <glyph glyph-name="idieresis" unicode="&#xef;" horiz-adv-x="250" 
d="M42 557q-13 17 -13 30.5t17.5 33t32 19.5t27.5 -16t13 -31t-19 -34t-27 -19q-18 0 -31 17zM196 557q-13 17 -13 30.5t18 33t32.5 19.5t27.5 -16t13 -31t-19.5 -34t-27.5 -19q-18 0 -31 17zM79 383l-45 1q-14 0 -14 12q0 14 23 14h10q18 0 50.5 4.5t63.5 4.5q14 0 14 -11
q0 -13 -11.5 -52t-15.5 -64q-30 -189 -30 -199t6 -18.5t14 -8.5q20 0 38.5 26t23.5 26q10 0 10 -10t-10 -30t-19 -29q-55 -59 -92 -59t-37 83q0 40 22.5 151.5t22.5 130.5t-5 23.5t-19 4.5z" />
    <glyph glyph-name="eth" unicode="&#xf0;" horiz-adv-x="453" 
d="M76 36q-44 46 -44 140.5t64.5 176.5t171.5 82q53 0 90 -32q-7 60 -39 131q-12 27 -14 27t-4 -0.5t-4 -1.5t-5.5 -3t-7.5 -3l-60 -22q-57 -22 -64 -22t-12.5 13t-5.5 21q0 4 71.5 29t71.5 27t-6 11q-29 46 -67 76q-17 12 -28 17q-23 11 -23 22.5t35 11.5q21 0 57.5 -27.5
t67.5 -73.5q13 -19 14 -19t3.5 1t7 3t9.5 4l60 22q33 12 44 17l1 1q6 0 13.5 -11.5t7.5 -23.5q0 -6 -41 -20l-60 -21q-25 -9 -25 -12l7 -15q37 -78 52 -176q7 -45 7 -105t-25 -128.5t-80 -115.5t-125.5 -47t-114.5 46zM181 371.5q-35 -33.5 -53.5 -97.5t-18.5 -121t24.5 -95
t62.5 -38t67.5 27t44.5 67q32 83 32 153t-24.5 104t-62 34t-72.5 -33.5z" />
    <glyph glyph-name="ntilde" unicode="&#xf1;" horiz-adv-x="526" 
d="M181.5 538q-9.5 -14 -16.5 -14t-7 13t40 54.5t65 41.5t61 -24t56.5 -24t33.5 14t22 28t15 14q9 0 9 -14.5t-39.5 -54t-65.5 -39.5t-63 24t-55.5 24t-32 -14.5t-23 -28.5zM61.5 330q-18.5 -28 -28 -28t-9.5 24.5t35 66.5t62 42t36 -26.5t9 -52.5t2 -26t6 6q20 26 44 44
q73 57 122 57q84 0 84 -125q0 -40 -8.5 -119t-8.5 -91q0 -36 19 -36q18 0 40 22q3 3 7.5 10t6.5 10q8 7 17 7t9 -12q0 -29 -49.5 -69t-82.5 -40q-15 0 -26 18.5t-11 53t10.5 129.5t10.5 109t-3 29.5t-20.5 34t-49 18.5t-62.5 -44q-14 -20 -20 -29t-11 -24.5t-6 -24.5
q-8 -45 -17.5 -97.5t-14 -82t-5 -38t-1 -14t-1.5 -14.5q-2 -20 -30 -20t-34.5 5t-6.5 24t22 126t22 140.5t-7.5 49t-15.5 15.5q-17 0 -35.5 -28z" />
    <glyph glyph-name="ograve" unicode="&#xf2;" horiz-adv-x="446" 
d="M227 549q-53 67 -53 82t21 22t31 7t16 -18q25 -80 42 -113t17 -37q0 -10 -10.5 -10t-63.5 67zM75.5 36q-43.5 46 -43.5 140.5t64.5 176.5t171.5 82q71 0 108.5 -50.5t37.5 -121t-25.5 -130.5t-79.5 -101.5t-122 -41.5t-111.5 46zM181 371.5q-35 -33.5 -53.5 -97.5
t-18.5 -121t24.5 -95t62.5 -38t67.5 27t44.5 67q32 83 32 153t-24.5 104t-62 34t-72.5 -33.5z" />
    <glyph glyph-name="oacute" unicode="&#xf3;" horiz-adv-x="446" 
d="M240 508.5q10 12.5 20 26.5q22 33 61 107q9 18 20 18t29 -6.5t18 -16.5q0 -16 -69 -85.5t-79 -69.5t-10 7t10 19.5zM75.5 36q-43.5 46 -43.5 140.5t64.5 176.5t171.5 82q71 0 108.5 -50.5t37.5 -121t-25.5 -130.5t-79.5 -101.5t-122 -41.5t-111.5 46zM181 371.5
q-35 -33.5 -53.5 -97.5t-18.5 -121t24.5 -95t62.5 -38t67.5 27t44.5 67q32 83 32 153t-24.5 104t-62 34t-72.5 -33.5z" />
    <glyph glyph-name="ocircumflex" unicode="&#xf4;" horiz-adv-x="446" 
d="M218.5 537q-48.5 -42 -55 -42t-6.5 2.5t10 15.5t23.5 31t22.5 30.5t16.5 23.5t11.5 18t8 13l6 9q5 8 12 8h26q10 0 14 -10q14 -30 33 -63q38 -69 38 -74t-8 -5t-49.5 42.5t-47.5 42.5t-54.5 -42zM75.5 36q-43.5 46 -43.5 140.5t64.5 176.5t171.5 82q71 0 108.5 -50.5
t37.5 -121t-25.5 -130.5t-79.5 -101.5t-122 -41.5t-111.5 46zM181 371.5q-35 -33.5 -53.5 -97.5t-18.5 -121t24.5 -95t62.5 -38t67.5 27t44.5 67q32 83 32 153t-24.5 104t-62 34t-72.5 -33.5z" />
    <glyph glyph-name="otilde" unicode="&#xf5;" horiz-adv-x="446" 
d="M147.5 538q-9.5 -14 -16.5 -14t-7 13t40 54.5t65 41.5t61 -24t56.5 -24t33.5 14t22 28t15 14q9 0 9 -14.5t-39.5 -54t-65.5 -39.5t-63 24t-55.5 24t-32 -14.5t-23 -28.5zM75.5 36q-43.5 46 -43.5 140.5t64.5 176.5t171.5 82q71 0 108.5 -50.5t37.5 -121t-25.5 -130.5
t-79.5 -101.5t-122 -41.5t-111.5 46zM181 371.5q-35 -33.5 -53.5 -97.5t-18.5 -121t24.5 -95t62.5 -38t67.5 27t44.5 67q32 83 32 153t-24.5 104t-62 34t-72.5 -33.5z" />
    <glyph glyph-name="odieresis" unicode="&#xf6;" horiz-adv-x="446" 
d="M178 557q-13 17 -13 30.5t17.5 33t32 19.5t27.5 -16t13 -31t-19 -34t-27 -19q-18 0 -31 17zM332 557q-13 17 -13 30.5t18 33t32.5 19.5t27.5 -16t13 -31t-19.5 -34t-27.5 -19q-18 0 -31 17zM75.5 36q-43.5 46 -43.5 140.5t64.5 176.5t171.5 82q71 0 108.5 -50.5
t37.5 -121t-25.5 -130.5t-79.5 -101.5t-122 -41.5t-111.5 46zM181 371.5q-35 -33.5 -53.5 -97.5t-18.5 -121t24.5 -95t62.5 -38t67.5 27t44.5 67q32 83 32 153t-24.5 104t-62 34t-72.5 -33.5z" />
    <glyph glyph-name="divide" unicode="&#xf7;" horiz-adv-x="508" 
d="M202 320q0 16 12.5 28.5t29.5 12.5t29 -12t12 -28.5t-12.5 -28.5t-29 -12t-29 12t-12.5 28zM208 101q0 17 12 28.5t28.5 11.5t29 -12.5t12.5 -28.5t-12 -28t-29 -12t-29 12t-12 29zM24 193q-3 5 -3 16t1 15q2 8 18 8h430q14 0 16 -8v-15.5t-3 -16t-18 -4.5h-426
q-12 0 -15 5z" />
    <glyph glyph-name="oslash" unicode="&#xf8;" horiz-adv-x="446" 
d="M268 435q19 0 51 -9q1 0 7 11l30 52q5 9 12 9t18 -5.5t11 -13t-14 -30.5l-25 -45q56 -56 56 -146q0 -65 -25.5 -125t-79 -101.5t-123.5 -41.5q-30 0 -42 4q-13 6 -18 7l-35 -59q-14 -25 -20 -25t-18 7t-12 12.5t2 9.5l28 48q16 28 16 29t-5.5 7t-13.5 16.5t-16 25.5
q-20 34 -20 97q0 102 64.5 184t171.5 82zM181 371.5q-35 -33.5 -53.5 -97.5t-18.5 -94t3 -52q7 -48 11 -48q8 16 16 30l150 262q9 14 9 16t-6 6q-15 11 -38 11q-38 0 -73 -33.5zM149 42q0 -7 16 -14.5t31 -7.5q38 0 67.5 27t44.5 67q32 83 32 156q0 43 -6 61t-7 18t-5 -7
l-156 -270q-17 -29 -17 -30z" />
    <glyph glyph-name="ugrave" unicode="&#xf9;" horiz-adv-x="525" 
d="M234 549q-53 67 -53 82t21 22t31 7t16 -18q25 -80 42 -113t17 -37q0 -10 -10.5 -10t-63.5 67zM20 294q0 38 33.5 86t79.5 48q16 0 25 -17q13 -22 13 -61.5t-18.5 -137t-18.5 -121.5t6 -31.5t11.5 -7.5t11 1.5t11.5 5t11 7.5t12.5 11t12 12t13 14.5t13.5 15.5l30 36
q71 86 116 259q4 16 33 16t29 -22q0 -10 -30.5 -151t-30.5 -167t22 -26q42 0 69 56q9 18 17 18q14 0 14 -24t-47 -73.5t-109 -49.5q-30 0 -30 54q0 50 9 100t9 56.5t-3.5 6.5t-7.5 -6.5t-13 -23t-22 -34.5q-109 -155 -192 -155q-34 0 -34 62t22.5 159t22.5 120t-20 23
q-7 0 -21 -17.5t-22 -36t-17.5 -18.5t-9.5 13z" />
    <glyph glyph-name="uacute" unicode="&#xfa;" horiz-adv-x="525" 
d="M247 508.5q10 12.5 20 26.5q22 33 61 107q9 18 20 18t29 -6.5t18 -16.5q0 -16 -69 -85.5t-79 -69.5t-10 7t10 19.5zM20 294q0 38 33.5 86t79.5 48q16 0 25 -17q13 -22 13 -61.5t-18.5 -137t-18.5 -121.5t6 -31.5t11.5 -7.5t11 1.5t11.5 5t11 7.5t12.5 11t12 12t13 14.5
t13.5 15.5l30 36q71 86 116 259q4 16 33 16t29 -22q0 -10 -30.5 -151t-30.5 -167t22 -26q42 0 69 56q9 18 17 18q14 0 14 -24t-47 -73.5t-109 -49.5q-30 0 -30 54q0 50 9 100t9 56.5t-3.5 6.5t-7.5 -6.5t-13 -23t-22 -34.5q-109 -155 -192 -155q-34 0 -34 62t22.5 159
t22.5 120t-20 23q-7 0 -21 -17.5t-22 -36t-17.5 -18.5t-9.5 13z" />
    <glyph glyph-name="ucircumflex" unicode="&#xfb;" horiz-adv-x="525" 
d="M225.5 537q-48.5 -42 -55 -42t-6.5 2.5t10 15.5t23.5 31t22.5 30.5t16.5 23.5t11.5 18t8 13l6 9q5 8 12 8h26q10 0 14 -10q14 -30 33 -63q38 -69 38 -74t-8 -5t-49.5 42.5t-47.5 42.5t-54.5 -42zM20 294q0 38 33.5 86t79.5 48q16 0 25 -17q13 -22 13 -61.5t-18.5 -137
t-18.5 -121.5t6 -31.5t11.5 -7.5t11 1.5t11.5 5t11 7.5t12.5 11t12 12t13 14.5t13.5 15.5l30 36q71 86 116 259q4 16 33 16t29 -22q0 -10 -30.5 -151t-30.5 -167t22 -26q42 0 69 56q9 18 17 18q14 0 14 -24t-47 -73.5t-109 -49.5q-30 0 -30 54q0 50 9 100t9 56.5t-3.5 6.5
t-7.5 -6.5t-13 -23t-22 -34.5q-109 -155 -192 -155q-34 0 -34 62t22.5 159t22.5 120t-20 23q-7 0 -21 -17.5t-22 -36t-17.5 -18.5t-9.5 13z" />
    <glyph glyph-name="udieresis" unicode="&#xfc;" horiz-adv-x="525" 
d="M185 557q-13 17 -13 30.5t17.5 33t32 19.5t27.5 -16t13 -31t-19 -34t-27 -19q-18 0 -31 17zM339 557q-13 17 -13 30.5t18 33t32.5 19.5t27.5 -16t13 -31t-19.5 -34t-27.5 -19q-18 0 -31 17zM20 294q0 38 33.5 86t79.5 48q16 0 25 -17q13 -22 13 -61.5t-18.5 -137
t-18.5 -121.5t6 -31.5t11.5 -7.5t11 1.5t11.5 5t11 7.5t12.5 11t12 12t13 14.5t13.5 15.5l30 36q71 86 116 259q4 16 33 16t29 -22q0 -10 -30.5 -151t-30.5 -167t22 -26q42 0 69 56q9 18 17 18q14 0 14 -24t-47 -73.5t-109 -49.5q-30 0 -30 54q0 50 9 100t9 56.5t-3.5 6.5
t-7.5 -6.5t-13 -23t-22 -34.5q-109 -155 -192 -155q-34 0 -34 62t22.5 159t22.5 120t-20 23q-7 0 -21 -17.5t-22 -36t-17.5 -18.5t-9.5 13z" />
    <glyph glyph-name="yacute" unicode="&#xfd;" horiz-adv-x="407" 
d="M197 508.5q10 12.5 20 26.5q22 33 61 107q9 18 20 18t29 -6.5t18 -16.5q0 -16 -69 -85.5t-79 -69.5t-10 7t10 19.5zM7 -125q0 13 9.5 23t25.5 10t38 -16.5t46 -16.5q39 0 81.5 65.5t42.5 107.5t-63.5 174.5t-99.5 132.5q-25 0 -35.5 -18.5t-15 -37.5t-16.5 -19
q-10 0 -10 23.5t7 51t26.5 52t50 24.5t68 -44.5t63.5 -97.5t46 -97.5t23 -44.5q10 0 23 62t13 112q0 15 -12.5 39t-12.5 38t8.5 25t25.5 11t28 -15t11 -47.5t-21.5 -127t-61.5 -195.5q-92 -233 -205 -233q-83 0 -83 59z" />
    <glyph glyph-name="thorn" unicode="&#xfe;" horiz-adv-x="488" 
d="M83 -195l-54 -1h-9q-17 0 -17 13.5t20.5 22.5t23.5 18l69 514q0 5 -3 5q-5 0 -25 -9t-26 -9q-13 0 -13 12v4q0 9 6.5 12.5t27.5 11t24.5 8.5t5.5 3t4 3t3 3.5t2 3.5q2 2 2 10l1 12q5 40 15 100q21 134 21 143q0 20 -25 20l-30 -2q-16 0 -22 2t-6 10q0 13 15 14
q64 5 91.5 15t33.5 10q16 0 16 -18v-4t-0.5 -4t-1.5 -7t-2 -11.5t-3.5 -19t-5 -28t-6.5 -39.5t-15 -101.5t-11 -87t5 -9.5l85 3q177 0 177 -134q0 -83 -39 -149q-8 -16 -13 -23t-10 -15.5t-8.5 -13t-10 -12t-12.5 -13.5q-75 -68 -165 -68l-54 4q-9 0 -12 -5q-3 -7 -6 -36.5
t-6 -46.5q-6 -36 -6 -45q0 -22 21 -30.5t41.5 -11.5t20.5 -12q0 -13 -14 -13zM215 403l-24 -3q-8 0 -17 -77l-13 -111q-20 -150 -20 -157.5t4 -12.5t18 -10t35 -5q71 0 128 78.5t57 151.5q0 39 -14.5 67.5t-34 43t-45.5 22.5q-38 13 -74 13z" />
    <glyph glyph-name="ydieresis" unicode="&#xff;" horiz-adv-x="407" 
d="M135 557q-13 17 -13 30.5t17.5 33t32 19.5t27.5 -16t13 -31t-19 -34t-27 -19q-18 0 -31 17zM289 557q-13 17 -13 30.5t18 33t32.5 19.5t27.5 -16t13 -31t-19.5 -34t-27.5 -19q-18 0 -31 17zM7 -125q0 13 9.5 23t25.5 10t38 -16.5t46 -16.5q39 0 81.5 65.5t42.5 107.5
t-63.5 174.5t-99.5 132.5q-25 0 -35.5 -18.5t-15 -37.5t-16.5 -19q-10 0 -10 23.5t7 51t26.5 52t50 24.5t68 -44.5t63.5 -97.5t46 -97.5t23 -44.5q10 0 23 62t13 112q0 15 -12.5 39t-12.5 38t8.5 25t25.5 11t28 -15t11 -47.5t-21.5 -127t-61.5 -195.5q-92 -233 -205 -233
q-83 0 -83 59z" />
    <glyph glyph-name="Amacron" unicode="&#x100;" horiz-adv-x="771" 
d="M561 827l-188 1q-8 0 -8 17q0 27 20 27l180 -2q8 0 10.5 -2.5t2.5 -11.5q0 -29 -17 -29zM115 0l-75 -2q-20 0 -20 11q0 13 25 21q30 12 45 35q24 39 40 69t34 62t46 83.5t60 108.5q178 320 184 325t14 5t11.5 -7t11.5 -35t11 -39l9 -33q18 -66 86.5 -275.5t80 -240
t20.5 -41t38 -19.5q16 -5 16 -20q0 -10 -31 -10l-65 3l-93 -5q-27 0 -27 10t10.5 16t22.5 8t22.5 11t10.5 25t-8 47.5t-19 67.5t-15 53q-6 24 -36 24l-121 -1q-76 0 -101 1.5t-33 1.5q-27 0 -35 -15q-56 -99 -70.5 -136t-14.5 -40q0 -25 17 -33.5t34 -11t17 -12.5
q0 -14 -9 -14h-6zM321 304l191 1q14 0 16 7v11.5t-43.5 140.5t-52.5 132q-5 0 -83 -140t-78 -146t19 -6h31z" />
    <glyph glyph-name="amacron" unicode="&#x101;" horiz-adv-x="518" 
d="M391 563l-188 1q-8 0 -8 17q0 27 20 27l180 -2q8 0 10.5 -2.5t2.5 -11.5q0 -29 -17 -29zM53.5 19.5q-21.5 34.5 -21.5 101t58 158.5t133 128q37 18 62.5 18t52 -5.5t40 -5.5t29.5 24.5t26.5 24.5t10.5 -12t-8.5 -36t-10.5 -32t-22 -119.5t-20 -136.5t10 -44t26 -19
t39.5 32.5t32 32.5t8.5 -14.5t-19.5 -42.5t-48 -53.5t-52 -25.5t-37.5 28t-16.5 56t-3.5 28t-11.5 -12.5t-28 -30t-38.5 -34.5q-53 -43 -111 -43t-79.5 34.5zM107 174q-5 -30 -5 -60t22.5 -52t62 -22t74 31.5t46.5 55.5t25 83q27 130 27 151.5t-22 30t-49 8.5t-62 -22
t-57 -59q-52 -86 -62 -145z" />
    <glyph glyph-name="Abreve" unicode="&#x102;" horiz-adv-x="771" 
d="M368 872q0 19 5 19h11q3 0 7 -11t10.5 -24t26.5 -24t49.5 -11t50.5 11t30 24t15.5 24t9.5 11h7q7 0 7 -2q0 -20 -29 -67q-14 -22 -40.5 -38t-66 -16t-66.5 31.5t-27 72.5zM115 0l-75 -2q-20 0 -20 11q0 13 25 21q30 12 45 35q24 39 40 69t34 62t46 83.5t60 108.5
q178 320 184 325t14 5t11.5 -7t11.5 -35t11 -39l9 -33q18 -66 86.5 -275.5t80 -240t20.5 -41t38 -19.5q16 -5 16 -20q0 -10 -31 -10l-65 3l-93 -5q-27 0 -27 10t10.5 16t22.5 8t22.5 11t10.5 25t-8 47.5t-19 67.5t-15 53q-6 24 -36 24l-121 -1q-76 0 -101 1.5t-33 1.5
q-27 0 -35 -15q-56 -99 -70.5 -136t-14.5 -40q0 -25 17 -33.5t34 -11t17 -12.5q0 -14 -9 -14h-6zM321 304l191 1q14 0 16 7v11.5t-43.5 140.5t-52.5 132q-5 0 -83 -140t-78 -146t19 -6h31z" />
    <glyph glyph-name="abreve" unicode="&#x103;" horiz-adv-x="518" 
d="M198 608q0 19 5 19h11q3 0 7 -11t10.5 -24t26.5 -24t49.5 -11t50.5 11t30 24t15.5 24t9.5 11h7q7 0 7 -2q0 -20 -29 -67q-14 -22 -40.5 -38t-66 -16t-66.5 31.5t-27 72.5zM53.5 19.5q-21.5 34.5 -21.5 101t58 158.5t133 128q37 18 62.5 18t52 -5.5t40 -5.5t29.5 24.5
t26.5 24.5t10.5 -12t-8.5 -36t-10.5 -32t-22 -119.5t-20 -136.5t10 -44t26 -19t39.5 32.5t32 32.5t8.5 -14.5t-19.5 -42.5t-48 -53.5t-52 -25.5t-37.5 28t-16.5 56t-3.5 28t-11.5 -12.5t-28 -30t-38.5 -34.5q-53 -43 -111 -43t-79.5 34.5zM107 174q-5 -30 -5 -60t22.5 -52
t62 -22t74 31.5t46.5 55.5t25 83q27 130 27 151.5t-22 30t-49 8.5t-62 -22t-57 -59q-52 -86 -62 -145z" />
    <glyph glyph-name="Aogonek" unicode="&#x104;" horiz-adv-x="771" 
d="M115 0l-75 -2q-20 0 -20 11q0 13 25 21q30 12 45 35q24 39 40 69t34 62t46 83.5t60 108.5q178 320 184 325t14 5t11 -6.5t16 -52.5t32.5 -111t79 -247t71 -212.5t20.5 -41t38 -19.5q16 -5 16 -20q0 -10 -31 -10l-43 2q-64 0 -109 -28.5t-45 -60.5t15 -50t32.5 -18
t33.5 13t19.5 13t3.5 -10.5t-28 -32t-59 -21.5q-75 0 -75 66q0 51 59 96q36 22 48 32q29 28 29 65q0 35 -19 93.5t-23 76.5q-6 24 -36 24l-121 -1q-76 0 -101 1.5t-33 1.5q-27 0 -35 -15q-56 -99 -70.5 -136t-14.5 -40q0 -25 17 -33.5t34 -11t17 -12.5q0 -14 -9 -14h-6z
M321 304l191 1q14 0 16 7v11.5t-43.5 140.5t-52.5 132q-5 0 -83 -140t-78 -146t19 -6h31z" />
    <glyph glyph-name="aogonek" unicode="&#x105;" horiz-adv-x="518" 
d="M32 114q0 60 36.5 132t99.5 125.5t128 53.5q15 0 41.5 -5.5t40 -5.5t29.5 24.5t26.5 24.5t10.5 -12t-8.5 -36t-11.5 -36q-41 -208 -41 -242.5t10 -53.5t26 -19t39.5 32.5t32 32.5t8.5 -11q0 -42 -72 -103q-11 -9 -46 -27.5t-57 -38t-22 -45t15 -43.5t32.5 -18t33.5 13
t19.5 13t3.5 -10.5t-28.5 -32t-59.5 -21.5q-74 0 -74 66q0 27 15.5 50.5t34.5 36.5q49 35 49 51q0 9 -5 20.5t-8 29.5l-8 46q-1 0 -11.5 -12.5t-28 -30t-38.5 -34.5q-53 -43 -111 -43t-79.5 34.5t-21.5 94.5zM118.5 218.5q-16.5 -44.5 -16.5 -89.5t22.5 -67t62 -22t74 31.5
t46.5 55.5t25 83q27 130 27 151.5t-22 30t-49 8.5t-62 -22t-63 -68.5t-44.5 -91z" />
    <glyph glyph-name="Cacute" unicode="&#x106;" horiz-adv-x="762" 
d="M415 772.5q10 12.5 20 26.5q22 33 61 107q9 18 20 18t29 -6.5t18 -16.5q0 -16 -69 -85.5t-79 -69.5t-10 7t10 19.5zM59.5 187q-20.5 59 -20.5 129t24 139.5t70.5 127.5t122.5 92.5t172 34.5q61 0 119 -19t91 -38l32 -19q3 0 10.5 8t11.5 8q12 0 12 -16q0 -88 4.5 -115
t4.5 -34q0 -24 -14 -24q-7 0 -12 8t-12.5 29.5t-15.5 41.5q-16 41 -59 70q-91 62 -184.5 62t-161 -50.5t-99 -126t-31.5 -161.5q0 -147 81 -233.5t199.5 -86.5t209.5 103q12 13 22 34.5t17 34t16 12.5q16 0 16 -18q0 -13 -7.5 -34t-10.5 -31.5t-6.5 -27.5t-6 -23.5
t-9.5 -10.5q-145 -76 -267 -76q-84 0 -150.5 28t-107 75.5t-61 106.5z" />
    <glyph glyph-name="cacute" unicode="&#x107;" horiz-adv-x="418" 
d="M229 508.5q10 12.5 20 26.5q22 33 61 107q9 18 20 18t29 -6.5t18 -16.5q0 -16 -69 -85.5t-79 -69.5t-10 7t10 19.5zM32 149q0 107 75.5 197t178.5 90q37 0 76 -28q24 -18 24 -38.5t-10 -32.5t-23.5 -12t-27 11.5t-23.5 24.5t-28.5 24.5t-34.5 11.5q-34 0 -73 -35
q-29 -26 -47.5 -74t-18.5 -89q0 -153 118 -153q36 0 65.5 13.5t46 27t22.5 13.5q13 0 13 -13q0 -9 -21 -31.5t-66 -45t-95 -22.5q-151 0 -151 161z" />
    <glyph glyph-name="Ccircumflex" unicode="&#x108;" horiz-adv-x="762" 
d="M393.5 801q-48.5 -42 -55 -42t-6.5 2.5t10 15.5t23.5 31t22.5 30.5t16.5 23.5t11.5 18t8 13l6 9q5 8 12 8h26q10 0 14 -10q14 -30 33 -63q38 -69 38 -74t-8 -5t-49.5 42.5t-47.5 42.5t-54.5 -42zM59.5 187q-20.5 59 -20.5 129t24 139.5t70.5 127.5t122.5 92.5t172 34.5
q61 0 119 -19t91 -38l32 -19q3 0 10.5 8t11.5 8q12 0 12 -16q0 -88 4.5 -115t4.5 -34q0 -24 -14 -24q-7 0 -12 8t-12.5 29.5t-15.5 41.5q-16 41 -59 70q-91 62 -184.5 62t-161 -50.5t-99 -126t-31.5 -161.5q0 -147 81 -233.5t199.5 -86.5t209.5 103q12 13 22 34.5t17 34
t16 12.5q16 0 16 -18q0 -13 -7.5 -34t-10.5 -31.5t-6.5 -27.5t-6 -23.5t-9.5 -10.5q-145 -76 -267 -76q-84 0 -150.5 28t-107 75.5t-61 106.5z" />
    <glyph glyph-name="ccircumflex" unicode="&#x109;" horiz-adv-x="418" 
d="M207.5 537q-48.5 -42 -55 -42t-6.5 2.5t10 15.5t23.5 31t22.5 30.5t16.5 23.5t11.5 18t8 13l6 9q5 8 12 8h26q10 0 14 -10q14 -30 33 -63q38 -69 38 -74t-8 -5t-49.5 42.5t-47.5 42.5t-54.5 -42zM32 149q0 107 75.5 197t178.5 90q37 0 76 -28q24 -18 24 -38.5t-10 -32.5
t-23.5 -12t-27 11.5t-23.5 24.5t-28.5 24.5t-34.5 11.5q-34 0 -73 -35q-29 -26 -47.5 -74t-18.5 -89q0 -153 118 -153q36 0 65.5 13.5t46 27t22.5 13.5q13 0 13 -13q0 -9 -21 -31.5t-66 -45t-95 -22.5q-151 0 -151 161z" />
    <glyph glyph-name="Cdotaccent" unicode="&#x10a;" horiz-adv-x="762" 
d="M423.5 824q-16.5 22 -16.5 31.5t19 32t32.5 22.5t25.5 -19.5t12 -34t-18 -34.5t-28 -20t-26.5 22zM59.5 187q-20.5 59 -20.5 129t24 139.5t70.5 127.5t122.5 92.5t172 34.5q61 0 119 -19t91 -38l32 -19q3 0 10.5 8t11.5 8q12 0 12 -16q0 -88 4.5 -115t4.5 -34
q0 -24 -14 -24q-7 0 -12 8t-12.5 29.5t-15.5 41.5q-16 41 -59 70q-91 62 -184.5 62t-161 -50.5t-99 -126t-31.5 -161.5q0 -147 81 -233.5t199.5 -86.5t209.5 103q12 13 22 34.5t17 34t16 12.5q16 0 16 -18q0 -13 -7.5 -34t-10.5 -31.5t-6.5 -27.5t-6 -23.5t-9.5 -10.5
q-145 -76 -267 -76q-84 0 -150.5 28t-107 75.5t-61 106.5z" />
    <glyph glyph-name="cdotaccent" unicode="&#x10b;" horiz-adv-x="418" 
d="M237.5 560q-16.5 22 -16.5 31.5t19 32t32.5 22.5t25.5 -19.5t12 -34t-18 -34.5t-28 -20t-26.5 22zM32 149q0 107 75.5 197t178.5 90q37 0 76 -28q24 -18 24 -38.5t-10 -32.5t-23.5 -12t-27 11.5t-23.5 24.5t-28.5 24.5t-34.5 11.5q-34 0 -73 -35q-29 -26 -47.5 -74
t-18.5 -89q0 -153 118 -153q36 0 65.5 13.5t46 27t22.5 13.5q13 0 13 -13q0 -9 -21 -31.5t-66 -45t-95 -22.5q-151 0 -151 161z" />
    <glyph glyph-name="Ccaron" unicode="&#x10c;" horiz-adv-x="762" 
d="M346 904.5q0 5.5 7 5.5h2q6 0 47.5 -42.5t47.5 -42.5t34 24.5t38.5 34.5t14.5 14q11 11 19.5 11t8.5 -4.5t-9 -16t-22.5 -29.5t-22.5 -30.5t-16.5 -23.5t-11.5 -17.5t-8 -12.5l-6 -9q-5 -8 -12 -8h-26q-10 0 -14 10q-15 32 -43 81.5t-28 55zM59.5 187q-20.5 59 -20.5 129
t24 139.5t70.5 127.5t122.5 92.5t172 34.5q61 0 119 -19t91 -38l32 -19q3 0 10.5 8t11.5 8q12 0 12 -16q0 -88 4.5 -115t4.5 -34q0 -24 -14 -24q-7 0 -12 8t-12.5 29.5t-15.5 41.5q-16 41 -59 70q-91 62 -184.5 62t-161 -50.5t-99 -126t-31.5 -161.5q0 -147 81 -233.5
t199.5 -86.5t209.5 103q12 13 22 34.5t17 34t16 12.5q16 0 16 -18q0 -13 -7.5 -34t-10.5 -31.5t-6.5 -27.5t-6 -23.5t-9.5 -10.5q-145 -76 -267 -76q-84 0 -150.5 28t-107 75.5t-61 106.5z" />
    <glyph glyph-name="ccaron" unicode="&#x10d;" horiz-adv-x="418" 
d="M160 640.5q0 5.5 7 5.5h2q6 0 47.5 -42.5t47.5 -42.5t34 24.5t38.5 34.5t14.5 14q11 11 19.5 11t8.5 -4.5t-9 -16t-22.5 -29.5t-22.5 -30.5t-16.5 -23.5t-11.5 -17.5t-8 -12.5l-6 -9q-5 -8 -12 -8h-26q-10 0 -14 10q-15 32 -43 81.5t-28 55zM32 149q0 107 75.5 197
t178.5 90q37 0 76 -28q24 -18 24 -38.5t-10 -32.5t-23.5 -12t-27 11.5t-23.5 24.5t-28.5 24.5t-34.5 11.5q-34 0 -73 -35q-29 -26 -47.5 -74t-18.5 -89q0 -153 118 -153q36 0 65.5 13.5t46 27t22.5 13.5q13 0 13 -13q0 -9 -21 -31.5t-66 -45t-95 -22.5q-151 0 -151 161z" />
    <glyph glyph-name="Dcaron" unicode="&#x10e;" horiz-adv-x="767" 
d="M320 904.5q0 5.5 7 5.5h2q6 0 47.5 -42.5t47.5 -42.5t34 24.5t38.5 34.5t14.5 14q11 11 19.5 11t8.5 -4.5t-9 -16t-22.5 -29.5t-22.5 -30.5t-16.5 -23.5t-11.5 -17.5t-8 -12.5l-6 -9q-5 -8 -12 -8h-26q-10 0 -14 10q-15 32 -43 81.5t-28 55zM298 0l-155 3q-35 0 -65.5 -4
t-37.5 -4t-13.5 5.5t-6.5 13t8 11t18.5 5t22.5 12t18 30.5t10 44l68 500q2 16 2 18q0 15 -14 27.5t-31 13.5q-46 3 -46 21.5t31 18.5q17 0 46.5 -5.5t54.5 -5.5t69.5 5t86.5 5q190 0 279.5 -79.5t89.5 -204t-78 -244.5q-22 -35 -63.5 -74.5t-67.5 -54.5q-94 -57 -226 -57z
M172 63q0 -10 10 -19.5t38 -9.5h88q44 0 104 21q106 38 168 143q42 71 56 175q5 32 5 61t-7 59.5t-27 64t-51 58t-83.5 40.5t-117 16t-82.5 -8t-29 -47q-7 -32 -39.5 -288t-32.5 -266z" />
    <glyph glyph-name="dcaron" unicode="&#x10f;" horiz-adv-x="495" 
d="M495 717q34 32 48 32q17 0 33 -19.5t16 -39.5q0 -42 -31 -67.5t-49 -25.5q-6 0 -6 4q0 2 10 8q31 19 31 43.5t-13 35.5t-26 17t-13 12zM347 711l-29 -1h-6q-16 0 -16 11q0 8 8.5 11t27 5t30 5t24 6t17 4.5t10.5 3t11 1.5h12q7 0 11.5 -5t4.5 -12t-1.5 -18t-6 -41.5
t-10.5 -72.5q-20 -130 -44.5 -305t-24.5 -199q0 -43 26 -43q31 0 65 47q12 15 18 15q11 0 11 -9q0 -23 -42.5 -72.5t-85.5 -49.5q-24 0 -37 17.5t-15 38.5t-3.5 38.5t-5.5 17.5q-2 0 -15 -17.5t-30.5 -38.5t-48.5 -38.5t-65 -17.5q-61 0 -90.5 36.5t-29.5 96.5
q0 115 79 209.5t170 94.5q13 0 36.5 -6.5t37.5 -6.5q2 0 19 131.5t17 140.5t-8.5 16t-20.5 7zM111 265q-24 -59 -24 -109q0 -106 85 -106q60 0 101 52q26 32 40.5 124t14.5 142q0 19 -21.5 29.5t-45.5 10.5q-44 0 -85 -42t-65 -101z" />
    <glyph glyph-name="Dcroat" unicode="&#x110;" horiz-adv-x="767" 
d="M298 0l-155 3q-35 0 -65.5 -4t-37.5 -4t-13.5 5.5t-6.5 13t8 11t18.5 5t22.5 12t17 26.5q6 18 32 198l7 57q0 9 -3.5 11t-12.5 2h-50q-13 0 -13 22q0 9 3.5 15.5t7.5 6.5l67 -2q8 0 9.5 3.5t3.5 24.5l28 210q2 16 2 18q0 15 -14 27.5t-31 13.5q-46 3 -46 21.5t31 18.5
q17 0 46.5 -5.5t54.5 -5.5t69.5 5t86.5 5q190 0 279.5 -79.5t89.5 -204t-78 -244.5q-22 -35 -63.5 -74.5t-67.5 -54.5q-94 -57 -226 -57zM395 337l-101 -1h-74q-11 0 -13 -2.5t-4 -15.5l-7 -60q-24 -183 -24 -194t10 -20.5t38 -9.5h88q44 0 104 21q106 38 168 143
q42 71 56 175q5 32 5 61t-7 59.5t-27 64t-51 58t-83.5 40.5t-117 16t-82.5 -8t-29 -47q-9 -31 -26 -179l-7 -53q0 -7 13 -7l167 3q12 0 12 -22t-8 -22z" />
    <glyph glyph-name="dcroat" unicode="&#x111;" horiz-adv-x="495" 
d="M446 588l49 1q9 0 11 -3t2 -10q0 -31 -15 -31h-61q-7 0 -8 -3.5t-1 -8.5l-37 -260q-21 -145 -21 -169q0 -43 26 -43q31 0 65 47q12 15 18 15q11 0 11 -9q0 -23 -42.5 -72.5t-85.5 -49.5q-24 0 -37 17.5t-15 38.5t-3.5 38.5t-5.5 17.5q-2 0 -15 -17.5t-30.5 -38.5
t-48.5 -38.5t-65 -17.5q-61 0 -90.5 36.5t-29.5 96.5q0 115 79 209.5t170 94.5q13 0 36.5 -6.5t37.5 -6.5q1 0 9.5 57t8.5 64.5t-9 7.5h-136q-13 0 -13 21.5t11 21.5l119 -1h19q12 0 14 1q4 4 4 17l4 31q5 47 5 54t-8.5 14t-20.5 7l-29 -1h-6q-16 0 -16 11q0 8 8.5 11t27 5
t30 5t24 6t17 4.5t10.5 3t11 1.5h12q7 0 11.5 -5t4.5 -16.5t-13 -94.5l-4 -30q-2 -14 -2 -15q0 -8 13 -8zM111 265q-24 -59 -24 -109q0 -106 85 -106q60 0 101 52q26 32 40.5 124t14.5 142q0 19 -21.5 29.5t-45.5 10.5q-44 0 -85 -42t-65 -101z" />
    <glyph glyph-name="Emacron" unicode="&#x112;" horiz-adv-x="631" 
d="M485 827l-188 1q-8 0 -8 17q0 27 20 27l180 -2q8 0 10.5 -2.5t2.5 -11.5q0 -29 -17 -29zM167 3l-112 -3q-35 0 -35 13.5t22.5 14.5t35 16t17.5 33t10 49t5.5 35.5t8.5 53.5t12 81l36 303q1 9 1 29t-12 33.5t-26 14.5q-38 3 -38 17.5t23 14.5l253 -2l231 4q18 0 18 -19
l-4 -53l3 -54q0 -28 -13 -28q-15 0 -15 24q0 43 -33 63q-10 6 -35 13.5t-56 7.5l-154 3q-44 0 -53.5 -10t-17.5 -58q-25 -175 -25 -194t6.5 -21t86.5 -2t110.5 4t42 18t17.5 28t9 20t9 6q12 0 12 -10t-8.5 -47.5t-11 -53t-2.5 -43.5q0 -60 -16 -60q-11 0 -11 16q0 48 -17 60
q-29 21 -107 21h-48l-31 1h-6q-38 0 -39 -17q-3 -30 -12 -89q-24 -148 -24 -159q0 -24 24 -30.5t105.5 -6.5t141 15.5t81 34t36 34t20.5 15.5q10 0 10 -14q0 -27 -42 -80t-74 -53q-72 0 -179.5 5.5t-129.5 5.5z" />
    <glyph glyph-name="emacron" unicode="&#x113;" horiz-adv-x="402" 
d="M369 563l-188 1q-8 0 -8 17q0 27 20 27l180 -2q8 0 10.5 -2.5t2.5 -11.5q0 -29 -17 -29zM66.5 30q-34.5 42 -34.5 111t30 131t84.5 113t137.5 51q36 0 61.5 -21t25.5 -49.5t-12 -51t-30 -37.5q-32 -27 -55 -36q-58 -26 -157 -27q-17 0 -17 -49.5t36 -83t108 -33.5
q42 0 90 32q15 11 18 11q12 0 12 -10q0 -21 -57.5 -57t-116.5 -36q-89 0 -123.5 42zM130.5 301q-16.5 -37 -16.5 -53.5t9 -16.5q71 0 125 40t54 88q0 25 -17.5 36t-35.5 11q-37 0 -82 -47q-20 -21 -36.5 -58z" />
    <glyph glyph-name="Ebreve" unicode="&#x114;" horiz-adv-x="631" 
d="M292 872q0 19 5 19h11q3 0 7 -11t10.5 -24t26.5 -24t49.5 -11t50.5 11t30 24t15.5 24t9.5 11h7q7 0 7 -2q0 -20 -29 -67q-14 -22 -40.5 -38t-66 -16t-66.5 31.5t-27 72.5zM167 3l-112 -3q-35 0 -35 13.5t22.5 14.5t35 16t17.5 33t10 49t5.5 35.5t8.5 53.5t12 81l36 303
q1 9 1 29t-12 33.5t-26 14.5q-38 3 -38 17.5t23 14.5l253 -2l231 4q18 0 18 -19l-4 -53l3 -54q0 -28 -13 -28q-15 0 -15 24q0 43 -33 63q-10 6 -35 13.5t-56 7.5l-154 3q-44 0 -53.5 -10t-17.5 -58q-25 -175 -25 -194t6.5 -21t86.5 -2t110.5 4t42 18t17.5 28t9 20t9 6
q12 0 12 -10t-8.5 -47.5t-11 -53t-2.5 -43.5q0 -60 -16 -60q-11 0 -11 16q0 48 -17 60q-29 21 -107 21h-48l-31 1h-6q-38 0 -39 -17q-3 -30 -12 -89q-24 -148 -24 -159q0 -24 24 -30.5t105.5 -6.5t141 15.5t81 34t36 34t20.5 15.5q10 0 10 -14q0 -27 -42 -80t-74 -53
q-72 0 -179.5 5.5t-129.5 5.5z" />
    <glyph glyph-name="ebreve" unicode="&#x115;" horiz-adv-x="402" 
d="M176 608q0 19 5 19h11q3 0 7 -11t10.5 -24t26.5 -24t49.5 -11t50.5 11t30 24t15.5 24t9.5 11h7q7 0 7 -2q0 -20 -29 -67q-14 -22 -40.5 -38t-66 -16t-66.5 31.5t-27 72.5zM66.5 30q-34.5 42 -34.5 111t30 131t84.5 113t137.5 51q36 0 61.5 -21t25.5 -49.5t-12 -51
t-30 -37.5q-32 -27 -55 -36q-58 -26 -157 -27q-17 0 -17 -49.5t36 -83t108 -33.5q42 0 90 32q15 11 18 11q12 0 12 -10q0 -21 -57.5 -57t-116.5 -36q-89 0 -123.5 42zM130.5 301q-16.5 -37 -16.5 -53.5t9 -16.5q71 0 125 40t54 88q0 25 -17.5 36t-35.5 11q-37 0 -82 -47
q-20 -21 -36.5 -58z" />
    <glyph glyph-name="Edotaccent" unicode="&#x116;" horiz-adv-x="631" 
d="M369.5 824q-16.5 22 -16.5 31.5t19 32t32.5 22.5t25.5 -19.5t12 -34t-18 -34.5t-28 -20t-26.5 22zM167 3l-112 -3q-35 0 -35 13.5t22.5 14.5t35 16t17.5 33t10 49t5.5 35.5t8.5 53.5t12 81l36 303q1 9 1 29t-12 33.5t-26 14.5q-38 3 -38 17.5t23 14.5l253 -2l231 4
q18 0 18 -19l-4 -53l3 -54q0 -28 -13 -28q-15 0 -15 24q0 43 -33 63q-10 6 -35 13.5t-56 7.5l-154 3q-44 0 -53.5 -10t-17.5 -58q-25 -175 -25 -194t6.5 -21t86.5 -2t110.5 4t42 18t17.5 28t9 20t9 6q12 0 12 -10t-8.5 -47.5t-11 -53t-2.5 -43.5q0 -60 -16 -60q-11 0 -11 16
q0 48 -17 60q-29 21 -107 21h-48l-31 1h-6q-38 0 -39 -17q-3 -30 -12 -89q-24 -148 -24 -159q0 -24 24 -30.5t105.5 -6.5t141 15.5t81 34t36 34t20.5 15.5q10 0 10 -14q0 -27 -42 -80t-74 -53q-72 0 -179.5 5.5t-129.5 5.5z" />
    <glyph glyph-name="edotaccent" unicode="&#x117;" horiz-adv-x="402" 
d="M253.5 560q-16.5 22 -16.5 31.5t19 32t32.5 22.5t25.5 -19.5t12 -34t-18 -34.5t-28 -20t-26.5 22zM66.5 30q-34.5 42 -34.5 111t30 131t84.5 113t137.5 51q36 0 61.5 -21t25.5 -49.5t-12 -51t-30 -37.5q-32 -27 -55 -36q-58 -26 -157 -27q-17 0 -17 -49.5t36 -83
t108 -33.5q42 0 90 32q15 11 18 11q12 0 12 -10q0 -21 -57.5 -57t-116.5 -36q-89 0 -123.5 42zM130.5 301q-16.5 -37 -16.5 -53.5t9 -16.5q71 0 125 40t54 88q0 25 -17.5 36t-35.5 11q-37 0 -82 -47q-20 -21 -36.5 -58z" />
    <glyph glyph-name="Eogonek" unicode="&#x118;" horiz-adv-x="631" 
d="M167 3l-112 -3q-35 0 -35 13.5t22.5 14.5t35 16t17.5 33t10 49t5.5 35.5t8.5 53.5t12 81l36 303q1 9 1 29t-12 33.5t-26 14.5q-38 3 -38 17.5t23 14.5l253 -2l231 4q18 0 18 -19l-4 -53l3 -54q0 -28 -13 -28q-15 0 -15 24q0 43 -33 63q-10 6 -35 13.5t-56 7.5l-154 3
q-44 0 -53.5 -10t-17.5 -58q-25 -175 -25 -194t6.5 -21t86.5 -2t110.5 4t42 18t17.5 28t9 20t9 6q12 0 12 -10t-8.5 -47.5t-11 -53t-2.5 -43.5q0 -60 -16 -60q-11 0 -11 16q0 48 -17 60q-29 21 -107 21h-48l-31 1h-6q-38 0 -39 -17q-3 -30 -12 -89q-24 -148 -24 -159
q0 -24 24 -30.5t105.5 -6.5t141 15.5t81 34t36 34t20.5 15.5q10 0 10 -15t-19.5 -47.5t-37 -49t-48.5 -37t-49 -40t-18 -45.5t15 -44t32.5 -18t33.5 13t19.5 13t3.5 -10.5t-28 -32t-59 -21.5q-75 0 -75 66q0 42 44 89q15 16 15 21q0 12 -46 13.5t-115 5t-93 3.5z" />
    <glyph glyph-name="eogonek" unicode="&#x119;" horiz-adv-x="402" 
d="M48.5 59.5q-16.5 34.5 -16.5 92.5t30 120t84.5 113t137.5 51q36 0 61.5 -21t25.5 -49.5t-12 -51t-30 -37.5q-32 -27 -55 -36q-58 -26 -157 -27q-17 0 -17 -49.5t36 -83t108 -33.5q42 0 90 32q15 11 18 11q12 0 12 -12.5t-24 -31t-88 -54t-64 -86.5q0 -28 15 -46t32.5 -18
t33.5 13t19.5 13t3.5 -10.5t-28 -32t-59 -21.5q-75 0 -75 66q0 43 46 90q15 16 15 20t-16.5 5.5t-39.5 7t-46.5 18.5t-40 47.5zM130.5 301q-16.5 -37 -16.5 -53.5t9 -16.5q71 0 125 40t54 88q0 25 -17.5 36t-35.5 11q-37 0 -82 -47q-20 -21 -36.5 -58z" />
    <glyph glyph-name="Ecaron" unicode="&#x11a;" horiz-adv-x="631" 
d="M292 904.5q0 5.5 7 5.5h2q6 0 47.5 -42.5t47.5 -42.5t34 24.5t38.5 34.5t14.5 14q11 11 19.5 11t8.5 -4.5t-9 -16t-22.5 -29.5t-22.5 -30.5t-16.5 -23.5t-11.5 -17.5t-8 -12.5l-6 -9q-5 -8 -12 -8h-26q-10 0 -14 10q-15 32 -43 81.5t-28 55zM167 3l-112 -3
q-35 0 -35 13.5t22.5 14.5t35 16t17.5 33t10 49t5.5 35.5t8.5 53.5t12 81l36 303q1 9 1 29t-12 33.5t-26 14.5q-38 3 -38 17.5t23 14.5l253 -2l231 4q18 0 18 -19l-4 -53l3 -54q0 -28 -13 -28q-15 0 -15 24q0 43 -33 63q-10 6 -35 13.5t-56 7.5l-154 3q-44 0 -53.5 -10
t-17.5 -58q-25 -175 -25 -194t6.5 -21t86.5 -2t110.5 4t42 18t17.5 28t9 20t9 6q12 0 12 -10t-8.5 -47.5t-11 -53t-2.5 -43.5q0 -60 -16 -60q-11 0 -11 16q0 48 -17 60q-29 21 -107 21h-48l-31 1h-6q-38 0 -39 -17q-3 -30 -12 -89q-24 -148 -24 -159q0 -24 24 -30.5
t105.5 -6.5t141 15.5t81 34t36 34t20.5 15.5q10 0 10 -14q0 -27 -42 -80t-74 -53q-72 0 -179.5 5.5t-129.5 5.5z" />
    <glyph glyph-name="ecaron" unicode="&#x11b;" horiz-adv-x="402" 
d="M176 640.5q0 5.5 7 5.5h2q6 0 47.5 -42.5t47.5 -42.5t34 24.5t38.5 34.5t14.5 14q11 11 19.5 11t8.5 -4.5t-9 -16t-22.5 -29.5t-22.5 -30.5t-16.5 -23.5t-11.5 -17.5t-8 -12.5l-6 -9q-5 -8 -12 -8h-26q-10 0 -14 10q-15 32 -43 81.5t-28 55zM66.5 30q-34.5 42 -34.5 111
t30 131t84.5 113t137.5 51q36 0 61.5 -21t25.5 -49.5t-12 -51t-30 -37.5q-32 -27 -55 -36q-58 -26 -157 -27q-17 0 -17 -49.5t36 -83t108 -33.5q42 0 90 32q15 11 18 11q12 0 12 -10q0 -21 -57.5 -57t-116.5 -36q-89 0 -123.5 42zM130.5 301q-16.5 -37 -16.5 -53.5t9 -16.5
q71 0 125 40t54 88q0 25 -17.5 36t-35.5 11q-37 0 -82 -47q-20 -21 -36.5 -58z" />
    <glyph glyph-name="Gcircumflex" unicode="&#x11c;" horiz-adv-x="773" 
d="M373.5 801q-48.5 -42 -55 -42t-6.5 2.5t10 15.5t23.5 31t22.5 30.5t16.5 23.5t11.5 18t8 13l6 9q5 8 12 8h26q10 0 14 -10q14 -30 33 -63q38 -69 38 -74t-8 -5t-49.5 42.5t-47.5 42.5t-54.5 -42zM631 356l84 4q19 0 19 -12q0 -13 -23 -16q-9 -2 -17.5 -10.5t-11.5 -24.5
q-22 -137 -22 -192v-31q0 -20 -3.5 -23.5t-15.5 -6.5t-18.5 -5.5t-20.5 -8t-25.5 -9.5t-32.5 -10.5t-41 -10.5q-50 -10 -100 -10q-177 0 -270.5 101t-93.5 268q0 78 46 174q24 50 72.5 93.5t115 66.5t120 23t96 -7.5t71.5 -18.5t51.5 -22t35.5 -18.5t15.5 -7.5t13.5 10
t15 10q13 0 13 -18l-2 -52q0 -20 3.5 -50t3.5 -34q0 -23 -17 -23q-8 0 -12 9.5t-11 30t-19 37.5q-38 57 -110.5 87t-153.5 30q-76 0 -138 -37q-36 -22 -62.5 -56.5t-44 -93.5t-17.5 -135q0 -139 77.5 -235.5t202.5 -96.5q46 0 77 7t60 28q58 44 58 183v6q0 52 -8.5 65.5
t-46.5 13.5h-9q-29 0 -29 18q0 13 33 13z" />
    <glyph glyph-name="gcircumflex" unicode="&#x11d;" horiz-adv-x="435" 
d="M188.5 537q-48.5 -42 -55 -42t-6.5 2.5t10 15.5t23.5 31t22.5 30.5t16.5 23.5t11.5 18t8 13l6 9q5 8 12 8h26q10 0 14 -10q14 -30 33 -63q38 -69 38 -74t-8 -5t-49.5 42.5t-47.5 42.5t-54.5 -42zM38 16q14 5 24 8t10 4.5t-3 5.5q-9 14 -9 36.5t10 37.5t19.5 22.5t9.5 9.5
t-10.5 11.5t-21.5 38.5t-11 79.5t41.5 104t107.5 53.5q23 0 60 -13t51 -13t39 11t33.5 11t18 -6t9.5 -18t-10 -22.5t-26 -10.5t-34 4t-20 4q-12 0 -12 -9q0 -2 4 -13q14 -31 14 -65q0 -56 -40.5 -114t-102.5 -58q-27 0 -50 6.5t-25.5 6.5t-5.5 -2q-8 -9 -8 -34.5t40 -44.5
t87.5 -29.5t87.5 -37t40 -67.5q0 -60 -45.5 -84t-130 -24t-144 30.5t-59.5 93t62 87.5zM31 -61q0 -53 45.5 -81t102.5 -28q112 0 112 65q0 17 -35.5 37.5t-93.5 43.5q-71 29 -80 38q-13 0 -32 -24t-19 -51zM142.5 360.5q-26.5 -40.5 -26.5 -103t19.5 -91t51.5 -28.5
t59.5 39.5t27.5 100.5t-20.5 92t-52.5 31t-58.5 -40.5z" />
    <glyph glyph-name="Gbreve" unicode="&#x11e;" horiz-adv-x="773" 
d="M326 872q0 19 5 19h11q3 0 7 -11t10.5 -24t26.5 -24t49.5 -11t50.5 11t30 24t15.5 24t9.5 11h7q7 0 7 -2q0 -20 -29 -67q-14 -22 -40.5 -38t-66 -16t-66.5 31.5t-27 72.5zM631 356l84 4q19 0 19 -12q0 -13 -23 -16q-9 -2 -17.5 -10.5t-11.5 -24.5q-22 -137 -22 -192v-31
q0 -20 -3.5 -23.5t-15.5 -6.5t-18.5 -5.5t-20.5 -8t-25.5 -9.5t-32.5 -10.5t-41 -10.5q-50 -10 -100 -10q-177 0 -270.5 101t-93.5 268q0 78 46 174q24 50 72.5 93.5t115 66.5t120 23t96 -7.5t71.5 -18.5t51.5 -22t35.5 -18.5t15.5 -7.5t13.5 10t15 10q13 0 13 -18l-2 -52
q0 -20 3.5 -50t3.5 -34q0 -23 -17 -23q-8 0 -12 9.5t-11 30t-19 37.5q-38 57 -110.5 87t-153.5 30q-76 0 -138 -37q-36 -22 -62.5 -56.5t-44 -93.5t-17.5 -135q0 -139 77.5 -235.5t202.5 -96.5q46 0 77 7t60 28q58 44 58 183v6q0 52 -8.5 65.5t-46.5 13.5h-9q-29 0 -29 18
q0 13 33 13z" />
    <glyph glyph-name="gbreve" unicode="&#x11f;" horiz-adv-x="435" 
d="M141 608q0 19 5 19h11q3 0 7 -11t10.5 -24t26.5 -24t49.5 -11t50.5 11t30 24t15.5 24t9.5 11h7q7 0 7 -2q0 -20 -29 -67q-14 -22 -40.5 -38t-66 -16t-66.5 31.5t-27 72.5zM38 16q14 5 24 8t10 4.5t-3 5.5q-9 14 -9 36.5t10 37.5t19.5 22.5t9.5 9.5t-10.5 11.5t-21.5 38.5
t-11 79.5t41.5 104t107.5 53.5q23 0 60 -13t51 -13t39 11t33.5 11t18 -6t9.5 -18t-10 -22.5t-26 -10.5t-34 4t-20 4q-12 0 -12 -9q0 -2 4 -13q14 -31 14 -65q0 -56 -40.5 -114t-102.5 -58q-27 0 -50 6.5t-25.5 6.5t-5.5 -2q-8 -9 -8 -34.5t40 -44.5t87.5 -29.5t87.5 -37
t40 -67.5q0 -60 -45.5 -84t-130 -24t-144 30.5t-59.5 93t62 87.5zM31 -61q0 -53 45.5 -81t102.5 -28q112 0 112 65q0 17 -35.5 37.5t-93.5 43.5q-71 29 -80 38q-13 0 -32 -24t-19 -51zM142.5 360.5q-26.5 -40.5 -26.5 -103t19.5 -91t51.5 -28.5t59.5 39.5t27.5 100.5
t-20.5 92t-52.5 31t-58.5 -40.5z" />
    <glyph glyph-name="Gdotaccent" unicode="&#x120;" horiz-adv-x="773" 
d="M403.5 824q-16.5 22 -16.5 31.5t19 32t32.5 22.5t25.5 -19.5t12 -34t-18 -34.5t-28 -20t-26.5 22zM631 356l84 4q19 0 19 -12q0 -13 -23 -16q-9 -2 -17.5 -10.5t-11.5 -24.5q-22 -137 -22 -192v-31q0 -20 -3.5 -23.5t-15.5 -6.5t-18.5 -5.5t-20.5 -8t-25.5 -9.5
t-32.5 -10.5t-41 -10.5q-50 -10 -100 -10q-177 0 -270.5 101t-93.5 268q0 78 46 174q24 50 72.5 93.5t115 66.5t120 23t96 -7.5t71.5 -18.5t51.5 -22t35.5 -18.5t15.5 -7.5t13.5 10t15 10q13 0 13 -18l-2 -52q0 -20 3.5 -50t3.5 -34q0 -23 -17 -23q-8 0 -12 9.5t-11 30
t-19 37.5q-38 57 -110.5 87t-153.5 30q-76 0 -138 -37q-36 -22 -62.5 -56.5t-44 -93.5t-17.5 -135q0 -139 77.5 -235.5t202.5 -96.5q46 0 77 7t60 28q58 44 58 183v6q0 52 -8.5 65.5t-46.5 13.5h-9q-29 0 -29 18q0 13 33 13z" />
    <glyph glyph-name="gdotaccent" unicode="&#x121;" horiz-adv-x="435" 
d="M218.5 560q-16.5 22 -16.5 31.5t19 32t32.5 22.5t25.5 -19.5t12 -34t-18 -34.5t-28 -20t-26.5 22zM38 16q14 5 24 8t10 4.5t-3 5.5q-9 14 -9 36.5t10 37.5t19.5 22.5t9.5 9.5t-10.5 11.5t-21.5 38.5t-11 79.5t41.5 104t107.5 53.5q23 0 60 -13t51 -13t39 11t33.5 11
t18 -6t9.5 -18t-10 -22.5t-26 -10.5t-34 4t-20 4q-12 0 -12 -9q0 -2 4 -13q14 -31 14 -65q0 -56 -40.5 -114t-102.5 -58q-27 0 -50 6.5t-25.5 6.5t-5.5 -2q-8 -9 -8 -34.5t40 -44.5t87.5 -29.5t87.5 -37t40 -67.5q0 -60 -45.5 -84t-130 -24t-144 30.5t-59.5 93t62 87.5z
M31 -61q0 -53 45.5 -81t102.5 -28q112 0 112 65q0 17 -35.5 37.5t-93.5 43.5q-71 29 -80 38q-13 0 -32 -24t-19 -51zM142.5 360.5q-26.5 -40.5 -26.5 -103t19.5 -91t51.5 -28.5t59.5 39.5t27.5 100.5t-20.5 92t-52.5 31t-58.5 -40.5z" />
    <glyph glyph-name="Gcommaaccent" unicode="&#x122;" horiz-adv-x="773" 
d="M332 -79q34 33 48 33q18 0 34 -19.5t16 -39.5q0 -42 -31.5 -68t-49.5 -26q-5 0 -5 4q0 2 10 8q30 18 30 43t-13 36t-26 17t-13 12zM631 356l84 4q19 0 19 -12q0 -13 -23 -16q-9 -2 -17.5 -10.5t-11.5 -24.5q-22 -137 -22 -192v-31q0 -20 -3.5 -23.5t-15.5 -6.5
t-18.5 -5.5t-20.5 -8t-25.5 -9.5t-32.5 -10.5t-41 -10.5q-50 -10 -100 -10q-177 0 -270.5 101t-93.5 268q0 78 46 174q24 50 72.5 93.5t115 66.5t120 23t96 -7.5t71.5 -18.5t51.5 -22t35.5 -18.5t15.5 -7.5t13.5 10t15 10q13 0 13 -18l-2 -52q0 -20 3.5 -50t3.5 -34
q0 -23 -17 -23q-8 0 -12 9.5t-11 30t-19 37.5q-38 57 -110.5 87t-153.5 30q-76 0 -138 -37q-36 -22 -62.5 -56.5t-44 -93.5t-17.5 -135q0 -139 77.5 -235.5t202.5 -96.5q46 0 77 7t60 28q58 44 58 183v6q0 52 -8.5 65.5t-46.5 13.5h-9q-29 0 -29 18q0 13 33 13z" />
    <glyph glyph-name="gcommaaccent" unicode="&#x123;" horiz-adv-x="435" 
d="M183 561q0 42 31.5 67.5t49.5 25.5q5 0 5 -4q0 -2 -10 -8q-30 -18 -30 -43t13 -36t26 -17t13 -12q-34 -33 -48 -33q-4 0 -15 5.5t-23 20t-12 34.5zM38 16q14 5 24 8t10 4.5t-3 5.5q-9 14 -9 36.5t10 37.5t19.5 22.5t9.5 9.5t-10.5 11.5t-21.5 38.5t-11 79.5t41.5 104
t107.5 53.5q23 0 60 -13t51 -13t39 11t33.5 11t18 -6t9.5 -18t-10 -22.5t-26 -10.5t-34 4t-20 4q-12 0 -12 -9q0 -2 4 -13q14 -31 14 -65q0 -56 -40.5 -114t-102.5 -58q-27 0 -50 6.5t-25.5 6.5t-5.5 -2q-8 -9 -8 -34.5t40 -44.5t87.5 -29.5t87.5 -37t40 -67.5
q0 -60 -45.5 -84t-130 -24t-144 30.5t-59.5 93t62 87.5zM31 -61q0 -53 45.5 -81t102.5 -28q112 0 112 65q0 17 -35.5 37.5t-93.5 43.5q-71 29 -80 38q-13 0 -32 -24t-19 -51zM142.5 360.5q-26.5 -40.5 -26.5 -103t19.5 -91t51.5 -28.5t59.5 39.5t27.5 100.5t-20.5 92
t-52.5 31t-58.5 -40.5z" />
    <glyph glyph-name="Hcircumflex" unicode="&#x124;" horiz-adv-x="786" 
d="M373.5 801q-48.5 -42 -55 -42t-6.5 2.5t10 15.5t23.5 31t22.5 30.5t16.5 23.5t11.5 18t8 13l6 9q5 8 12 8h26q10 0 14 -10q14 -30 33 -63q38 -69 38 -74t-8 -5t-49.5 42.5t-47.5 42.5t-54.5 -42zM132 2l-78 -5q-34 0 -34 14q0 13 17 15q20 1 38 19q16 16 25 86q1 13 4 36
t5 43t6 53.5t9 76t14 119.5q20 158 20 160q0 47 -60 54q-25 3 -26 4q-8 3 -8 12q0 15 27 15q11 0 41 -3.5t58 -3.5t59.5 3.5t38.5 3.5q18 0 18 -15q0 -7 -9.5 -9.5t-23 -6t-22 -13.5t-14 -34t-13 -83.5t-13.5 -94.5t-6 -46t2.5 -13t9.5 -2l333 -3h20q17 0 22 7t7 24.5
t7 63.5q13 120 13 126q0 48 -40 65q-5 2 -19 4q-35 3 -35 15.5t27 12.5l107 -3l86 4q22 0 22 -15q0 -8 -20 -12.5t-27 -13.5q-21 -25 -31.5 -127t-24.5 -208.5t-21 -159t-7 -65.5t1 -23t2.5 -17t5 -12.5t5.5 -9.5t7.5 -6.5t7.5 -3.5q6 -5 17 -5l16 -1q33 -2 33 -18
q0 -12 -18 -12l-102 9q-29 0 -56 -4t-34 -4q-32 0 -32 13t15 14.5t24 7.5t14 11t8 18q6 20 8 37l2 16q28 199 28 213t-5.5 16.5t-28.5 2.5l-100 -1h-235q-17 0 -19.5 -3t-4.5 -22l-7 -52q-21 -145 -21 -164.5t3 -31.5t6 -19t11 -12.5t11 -6.5q21 -7 29 -8t10 -2t5.5 -1.5
t5 -1.5t3.5 -3q3 -2 3 -7q0 -9 -16 -9z" />
    <glyph glyph-name="hcircumflex" unicode="&#x125;" horiz-adv-x="485" 
d="M252.5 801q-48.5 -42 -55 -42t-6.5 2.5t10 15.5t23.5 31t22.5 30.5t16.5 23.5t11.5 18t8 13l6 9q5 8 12 8h26q10 0 14 -10q14 -30 33 -63q38 -69 38 -74t-8 -5t-49.5 42.5t-47.5 42.5t-54.5 -42zM101 705l-41 -1q-13 0 -13 11.5t42.5 15t69.5 10t34 6.5q12 0 12 -13
q0 -2 -30 -165.5t-30 -217.5q0 -11 3.5 -11t16.5 13.5t29.5 29t44 29t55.5 13.5q89 0 89 -113q0 -30 -12 -105t-12 -97q0 -46 24 -46q13 0 32 11.5t27.5 22t14.5 18t9 7.5q10 0 10 -8q0 -34 -48 -76t-82 -42q-49 0 -49 93q0 31 9 102.5t9 101.5q0 78 -57 78q-34 0 -68 -20
q-50 -30 -66 -126q-6 -37 -13.5 -103t-11 -89t-12 -29t-25.5 -6q-33 0 -33 24q0 14 13 88.5t16 94t22 147.5t34 227t15 102q0 23 -28 23z" />
    <glyph glyph-name="Hbar" unicode="&#x126;" horiz-adv-x="786" 
d="M132 2l-78 -5q-34 0 -34 14q0 13 17 15q20 1 35 16t20.5 46t20.5 159.5t21.5 180.5t6.5 61t-4 11t-16 2h-47q-13 0 -13 22t11 22h58q16 0 17 4q4 7 4 10l1 14q1 13 2.5 22.5t2 13t1 6.5t0.5 5q0 45 -59 52q-25 3 -27 4q-8 3 -8 12q0 15 27 15q11 0 41 -3.5t58 -3.5
t59.5 3.5t38.5 3.5q18 0 18 -15q0 -7 -9 -9.5t-22.5 -5.5t-23 -13t-17.5 -50.5t-8 -52.5t3.5 -13t17.5 -1l337 2q22 0 26.5 4.5t6.5 31.5l2 23q0 48 -40 65q-5 2 -19 4q-35 3 -35 15.5t27 12.5l107 -3l86 4q22 0 22 -15q0 -8 -20 -12.5t-29.5 -16t-17 -44.5t-7.5 -45.5
t1 -15.5q1 -7 12 -7h46q13 0 13 -16q0 -28 -16 -28h-48q-11 0 -13 -3q-5 -8 -5 -26l-3 -21q-11 -89 -27.5 -214t-16.5 -137.5t1 -22.5t2.5 -17t5 -12.5t5.5 -9.5t7.5 -6.5t7.5 -3.5q6 -5 17 -5l16 -1q33 -2 33 -18q0 -12 -18 -12l-102 9q-29 0 -56 -4t-34 -4q-32 0 -32 13
t15 14.5t24 7.5t14 11t8 18q6 20 8 37l2 16q28 199 28 213t-5.5 16.5t-28.5 2.5l-100 -1h-235q-17 0 -19.5 -3t-4.5 -22l-7 -52q-21 -145 -21 -164.5t3 -31.5t6 -19t11 -12.5t11 -6.5q21 -7 29 -8t10 -2t5.5 -1.5t5 -1.5t3.5 -3q3 -2 3 -7q0 -9 -16 -9zM581 503l-272 -1h-68
q-19 0 -21.5 -3.5t-8.5 -42t-6 -52t2.5 -15.5t9.5 -2l353 -3q16 0 21.5 6t8.5 28l7 74q0 8 -3.5 9.5t-22.5 1.5z" />
    <glyph glyph-name="hbar" unicode="&#x127;" horiz-adv-x="485" 
d="M333 522l-91 -1h-62q-14 0 -15 -10q-20 -116 -20 -143.5t3.5 -27.5t16.5 13.5t29.5 29t44 29t55.5 13.5q89 0 89 -113q0 -30 -12 -105t-12 -97q0 -46 24 -46q13 0 32 11.5t27.5 22t14.5 18t9 7.5q10 0 10 -8q0 -34 -48 -76t-82 -42q-49 0 -49 93q0 31 9 102.5t9 101.5
q0 78 -57 78q-34 0 -68 -20q-50 -30 -66 -126q-6 -37 -13.5 -103t-11 -89t-12 -29t-25.5 -6q-33 0 -33 24q0 14 14.5 99.5t23.5 144.5l37 248q0 6 -15 6h-43q-13 0 -13 22t12 22l52 -1q12 0 14 4q3 7 5 22.5t6 41.5q7 46 7 50q0 23 -28 23l-41 -1q-13 0 -13 11.5t42.5 15
t69.5 10t34 6.5q12 0 12 -13l-29 -163q0 -8 14 -8l149 3q8 0 8 -22t-14 -22z" />
    <glyph glyph-name="Itilde" unicode="&#x128;" horiz-adv-x="325" 
d="M77.5 802q-9.5 -14 -16.5 -14t-7 13t40 54.5t65 41.5t61 -24t56.5 -24t33.5 14t22 28t15 14q9 0 9 -14.5t-39.5 -54t-65.5 -39.5t-63 24t-55.5 24t-32 -14.5t-23 -28.5zM132 1l-77 -6q-35 0 -35 16q0 12 20 13q21 2 34 21t15 36t21 158q48 370 48 380q0 47 -60 54
q-25 3 -26 4q-8 3 -8 12q0 15 27 15q11 0 41 -4t62 -4l94 6q18 0 18 -14q0 -7 -9.5 -9.5t-23 -6t-19.5 -10.5q-20 -23 -30.5 -126.5t-25.5 -209.5t-23 -159.5t-8 -71.5t3 -33t10.5 -22t12 -10t16.5 -5t15.5 -3t8.5 -2t8.5 -1.5t6.5 -1.5q6 -2 6 -8.5t-3 -9.5q-4 -4 -18 -4z
" />
    <glyph glyph-name="itilde" unicode="&#x129;" horiz-adv-x="250" 
d="M11.5 538q-9.5 -14 -16.5 -14t-7 13t40 54.5t65 41.5t61 -24t56.5 -24t33.5 14t22 28t15 14q9 0 9 -14.5t-39.5 -54t-65.5 -39.5t-63 24t-55.5 24t-32 -14.5t-23 -28.5zM79 383l-45 1q-14 0 -14 12q0 14 23 14h10q18 0 50.5 4.5t63.5 4.5q14 0 14 -11q0 -13 -11.5 -52
t-15.5 -64q-30 -189 -30 -199t6 -18.5t14 -8.5q20 0 38.5 26t23.5 26q10 0 10 -10t-10 -30t-19 -29q-55 -59 -92 -59t-37 83q0 40 22.5 151.5t22.5 130.5t-5 23.5t-19 4.5z" />
    <glyph glyph-name="Imacron" unicode="&#x12a;" horiz-adv-x="325" 
d="M294 827l-188 1q-8 0 -8 17q0 27 20 27l180 -2q8 0 10.5 -2.5t2.5 -11.5q0 -29 -17 -29zM132 1l-77 -6q-35 0 -35 16q0 12 20 13q21 2 34 21t15 36t21 158q48 370 48 380q0 47 -60 54q-25 3 -26 4q-8 3 -8 12q0 15 27 15q11 0 41 -4t62 -4l94 6q18 0 18 -14
q0 -7 -9.5 -9.5t-23 -6t-19.5 -10.5q-20 -23 -30.5 -126.5t-25.5 -209.5t-23 -159.5t-8 -71.5t3 -33t10.5 -22t12 -10t16.5 -5t15.5 -3t8.5 -2t8.5 -1.5t6.5 -1.5q6 -2 6 -8.5t-3 -9.5q-4 -4 -18 -4z" />
    <glyph glyph-name="imacron" unicode="&#x12b;" horiz-adv-x="250" 
d="M228 563l-188 1q-8 0 -8 17q0 27 20 27l180 -2q8 0 10.5 -2.5t2.5 -11.5q0 -29 -17 -29zM79 383l-45 1q-14 0 -14 12q0 14 23 14h10q18 0 50.5 4.5t63.5 4.5q14 0 14 -11q0 -13 -11.5 -52t-15.5 -64q-30 -189 -30 -199t6 -18.5t14 -8.5q20 0 38.5 26t23.5 26q10 0 10 -10
t-10 -30t-19 -29q-55 -59 -92 -59t-37 83q0 40 22.5 151.5t22.5 130.5t-5 23.5t-19 4.5z" />
    <glyph glyph-name="Ibreve" unicode="&#x12c;" horiz-adv-x="325" 
d="M101 872q0 19 5 19h11q3 0 7 -11t10.5 -24t26.5 -24t49.5 -11t50.5 11t30 24t15.5 24t9.5 11h7q7 0 7 -2q0 -20 -29 -67q-14 -22 -40.5 -38t-66 -16t-66.5 31.5t-27 72.5zM132 1l-77 -6q-35 0 -35 16q0 12 20 13q21 2 34 21t15 36t21 158q48 370 48 380q0 47 -60 54
q-25 3 -26 4q-8 3 -8 12q0 15 27 15q11 0 41 -4t62 -4l94 6q18 0 18 -14q0 -7 -9.5 -9.5t-23 -6t-19.5 -10.5q-20 -23 -30.5 -126.5t-25.5 -209.5t-23 -159.5t-8 -71.5t3 -33t10.5 -22t12 -10t16.5 -5t15.5 -3t8.5 -2t8.5 -1.5t6.5 -1.5q6 -2 6 -8.5t-3 -9.5q-4 -4 -18 -4z
" />
    <glyph glyph-name="ibreve" unicode="&#x12d;" horiz-adv-x="250" 
d="M35 608q0 19 5 19h11q3 0 7 -11t10.5 -24t26.5 -24t49.5 -11t50.5 11t30 24t15.5 24t9.5 11h7q7 0 7 -2q0 -20 -29 -67q-14 -22 -40.5 -38t-66 -16t-66.5 31.5t-27 72.5zM79 383l-45 1q-14 0 -14 12q0 14 23 14h10q18 0 50.5 4.5t63.5 4.5q14 0 14 -11q0 -13 -11.5 -52
t-15.5 -64q-30 -189 -30 -199t6 -18.5t14 -8.5q20 0 38.5 26t23.5 26q10 0 10 -10t-10 -30t-19 -29q-55 -59 -92 -59t-37 83q0 40 22.5 151.5t22.5 130.5t-5 23.5t-19 4.5z" />
    <glyph glyph-name="Iogonek" unicode="&#x12e;" horiz-adv-x="325" 
d="M92 -1l-37 -4q-35 0 -35 16q0 13 26 15q10 1 22.5 12.5t19.5 33.5l35 272q35 273 35 275q0 47 -60 54q-25 3 -26 4q-8 3 -8 12q0 15 27 15q11 0 41 -4t62 -4l94 6q18 0 18 -14q0 -7 -9.5 -9.5t-23 -6t-19.5 -10.5q-20 -23 -30.5 -126.5t-25.5 -209.5t-23 -159.5t-8 -71.5
t3 -33t10.5 -22t12 -10t16.5 -5t15.5 -3t8.5 -2t8.5 -1.5t6.5 -1.5q6 -2 6 -8.5t-3 -9.5q-4 -4 -18 -4l-76 5q-17 0 -25 -12q-30 -35 -30 -81q0 -28 15 -46t32 -18t33 7.5t19 7.5q6 0 6 -5q0 -13 -28.5 -30.5t-62.5 -17.5t-52 19.5t-18 50t14 57t28 43t14 20.5t-10 4z" />
    <glyph glyph-name="iogonek" unicode="&#x12f;" horiz-adv-x="250" 
d="M79 383l-45 1q-14 0 -14 12q0 14 23 14h10q18 0 50.5 4.5t63.5 4.5q14 0 14 -11q0 -13 -11.5 -52t-15.5 -64q-30 -189 -30 -199t6 -18.5t14 -8.5q20 0 38.5 26t23.5 26q10 0 10 -10t-10 -30t-19 -29q-33 -33 -64 -50t-49 -32q-37 -28 -37 -58t15 -48t31 -18t33.5 10.5
t21.5 10.5t4 -10.5t-28.5 -29.5t-62 -19t-53 19t-19.5 45.5t14 49t31 35.5q45 33 45 46q0 3 -5.5 21t-5.5 55t22.5 148.5t22.5 130.5t-5 23.5t-19 4.5zM142.5 562q-16.5 22 -16.5 30.5t19 31t32 22.5t25.5 -19t12.5 -33.5t-18 -34t-28 -19.5t-26.5 22z" />
    <glyph glyph-name="Idotaccent" unicode="&#x130;" horiz-adv-x="325" 
d="M178.5 824q-16.5 22 -16.5 31.5t19 32t32.5 22.5t25.5 -19.5t12 -34t-18 -34.5t-28 -20t-26.5 22zM132 1l-77 -6q-35 0 -35 16q0 12 20 13q21 2 34 21t15 36t21 158q48 370 48 380q0 47 -60 54q-25 3 -26 4q-8 3 -8 12q0 15 27 15q11 0 41 -4t62 -4l94 6q18 0 18 -14
q0 -7 -9.5 -9.5t-23 -6t-19.5 -10.5q-20 -23 -30.5 -126.5t-25.5 -209.5t-23 -159.5t-8 -71.5t3 -33t10.5 -22t12 -10t16.5 -5t15.5 -3t8.5 -2t8.5 -1.5t6.5 -1.5q6 -2 6 -8.5t-3 -9.5q-4 -4 -18 -4z" />
    <glyph glyph-name="dotlessi" unicode="&#x131;" horiz-adv-x="250" 
d="M79 383l-45 1q-14 0 -14 12q0 14 23 14h10q18 0 50.5 4.5t63.5 4.5q14 0 14 -11q0 -13 -11.5 -52t-15.5 -64q-30 -189 -30 -199t6 -18.5t14 -8.5q20 0 38.5 26t23.5 26q10 0 10 -10t-10 -30t-19 -29q-55 -59 -92 -59t-37 83q0 40 22.5 151.5t22.5 130.5t-5 23.5t-19 4.5z
" />
    <glyph glyph-name="IJ" unicode="&#x132;" horiz-adv-x="681" 
d="M465 246l45 383q0 39 -68 45q-25 2 -25 18t26 16q12 0 38 -4.5t59.5 -4.5t64.5 4t33 4q23 0 23 -11t-6 -13.5t-15 -3.5t-19 -5q-23 -11 -35 -77q-2 -14 -18.5 -156t-29.5 -228.5t-39.5 -146t-80.5 -97.5t-100 -38q-23 0 -37.5 8.5t-14.5 20.5t11.5 45t25.5 33q8 0 15 -14
q19 -41 51 -41q39 0 60.5 71.5t35.5 191.5zM132 1l-77 -6q-35 0 -35 16q0 12 20 13q21 2 34 21t15 36t21 158q48 370 48 380q0 47 -60 54q-25 3 -26 4q-8 3 -8 12q0 15 27 15q11 0 41 -4t62 -4l94 6q18 0 18 -14q0 -7 -9.5 -9.5t-23 -6t-19.5 -10.5q-20 -23 -30.5 -126.5
t-25.5 -209.5t-23 -159.5t-8 -71.5t3 -33t10.5 -22t12 -10t16.5 -5t15.5 -3t8.5 -2t8.5 -1.5t6.5 -1.5q6 -2 6 -8.5t-3 -9.5q-4 -4 -18 -4z" />
    <glyph glyph-name="ij" unicode="&#x133;" horiz-adv-x="492" 
d="M374 561q-15 21 -15 32t18 31t31 20t26 -17t13 -32t-16 -35t-29 -20t-28 21zM321 412l74 9q23 0 23 -16q0 -25 -9.5 -76.5t-15 -91.5t-14.5 -114.5t-12.5 -103t-10 -65.5t-13.5 -52q-18 -39 -47 -66q-13 -13 -15.5 -15t-8 -6.5t-10 -6t-10.5 -4.5q-12 -4 -32.5 -4
t-29.5 5.5t-10 21.5t-2 27.5t-1 14.5q0 16 13 16q10 0 30 -21t35 -21t25 40t21.5 133t22.5 170q22 167 22 173q0 24 -32 24h-26q-18 0 -18 12q0 16 20 16zM142.5 562q-16.5 22 -16.5 30.5t19 31t32 22.5t25.5 -19t12.5 -33.5t-18 -34t-28 -19.5t-26.5 22zM79 383l-45 1
q-14 0 -14 12q0 14 23 14h10q18 0 50.5 4.5t63.5 4.5q14 0 14 -11q0 -13 -11.5 -52t-15.5 -64q-30 -189 -30 -199t6 -18.5t14 -8.5q20 0 38.5 26t23.5 26q10 0 10 -10t-10 -30t-19 -29q-55 -59 -92 -59t-37 83q0 40 22.5 151.5t22.5 130.5t-5 23.5t-19 4.5z" />
    <glyph glyph-name="Jcircumflex" unicode="&#x134;" horiz-adv-x="405" 
d="M224.5 801q-48.5 -42 -55 -42t-6.5 2.5t10 15.5t23.5 31t22.5 30.5t16.5 23.5t11.5 18t8 13l6 9q5 8 12 8h26q10 0 14 -10q14 -30 33 -63q38 -69 38 -74t-8 -5t-49.5 42.5t-47.5 42.5t-54.5 -42zM189 246l45 383q0 39 -68 45q-25 2 -25 18t26 16q12 0 38 -4.5t59.5 -4.5
t64.5 4t33 4q23 0 23 -11t-6 -13.5t-15 -3.5t-19 -5q-23 -11 -35 -77q-2 -14 -18.5 -156t-29.5 -228.5t-39.5 -146t-80.5 -97.5t-100 -38q-23 0 -37.5 8.5t-14.5 20.5t11.5 45t25.5 33q8 0 15 -14q19 -41 51 -41q39 0 60.5 71.5t35.5 191.5z" />
    <glyph glyph-name="jcircumflex" unicode="&#x135;" horiz-adv-x="242" 
d="M65.5 537q-48.5 -42 -55 -42t-6.5 2.5t10 15.5t23.5 31t22.5 30.5t16.5 23.5t11.5 18t8 13l6 9q5 8 12 8h26q10 0 14 -10q14 -30 33 -63q38 -69 38 -74t-8 -5t-49.5 42.5t-47.5 42.5t-54.5 -42zM71 412l74 9q23 0 23 -16q0 -25 -9.5 -76.5t-15 -91.5t-14.5 -114.5
t-12.5 -103t-10 -65.5t-13.5 -52q-18 -39 -47 -66q-13 -13 -15.5 -15t-8 -6.5t-10 -6t-10.5 -4.5q-12 -4 -32.5 -4t-29.5 5.5t-10 21.5t-2 27.5t-1 14.5q0 16 13 16q10 0 30 -21t35 -21t25 40t21.5 133t22.5 170q22 167 22 173q0 24 -32 24h-26q-18 0 -18 12q0 16 20 16z
" />
    <glyph glyph-name="Kcommaaccent" unicode="&#x136;" horiz-adv-x="774" 
d="M290 -79q34 33 48 33q18 0 34 -19.5t16 -39.5q0 -42 -31.5 -68t-49.5 -26q-5 0 -5 4q0 2 10 8q30 18 30 43t-13 36t-26 17t-13 12zM163 3l-114 -5q-29 0 -29 15q0 9 9 12t21 4.5t25.5 16t22.5 50t36 268t27 256.5t-19.5 40t-48.5 18q-18 1 -18 17q0 12 18 12l5 -1
q5 0 14.5 -1t21.5 -2q25 -2 74 -2l84 4q19 0 19 -10q0 -5 -3.5 -7.5t-13.5 -5.5q-43 -14 -54 -60q-8 -35 -17.5 -125t-10.5 -98q-2 -16 -2 -20q0 -9 7.5 -9t117.5 81.5t191 144.5q53 42 53 60q0 14 -24 21t-24 17q0 12 27 12l92 -6l83 6q21 0 21 -16t-13 -19q-5 -2 -18.5 -4
t-26.5 -6q-34 -11 -125 -77l-216 -155q-5 -4 -14.5 -10t-15.5 -10.5t-12.5 -9.5t-10 -9.5t-3.5 -8.5t33.5 -40t98.5 -111t88.5 -101.5t56.5 -56t56 -37t52 -9.5t29 -14q0 -14 -17 -14l-99 4h-33l-24 -1q-10 0 -25 16.5t-82 96.5q-181 216 -187.5 220t-14.5 4t-15 -6.5
t-7.5 -7.5t-2.5 -3t-3 -4t-2.5 -6t-2.5 -8t-2 -11q-2 -15 -11 -95t-9 -84q0 -54 10.5 -66.5t47 -17t36.5 -17t-23 -12.5z" />
    <glyph glyph-name="kcommaaccent" unicode="&#x137;" horiz-adv-x="452" 
d="M137 -79q34 33 48 33q18 0 34 -19.5t16 -39.5q0 -42 -31.5 -68t-49.5 -26q-5 0 -5 4q0 2 10 8q30 18 30 43t-13 36t-26 17t-13 12zM116 176l-20 -147q-3 -30 -35 -30t-32 24q0 21 27 183l20 133q14 97 24.5 178.5t18 124t7.5 44.5q0 19 -25 19l-41 2q-15 0 -15 12
q0 15 15 15q47 2 80.5 8.5t41.5 6.5q18 0 18 -15q0 -4 -7 -46l-9 -58q-22 -129 -40 -267l-9 -69q0 -3 -3 -14q-6 -29 -6 -41.5v-16.5q2 -7 11 -7t70 48t83 84q6 11 15 36.5t20 37.5t29 12q35 0 35 -37q0 -26 -38.5 -60t-77 -57.5t-38.5 -24.5l50 -90q4 -7 11 -20t12 -20
l10 -18q19 -31 25 -35t10 -4q20 0 43 28t27 28q9 0 9 -23t-35 -63t-58 -40t-47.5 34.5t-43.5 76.5q-52 110 -69 110l-24 -13q-15 -10 -21 -12t-10 -5t-4.5 -3t-2 -4t-1.5 -5z" />
    <glyph glyph-name="Lacute" unicode="&#x139;" horiz-adv-x="589" 
d="M192 772.5q10 12.5 20 26.5q22 33 61 107q9 18 20 18t29 -6.5t18 -16.5q0 -16 -69 -85.5t-79 -69.5t-10 7t10 19.5zM174 3l-126 -6q-23 0 -23 13q0 9 7 12t21 7t22.5 11t11.5 11t6 9.5t5 17t4 24.5t5 39.5t7 55t10.5 78t24.5 179.5t18 178q0 53 -61 55q-12 0 -20.5 6
t-8.5 14q0 12 16 12q2 0 15 -2q39 -6 99 -6l91 4q21 0 21 -13q0 -8 -10 -12t-22.5 -7t-24.5 -17t-16 -39q-71 -515 -71 -541.5t18.5 -37t88 -10.5t120 7.5t77 18.5t44.5 23.5t25 23.5q15 26 24 26q12 0 12 -18t-22.5 -55.5t-33.5 -47.5q-27 -24 -61 -24h-47q-47 0 -133 5.5
t-113 5.5z" />
    <glyph glyph-name="lacute" unicode="&#x13a;" horiz-adv-x="261" 
d="M131 806.5q10 12.5 20 26.5q22 33 61 107q9 18 20 18t29 -6.5t18 -16.5q0 -16 -69 -85.5t-79 -69.5t-10 7t10 19.5zM105 705l-29 -1q-29 0 -29 13.5t15 14.5q40 3 75 9t46 6q21 0 21 -16q0 -8 -4.5 -23t-13 -61.5t-14.5 -90t-11.5 -101t-26.5 -200.5t-21 -162.5t3 -26.5
t17.5 -7t29.5 11t23 24q19 36 34 36q12 0 12 -15t-50 -73q-18 -21 -44.5 -35.5t-40 -14.5t-19.5 2t-14 10q-18 15 -18 82q0 43 14 116t16 88t9.5 83t26 186.5t18.5 125.5q0 20 -25 20z" />
    <glyph glyph-name="Lcommaaccent" unicode="&#x13b;" horiz-adv-x="589" 
d="M233 -79q34 33 48 33q18 0 34 -19.5t16 -39.5q0 -42 -31.5 -68t-49.5 -26q-5 0 -5 4q0 2 10 8q30 18 30 43t-13 36t-26 17t-13 12zM174 3l-126 -6q-23 0 -23 13q0 9 7 12t21 7t22.5 11t11.5 11t6 9.5t5 17t4 24.5t5 39.5t7 55t10.5 78t24.5 179.5t18 178q0 53 -61 55
q-12 0 -20.5 6t-8.5 14q0 12 16 12q2 0 15 -2q39 -6 99 -6l91 4q21 0 21 -13q0 -8 -10 -12t-22.5 -7t-24.5 -17t-16 -39q-71 -515 -71 -541.5t18.5 -37t88 -10.5t120 7.5t77 18.5t44.5 23.5t25 23.5q15 26 24 26q12 0 12 -18t-22.5 -55.5t-33.5 -47.5q-27 -24 -61 -24h-47
q-47 0 -133 5.5t-113 5.5z" />
    <glyph glyph-name="lcommaaccent" unicode="&#x13c;" horiz-adv-x="261" 
d="M51 -79q34 33 48 33q18 0 34 -19.5t16 -39.5q0 -42 -31.5 -68t-49.5 -26q-5 0 -5 4q0 2 10 8q30 18 30 43t-13 36t-26 17t-13 12zM105 705l-29 -1q-29 0 -29 13.5t15 14.5q40 3 75 9t46 6q21 0 21 -16q0 -8 -4.5 -23t-13 -61.5t-14.5 -90t-11.5 -101t-26.5 -200.5
t-21 -162.5t3 -26.5t17.5 -7t29.5 11t23 24q19 36 34 36q12 0 12 -15t-50 -73q-18 -21 -44.5 -35.5t-40 -14.5t-19.5 2t-14 10q-18 15 -18 82q0 43 14 116t16 88t9.5 83t26 186.5t18.5 125.5q0 20 -25 20z" />
    <glyph glyph-name="Lcaron" unicode="&#x13d;" horiz-adv-x="589" 
d="M385 717q34 32 48 32q17 0 33 -19.5t16 -39.5q0 -42 -31 -67.5t-49 -25.5q-6 0 -6 4q0 2 10 8q31 19 31 43.5t-13 35.5t-26 17t-13 12zM174 3l-126 -6q-23 0 -23 13q0 9 7 12t21 7t22.5 11t11.5 11t6 9.5t5 17t4 24.5t5 39.5t7 55t10.5 78t24.5 179.5t18 178q0 53 -61 55
q-12 0 -20.5 6t-8.5 14q0 12 16 12q2 0 15 -2q39 -6 99 -6l91 4q21 0 21 -13q0 -8 -10 -12t-22.5 -7t-24.5 -17t-16 -39q-71 -515 -71 -541.5t18.5 -37t88 -10.5t120 7.5t77 18.5t44.5 23.5t25 23.5q15 26 24 26q12 0 12 -18t-22.5 -55.5t-33.5 -47.5q-27 -24 -61 -24h-47
q-47 0 -133 5.5t-113 5.5z" />
    <glyph glyph-name="lcaron" unicode="&#x13e;" horiz-adv-x="261" 
d="M232 717q34 32 48 32q17 0 33 -19.5t16 -39.5q0 -42 -31 -67.5t-49 -25.5q-6 0 -6 4q0 2 10 8q31 19 31 43.5t-13 35.5t-26 17t-13 12zM105 705l-29 -1q-29 0 -29 13.5t15 14.5q40 3 75 9t46 6q21 0 21 -16q0 -8 -4.5 -23t-13 -61.5t-14.5 -90t-11.5 -101t-26.5 -200.5
t-21 -162.5t3 -26.5t17.5 -7t29.5 11t23 24q19 36 34 36q12 0 12 -15t-50 -73q-18 -21 -44.5 -35.5t-40 -14.5t-19.5 2t-14 10q-18 15 -18 82q0 43 14 116t16 88t9.5 83t26 186.5t18.5 125.5q0 20 -25 20z" />
    <glyph glyph-name="Ldot" unicode="&#x13f;" horiz-adv-x="596" 
d="M415 300.5q-16 22.5 -16 31t18.5 30.5t31.5 22t25.5 -19t12.5 -33.5t-18 -34t-28 -19.5t-26 22.5zM174 3l-126 -6q-23 0 -23 13q0 9 7 12t21 7t22.5 11t11.5 11t6 9.5t5 17t4 24.5t5 39.5t7 55t10.5 78t24.5 179.5t18 178q0 53 -61 55q-12 0 -20.5 6t-8.5 14q0 12 16 12
q2 0 15 -2q39 -6 99 -6l91 4q21 0 21 -13q0 -8 -10 -12t-22.5 -7t-24.5 -17t-16 -39q-71 -515 -71 -541.5t18.5 -37t88 -10.5t120 7.5t77 18.5t44.5 23.5t25 23.5q15 26 24 26q12 0 12 -18t-22.5 -55.5t-33.5 -47.5q-27 -24 -61 -24h-47q-47 0 -133 5.5t-113 5.5z" />
    <glyph glyph-name="ldot" unicode="&#x140;" horiz-adv-x="532" 
d="M351 300.5q-16 22.5 -16 31t18.5 30.5t31.5 22t25.5 -19t12.5 -33.5t-18 -34t-28 -19.5t-26 22.5zM105 705l-29 -1q-29 0 -29 13.5t15 14.5q40 3 75 9t46 6q21 0 21 -16q0 -8 -4.5 -23t-13 -61.5t-14.5 -90t-11.5 -101t-26.5 -200.5t-21 -162.5t3 -26.5t17.5 -7t29.5 11
t23 24q19 36 34 36q12 0 12 -15t-50 -73q-18 -21 -44.5 -35.5t-40 -14.5t-19.5 2t-14 10q-18 15 -18 82q0 43 14 116t16 88t9.5 83t26 186.5t18.5 125.5q0 20 -25 20z" />
    <glyph glyph-name="Lslash" unicode="&#x141;" horiz-adv-x="584" 
d="M169 3l-126 -6q-23 0 -23 13q0 9 7 12t21 7t26.5 15t18 33t14 96t11 92.5t2.5 22.5l1 4q0 5 -4 5t-8 -2l-50 -18q-6 -2 -10 -2q-12 0 -12 19.5t8 23.5l72 25q12 4 14 24q31 221 31 265q0 53 -61 55q-12 0 -20.5 6t-8.5 14q0 12 16 12q2 0 15 -2q39 -6 99 -6l91 4
q21 0 21 -13q0 -8 -10 -12t-22.5 -7t-24.5 -17t-16 -39l-17 -120q-16 -120 -16 -124t4 -4l8 2l210 80q12 6 19 6q10 0 10 -16.5t-5.5 -23t-20.5 -11.5l-218 -82q-15 -5 -17 -22q-28 -217 -28 -219q0 -34 18.5 -44.5t88 -10.5t120 7.5t77 18.5t44.5 23.5t24 23.5q16 26 25 26
q12 0 12 -18t-22.5 -55.5t-33.5 -47.5q-27 -24 -61 -24h-47q-47 0 -133 5.5t-113 5.5z" />
    <glyph glyph-name="lslash" unicode="&#x142;" horiz-adv-x="261" 
d="M79 339l-64 -28q-9 0 -9 21.5t10 24.5l62 28q9 4 11 21q7 61 24 166t17 113q0 20 -25 20l-29 -1q-29 0 -29 13.5t15 14.5q40 3 75 9t46 6q21 0 21 -16q0 -3 -7 -37q-26 -128 -32.5 -195t-6.5 -70t2 -3t4 1q4 3 10 5l17 8q36 18 40.5 18h6.5q5 -2 5 -13t-0.5 -15.5
t-2.5 -7.5t-3 -5.5t-5 -4.5t-5 -3q-5 -5 -11 -5l-51 -24q-13 -6 -15 -12.5t-19.5 -128t-17.5 -144t3 -29.5t17.5 -7t29.5 11t23 24q19 36 34 36q12 0 12 -15t-50 -73q-18 -21 -44.5 -35.5t-40 -14.5t-19.5 2t-14 10q-18 15 -18 82q0 49 17.5 147t17.5 102t-2 4z" />
    <glyph glyph-name="Nacute" unicode="&#x143;" horiz-adv-x="804" 
d="M400 772.5q10 12.5 20 26.5q22 33 61 107q9 18 20 18t29 -6.5t18 -16.5q0 -16 -69 -85.5t-79 -69.5t-10 7t10 19.5zM107 -2l-65 -3q-22 0 -22 11q0 9 14 12q20 6 28 13.5t14.5 15.5t11.5 21.5t8 24t7.5 35t7 41.5t8.5 56t9 60t11.5 71.5t12.5 80.5q14 90 14 118.5
t-2 39.5t-4 17t-9 14.5t-9 11t-12.5 12t-12.5 11.5q-12 11 -35 12.5t-38.5 3t-15.5 14.5q0 19 67 19l42 -3l30 1q17 0 23.5 -7.5t8.5 -10.5t7.5 -10.5t9.5 -13.5q237 -328 349 -507q20 -32 26 -32q19 0 48.5 228.5t29.5 258.5t-12.5 45t-28.5 17q-40 7 -40 26q0 10 25 10
l76 -4l70 4q16 0 21 -3t5 -8.5t-1.5 -7.5t-5.5 -3.5t-7 -1.5q-41 -7 -54 -45t-21 -105q-42 -353 -78 -517q-1 -8 -7 -17.5t-13.5 -9.5t-15.5 9t-23 33t-33 54q-64 105 -113.5 175.5t-79 112.5t-45 63.5t-28.5 39.5q-21 29 -27.5 42t-16.5 13q-14 0 -19 -47
q-11 -111 -32 -239.5t-21 -169t39 -52.5q4 -1 11.5 -3t11.5 -3t9 -3q9 -4 9 -12q0 -12 -17 -12q-5 0 -26 1.5t-74 1.5z" />
    <glyph glyph-name="nacute" unicode="&#x144;" horiz-adv-x="526" 
d="M274 508.5q10 12.5 20 26.5q22 33 61 107q9 18 20 18t29 -6.5t18 -16.5q0 -16 -69 -85.5t-79 -69.5t-10 7t10 19.5zM61.5 330q-18.5 -28 -28 -28t-9.5 24.5t35 66.5t62 42t36 -26.5t9 -52.5t2 -26t6 6q20 26 44 44q73 57 122 57q84 0 84 -125q0 -40 -8.5 -119t-8.5 -91
q0 -36 19 -36q18 0 40 22q3 3 7.5 10t6.5 10q8 7 17 7t9 -12q0 -29 -49.5 -69t-82.5 -40q-15 0 -26 18.5t-11 53t10.5 129.5t10.5 109t-3 29.5t-20.5 34t-49 18.5t-62.5 -44q-14 -20 -20 -29t-11 -24.5t-6 -24.5q-8 -45 -17.5 -97.5t-14 -82t-5 -38t-1 -14t-1.5 -14.5
q-2 -20 -30 -20t-34.5 5t-6.5 24t22 126t22 140.5t-7.5 49t-15.5 15.5q-17 0 -35.5 -28z" />
    <glyph glyph-name="Ncommaaccent" unicode="&#x145;" horiz-adv-x="804" 
d="M302 -79q34 33 48 33q18 0 34 -19.5t16 -39.5q0 -42 -31.5 -68t-49.5 -26q-5 0 -5 4q0 2 10 8q30 18 30 43t-13 36t-26 17t-13 12zM107 -2l-65 -3q-22 0 -22 11q0 9 14 12q20 6 28 13.5t14.5 15.5t11.5 21.5t8 24t7.5 35t7 41.5t8.5 56t9 60t11.5 71.5t12.5 80.5
q14 90 14 118.5t-2 39.5t-4 17t-9 14.5t-9 11t-12.5 12t-12.5 11.5q-12 11 -35 12.5t-38.5 3t-15.5 14.5q0 19 67 19l42 -3l30 1q17 0 23.5 -7.5t8.5 -10.5t7.5 -10.5t9.5 -13.5q237 -328 349 -507q20 -32 26 -32q19 0 48.5 228.5t29.5 258.5t-12.5 45t-28.5 17
q-40 7 -40 26q0 10 25 10l76 -4l70 4q16 0 21 -3t5 -8.5t-1.5 -7.5t-5.5 -3.5t-7 -1.5q-41 -7 -54 -45t-21 -105q-42 -353 -78 -517q-1 -8 -7 -17.5t-13.5 -9.5t-15.5 9t-23 33t-33 54q-64 105 -113.5 175.5t-79 112.5t-45 63.5t-28.5 39.5q-21 29 -27.5 42t-16.5 13
q-14 0 -19 -47q-11 -111 -32 -239.5t-21 -169t39 -52.5q4 -1 11.5 -3t11.5 -3t9 -3q9 -4 9 -12q0 -12 -17 -12q-5 0 -26 1.5t-74 1.5z" />
    <glyph glyph-name="ncommaaccent" unicode="&#x146;" horiz-adv-x="526" 
d="M193 -79q34 33 48 33q18 0 34 -19.5t16 -39.5q0 -42 -31.5 -68t-49.5 -26q-5 0 -5 4q0 2 10 8q30 18 30 43t-13 36t-26 17t-13 12zM61.5 330q-18.5 -28 -28 -28t-9.5 24.5t35 66.5t62 42t36 -26.5t9 -52.5t2 -26t6 6q20 26 44 44q73 57 122 57q84 0 84 -125
q0 -40 -8.5 -119t-8.5 -91q0 -36 19 -36q18 0 40 22q3 3 7.5 10t6.5 10q8 7 17 7t9 -12q0 -29 -49.5 -69t-82.5 -40q-15 0 -26 18.5t-11 53t10.5 129.5t10.5 109t-3 29.5t-20.5 34t-49 18.5t-62.5 -44q-14 -20 -20 -29t-11 -24.5t-6 -24.5q-8 -45 -17.5 -97.5t-14 -82
t-5 -38t-1 -14t-1.5 -14.5q-2 -20 -30 -20t-34.5 5t-6.5 24t22 126t22 140.5t-7.5 49t-15.5 15.5q-17 0 -35.5 -28z" />
    <glyph glyph-name="Ncaron" unicode="&#x147;" horiz-adv-x="804" 
d="M331 904.5q0 5.5 7 5.5h2q6 0 47.5 -42.5t47.5 -42.5t34 24.5t38.5 34.5t14.5 14q11 11 19.5 11t8.5 -4.5t-9 -16t-22.5 -29.5t-22.5 -30.5t-16.5 -23.5t-11.5 -17.5t-8 -12.5l-6 -9q-5 -8 -12 -8h-26q-10 0 -14 10q-15 32 -43 81.5t-28 55zM107 -2l-65 -3q-22 0 -22 11
q0 9 14 12q20 6 28 13.5t14.5 15.5t11.5 21.5t8 24t7.5 35t7 41.5t8.5 56t9 60t11.5 71.5t12.5 80.5q14 90 14 118.5t-2 39.5t-4 17t-9 14.5t-9 11t-12.5 12t-12.5 11.5q-12 11 -35 12.5t-38.5 3t-15.5 14.5q0 19 67 19l42 -3l30 1q17 0 23.5 -7.5t8.5 -10.5t7.5 -10.5
t9.5 -13.5q237 -328 349 -507q20 -32 26 -32q19 0 48.5 228.5t29.5 258.5t-12.5 45t-28.5 17q-40 7 -40 26q0 10 25 10l76 -4l70 4q16 0 21 -3t5 -8.5t-1.5 -7.5t-5.5 -3.5t-7 -1.5q-41 -7 -54 -45t-21 -105q-42 -353 -78 -517q-1 -8 -7 -17.5t-13.5 -9.5t-15.5 9t-23 33
t-33 54q-64 105 -113.5 175.5t-79 112.5t-45 63.5t-28.5 39.5q-21 29 -27.5 42t-16.5 13q-14 0 -19 -47q-11 -111 -32 -239.5t-21 -169t39 -52.5q4 -1 11.5 -3t11.5 -3t9 -3q9 -4 9 -12q0 -12 -17 -12q-5 0 -26 1.5t-74 1.5z" />
    <glyph glyph-name="ncaron" unicode="&#x148;" horiz-adv-x="526" 
d="M205 640.5q0 5.5 7 5.5h2q6 0 47.5 -42.5t47.5 -42.5t34 24.5t38.5 34.5t14.5 14q11 11 19.5 11t8.5 -4.5t-9 -16t-22.5 -29.5t-22.5 -30.5t-16.5 -23.5t-11.5 -17.5t-8 -12.5l-6 -9q-5 -8 -12 -8h-26q-10 0 -14 10q-15 32 -43 81.5t-28 55zM61.5 330q-18.5 -28 -28 -28
t-9.5 24.5t35 66.5t62 42t36 -26.5t9 -52.5t2 -26t6 6q20 26 44 44q73 57 122 57q84 0 84 -125q0 -40 -8.5 -119t-8.5 -91q0 -36 19 -36q18 0 40 22q3 3 7.5 10t6.5 10q8 7 17 7t9 -12q0 -29 -49.5 -69t-82.5 -40q-15 0 -26 18.5t-11 53t10.5 129.5t10.5 109t-3 29.5
t-20.5 34t-49 18.5t-62.5 -44q-14 -20 -20 -29t-11 -24.5t-6 -24.5q-8 -45 -17.5 -97.5t-14 -82t-5 -38t-1 -14t-1.5 -14.5q-2 -20 -30 -20t-34.5 5t-6.5 24t22 126t22 140.5t-7.5 49t-15.5 15.5q-17 0 -35.5 -28z" />
    <glyph glyph-name="napostrophe" unicode="&#x149;" horiz-adv-x="736" 
d="M271.5 330q-18.5 -28 -28 -28t-9.5 24.5t35 66.5t62 42t36 -26.5t9 -52.5t2 -26t6 6q20 26 44 44q73 57 122 57q84 0 84 -125q0 -40 -8.5 -119t-8.5 -91q0 -36 19 -36q18 0 40 22q3 3 7.5 10t6.5 10q8 7 17 7t9 -12q0 -29 -49.5 -69t-82.5 -40q-15 0 -26 18.5t-11 53
t10.5 129.5t10.5 109t-3 29.5t-20.5 34t-49 18.5t-62.5 -44q-14 -20 -20 -29t-11 -24.5t-6 -24.5q-8 -45 -17.5 -97.5t-14 -82t-5 -38t-1 -14t-1.5 -14.5q-2 -20 -30 -20t-34.5 5t-6.5 24t22 126t22 140.5t-7.5 49t-15.5 15.5q-17 0 -35.5 -28zM51 460q30 20 43 53t13 51
t-8 32.5t-17.5 21.5t-17.5 15t-8 17t21.5 33.5t35.5 24.5q9 0 19.5 -10t17.5 -21q16 -28 16 -74.5t-26 -90t-53 -64.5t-39 -21t-12 12t15 21z" />
    <glyph glyph-name="Omacron" unicode="&#x14c;" horiz-adv-x="815" 
d="M535 827l-188 1q-8 0 -8 17q0 27 20 27l180 -2q8 0 10.5 -2.5t2.5 -11.5q0 -29 -17 -29zM39 314q0 74 26.5 145t75.5 129t125.5 93t164.5 35t155.5 -28.5t107.5 -76.5q82 -98 82 -235q0 -148 -92 -266q-46 -59 -121 -94.5t-169 -35.5q-160 0 -257.5 92t-97.5 242z
M125 347q0 -154 82 -242.5t194 -88.5q87 0 154.5 55t100 136.5t32.5 171t-21 142.5q-29 75 -92.5 120t-144.5 45t-139 -32.5t-93 -83.5q-73 -106 -73 -223z" />
    <glyph glyph-name="omacron" unicode="&#x14d;" horiz-adv-x="446" 
d="M364 563l-188 1q-8 0 -8 17q0 27 20 27l180 -2q8 0 10.5 -2.5t2.5 -11.5q0 -29 -17 -29zM75.5 36q-43.5 46 -43.5 140.5t64.5 176.5t171.5 82q71 0 108.5 -50.5t37.5 -121t-25.5 -130.5t-79.5 -101.5t-122 -41.5t-111.5 46zM181 371.5q-35 -33.5 -53.5 -97.5t-18.5 -121
t24.5 -95t62.5 -38t67.5 27t44.5 67q32 83 32 153t-24.5 104t-62 34t-72.5 -33.5z" />
    <glyph glyph-name="Obreve" unicode="&#x14e;" horiz-adv-x="815" 
d="M342 872q0 19 5 19h11q3 0 7 -11t10.5 -24t26.5 -24t49.5 -11t50.5 11t30 24t15.5 24t9.5 11h7q7 0 7 -2q0 -20 -29 -67q-14 -22 -40.5 -38t-66 -16t-66.5 31.5t-27 72.5zM39 314q0 74 26.5 145t75.5 129t125.5 93t164.5 35t155.5 -28.5t107.5 -76.5q82 -98 82 -235
q0 -148 -92 -266q-46 -59 -121 -94.5t-169 -35.5q-160 0 -257.5 92t-97.5 242zM125 347q0 -154 82 -242.5t194 -88.5q87 0 154.5 55t100 136.5t32.5 171t-21 142.5q-29 75 -92.5 120t-144.5 45t-139 -32.5t-93 -83.5q-73 -106 -73 -223z" />
    <glyph glyph-name="obreve" unicode="&#x14f;" horiz-adv-x="446" 
d="M171 608q0 19 5 19h11q3 0 7 -11t10.5 -24t26.5 -24t49.5 -11t50.5 11t30 24t15.5 24t9.5 11h7q7 0 7 -2q0 -20 -29 -67q-14 -22 -40.5 -38t-66 -16t-66.5 31.5t-27 72.5zM75.5 36q-43.5 46 -43.5 140.5t64.5 176.5t171.5 82q71 0 108.5 -50.5t37.5 -121t-25.5 -130.5
t-79.5 -101.5t-122 -41.5t-111.5 46zM181 371.5q-35 -33.5 -53.5 -97.5t-18.5 -121t24.5 -95t62.5 -38t67.5 27t44.5 67q32 83 32 153t-24.5 104t-62 34t-72.5 -33.5z" />
    <glyph glyph-name="Ohungarumlaut" unicode="&#x150;" horiz-adv-x="815" 
d="M335 754q0 5 9.5 18t18.5 27q28 40 63 107q9 18 20 18t29 -6.5t18 -16.5q0 -17 -69 -86t-79 -69t-10 8zM498 772.5q10 12.5 19 26.5q28 40 63 107q9 18 20 18t29 -6.5t18 -16.5q0 -17 -69 -86t-79.5 -69t-10.5 7t10 19.5zM39 314q0 74 26.5 145t75.5 129t125.5 93
t164.5 35t155.5 -28.5t107.5 -76.5q82 -98 82 -235q0 -148 -92 -266q-46 -59 -121 -94.5t-169 -35.5q-160 0 -257.5 92t-97.5 242zM125 347q0 -154 82 -242.5t194 -88.5q87 0 154.5 55t100 136.5t32.5 171t-21 142.5q-29 75 -92.5 120t-144.5 45t-139 -32.5t-93 -83.5
q-73 -106 -73 -223z" />
    <glyph glyph-name="ohungarumlaut" unicode="&#x151;" horiz-adv-x="446" 
d="M164 490q0 5 9.5 18t18.5 27q28 40 63 107q9 18 20 18t29 -6.5t18 -16.5q0 -17 -69 -86t-79 -69t-10 8zM327 508.5q10 12.5 19 26.5q28 40 63 107q9 18 20 18t29 -6.5t18 -16.5q0 -17 -69 -86t-79.5 -69t-10.5 7t10 19.5zM75.5 36q-43.5 46 -43.5 140.5t64.5 176.5
t171.5 82q71 0 108.5 -50.5t37.5 -121t-25.5 -130.5t-79.5 -101.5t-122 -41.5t-111.5 46zM181 371.5q-35 -33.5 -53.5 -97.5t-18.5 -121t24.5 -95t62.5 -38t67.5 27t44.5 67q32 83 32 153t-24.5 104t-62 34t-72.5 -33.5z" />
    <glyph glyph-name="OE" unicode="&#x152;" horiz-adv-x="1047" 
d="M702 339l-32 1h-6q-37 0 -38 -18q-3 -30 -12 -90q-24 -147 -24 -158q0 -22 21 -29t105.5 -7t144 15.5t81 33.5t36 33.5t20.5 15.5q10 0 10 -13q0 -27 -42.5 -80t-74.5 -53q-72 0 -179 5t-147.5 5t-79.5 -10t-91 -10q-160 0 -257.5 92t-97.5 242q0 74 26.5 145t75.5 129
t125.5 93t167.5 35q7 0 74 -6.5t276 -6.5l231 5q17 0 17 -20l-3 -52l3 -54q0 -10 -3.5 -19.5t-9.5 -9.5q-15 0 -15 24q0 44 -33 64q-10 6 -35.5 13t-56.5 7l-154 3q-45 0 -54 -10t-17 -57q-24 -168 -24 -203q0 -10 7 -12.5t86 -2.5t109.5 4.5t42 18.5t17.5 28t9 20t9 6
q12 0 12 -11t-8 -49.5t-10 -52t-3 -42.5q-2 -60 -17 -60q-10 0 -10 17q0 47 -18 60q-28 21 -106 21h-48zM125 347q0 -154 82 -242.5t194 -88.5q43 0 57 5.5t21.5 8t14 12.5t10 14.5t7.5 20.5t5 23q10 62 18.5 112.5t12.5 81.5l36 303q1 9 1 24t-21 29.5t-51 21.5
q-60 14 -92 14q-71 0 -129 -32.5t-93 -83.5q-73 -106 -73 -223z" />
    <glyph glyph-name="oe" unicode="&#x153;" horiz-adv-x="701" 
d="M76.5 34.5q-44.5 47.5 -44.5 142t64.5 176.5t171.5 82q30 0 54.5 -10t38 -23.5t22.5 -27.5t13 -24t5 -10q3 0 16 15t31.5 33t54.5 33t76 15t65 -21t25 -53.5t-21.5 -61t-39.5 -40.5q-70 -45 -192 -46q-18 0 -18 -49.5t36 -83t108 -33.5q42 0 90 32q15 11 18 11
q13 0 13 -10q0 -21 -57.5 -57t-116.5 -36q-103 0 -141 66l-3 8l-7 -8q-67 -67 -152 -67q-65 0 -109.5 47.5zM181 371.5q-35 -33.5 -53.5 -97.5t-18.5 -121t24.5 -95t62.5 -38t67.5 27t44.5 67q32 83 32 153t-24.5 104t-62 34t-72.5 -33.5zM429 301q-16 -37 -16 -53.5
t8 -16.5q71 0 125 40t54 88q0 25 -17.5 36t-35.5 11q-37 0 -82 -47q-20 -21 -36 -58z" />
    <glyph glyph-name="Racute" unicode="&#x154;" horiz-adv-x="637" 
d="M304 772.5q10 12.5 20 26.5q22 33 61 107q9 18 20 18t29 -6.5t18 -16.5q0 -16 -69 -85.5t-79 -69.5t-10 7t10 19.5zM227 -3l-75 6q-29 0 -66.5 -4.5t-38.5 -4.5q-27 0 -27 15q0 10 6.5 14t21 8t24.5 9q14 8 18.5 30.5t18 144.5t20.5 180t13.5 107t11 82.5t4.5 39.5
q0 49 -62 54q-32 2 -32 12.5t6.5 14t23.5 3.5l81 -6q25 0 73.5 4t93 4t65.5 -2q68 -6 108 -49t40 -101.5t-40.5 -110t-118.5 -78.5q-9 -3 -9 -15.5t51.5 -129t77.5 -150.5q35 -48 82 -48q19 0 19 -11q0 -23 -64.5 -23t-87.5 18.5t-51.5 82t-55 135t-38.5 97t-24 25.5l-46 -1
l-35 1q-11 0 -16 -17t-10 -71l-14 -141l-3 -35q0 -23 14 -36.5t30 -17.5q45 -9 45 -22t-34 -13zM208 412q0 -26 31 -26h14q89 0 121.5 7.5t55.5 37.5q38 50 38 108.5t-37.5 97.5t-105.5 39q-45 0 -67 -12t-25 -53t-9.5 -88.5t-11 -76.5t-4.5 -34z" />
    <glyph glyph-name="racute" unicode="&#x155;" horiz-adv-x="352" 
d="M178 508.5q10 12.5 20 26.5q22 33 61 107q9 18 20 18t29 -6.5t18 -16.5q0 -16 -69 -85.5t-79 -69.5t-10 7t10 19.5zM331 368q-5 -38 -22 -38q-9 0 -15 10.5t-15 21t-24 10.5q-29 0 -49 -60t-26 -113l-5 -33q-18 -141 -26 -157q-10 -13 -30 -13h-5q-30 0 -30 26
q0 16 21.5 118t21.5 144q0 68 -34 68q-18 0 -30 -14.5t-18 -33t-9.5 -22t-8.5 -3.5q-12 0 -12 17q0 64 31 98q35 40 61 40t39 -35q25 -66 28 -66q1 0 19 25.5t48.5 51.5t56 26t35 -9.5t9.5 -19.5t-5.5 -24t-5.5 -15z" />
    <glyph glyph-name="Rcommaaccent" unicode="&#x156;" horiz-adv-x="637" 
d="M252 -79q34 33 48 33q18 0 34 -19.5t16 -39.5q0 -42 -31.5 -68t-49.5 -26q-5 0 -5 4q0 2 10 8q30 18 30 43t-13 36t-26 17t-13 12zM227 -3l-75 6q-29 0 -66.5 -4.5t-38.5 -4.5q-27 0 -27 15q0 10 6.5 14t21 8t24.5 9q14 8 18.5 30.5t18 144.5t20.5 180t13.5 107t11 82.5
t4.5 39.5q0 49 -62 54q-32 2 -32 12.5t6.5 14t23.5 3.5l81 -6q25 0 73.5 4t93 4t65.5 -2q68 -6 108 -49t40 -101.5t-40.5 -110t-118.5 -78.5q-9 -3 -9 -15.5t51.5 -129t77.5 -150.5q35 -48 82 -48q19 0 19 -11q0 -23 -64.5 -23t-87.5 18.5t-51.5 82t-55 135t-38.5 97
t-24 25.5l-46 -1l-35 1q-11 0 -16 -17t-10 -71l-14 -141l-3 -35q0 -23 14 -36.5t30 -17.5q45 -9 45 -22t-34 -13zM208 412q0 -26 31 -26h14q89 0 121.5 7.5t55.5 37.5q38 50 38 108.5t-37.5 97.5t-105.5 39q-45 0 -67 -12t-25 -53t-9.5 -88.5t-11 -76.5t-4.5 -34z" />
    <glyph glyph-name="rcommaaccent" unicode="&#x157;" horiz-adv-x="352" 
d="M66 -79q34 33 48 33q18 0 34 -19.5t16 -39.5q0 -42 -31.5 -68t-49.5 -26q-5 0 -5 4q0 2 10 8q30 18 30 43t-13 36t-26 17t-13 12zM331 368q-5 -38 -22 -38q-9 0 -15 10.5t-15 21t-24 10.5q-29 0 -49 -60t-26 -113l-5 -33q-18 -141 -26 -157q-10 -13 -30 -13h-5
q-30 0 -30 26q0 16 21.5 118t21.5 144q0 68 -34 68q-18 0 -30 -14.5t-18 -33t-9.5 -22t-8.5 -3.5q-12 0 -12 17q0 64 31 98q35 40 61 40t39 -35q25 -66 28 -66q1 0 19 25.5t48.5 51.5t56 26t35 -9.5t9.5 -19.5t-5.5 -24t-5.5 -15z" />
    <glyph glyph-name="Rcaron" unicode="&#x158;" horiz-adv-x="637" 
d="M235 904.5q0 5.5 7 5.5h2q6 0 47.5 -42.5t47.5 -42.5t34 24.5t38.5 34.5t14.5 14q11 11 19.5 11t8.5 -4.5t-9 -16t-22.5 -29.5t-22.5 -30.5t-16.5 -23.5t-11.5 -17.5t-8 -12.5l-6 -9q-5 -8 -12 -8h-26q-10 0 -14 10q-15 32 -43 81.5t-28 55zM227 -3l-75 6
q-29 0 -66.5 -4.5t-38.5 -4.5q-27 0 -27 15q0 10 6.5 14t21 8t24.5 9q14 8 18.5 30.5t18 144.5t20.5 180t13.5 107t11 82.5t4.5 39.5q0 49 -62 54q-32 2 -32 12.5t6.5 14t23.5 3.5l81 -6q25 0 73.5 4t93 4t65.5 -2q68 -6 108 -49t40 -101.5t-40.5 -110t-118.5 -78.5
q-9 -3 -9 -15.5t51.5 -129t77.5 -150.5q35 -48 82 -48q19 0 19 -11q0 -23 -64.5 -23t-87.5 18.5t-51.5 82t-55 135t-38.5 97t-24 25.5l-46 -1l-35 1q-11 0 -16 -17t-10 -71l-14 -141l-3 -35q0 -23 14 -36.5t30 -17.5q45 -9 45 -22t-34 -13zM208 412q0 -26 31 -26h14
q89 0 121.5 7.5t55.5 37.5q38 50 38 108.5t-37.5 97.5t-105.5 39q-45 0 -67 -12t-25 -53t-9.5 -88.5t-11 -76.5t-4.5 -34z" />
    <glyph glyph-name="rcaron" unicode="&#x159;" horiz-adv-x="352" 
d="M109 640.5q0 5.5 7 5.5h2q6 0 47.5 -42.5t47.5 -42.5t34 24.5t38.5 34.5t14.5 14q11 11 19.5 11t8.5 -4.5t-9 -16t-22.5 -29.5t-22.5 -30.5t-16.5 -23.5t-11.5 -17.5t-8 -12.5l-6 -9q-5 -8 -12 -8h-26q-10 0 -14 10q-15 32 -43 81.5t-28 55zM331 368q-5 -38 -22 -38
q-9 0 -15 10.5t-15 21t-24 10.5q-29 0 -49 -60t-26 -113l-5 -33q-18 -141 -26 -157q-10 -13 -30 -13h-5q-30 0 -30 26q0 16 21.5 118t21.5 144q0 68 -34 68q-18 0 -30 -14.5t-18 -33t-9.5 -22t-8.5 -3.5q-12 0 -12 17q0 64 31 98q35 40 61 40t39 -35q25 -66 28 -66
q1 0 19 25.5t48.5 51.5t56 26t35 -9.5t9.5 -19.5t-5.5 -24t-5.5 -15z" />
    <glyph glyph-name="Sacute" unicode="&#x15a;" horiz-adv-x="481" 
d="M245 772.5q10 12.5 20 26.5q22 33 61 107q9 18 20 18t29 -6.5t18 -16.5q0 -16 -69 -85.5t-79 -69.5t-10 7t10 19.5zM441 676l-1 -35v-17q0 -15 6 -48t6 -40t-5.5 -12.5t-12.5 -5.5t-12 9.5t-8 24t-16.5 37.5t-35.5 45q-49 48 -119 48q-58 0 -77 -34q-15 -28 -15 -59
t19.5 -65.5t41.5 -57.5t66 -64t72 -70t43.5 -48.5t29 -53t13.5 -65.5t-10.5 -59t-35 -55.5t-73.5 -46.5t-135.5 -18t-124.5 22q-14 8 -25.5 53t-11.5 70.5t16 25.5q7 0 11 -11q16 -52 60.5 -88t116.5 -36q42 0 72.5 12t44.5 31q25 34 25 68t-17 63t-54 66l-117 116
q-95 97 -95 177q0 39 11 67t23 40q51 54 134 54q35 0 88.5 -17.5t56 -17.5t15 8t17.5 8q13 0 13 -21z" />
    <glyph glyph-name="sacute" unicode="&#x15b;" horiz-adv-x="333" 
d="M178 508.5q10 12.5 20 26.5q22 33 61 107q9 18 20 18t29 -6.5t18 -16.5q0 -16 -69 -85.5t-79 -69.5t-10 7t10 19.5zM50.5 3.5q-35.5 15.5 -35.5 51t32 35.5q17 0 28 -11t16 -23.5t18 -23.5t35.5 -11t40.5 8t25 20q12 21 12 37t-4 29.5t-18.5 31.5t-19.5 23l-51.5 51.5
t-29 31.5t-13.5 21q-11 25 -11 50q0 50 38.5 81.5t97.5 31.5q93 0 93 -52q0 -14 -9 -23q-12 -11 -29.5 -11t-38 28t-40.5 28q-53 0 -53 -53q0 -31 51 -78q27 -25 29.5 -28t17 -18.5t20 -23t14.5 -22.5q16 -25 16 -53t-7 -48t-22.5 -42.5t-48.5 -37.5t-75.5 -15t-78 15.5z
" />
    <glyph glyph-name="Scircumflex" unicode="&#x15c;" horiz-adv-x="481" 
d="M223.5 801q-48.5 -42 -55 -42t-6.5 2.5t10 15.5t23.5 31t22.5 30.5t16.5 23.5t11.5 18t8 13l6 9q5 8 12 8h26q10 0 14 -10q14 -30 33 -63q38 -69 38 -74t-8 -5t-49.5 42.5t-47.5 42.5t-54.5 -42zM441 676l-1 -35v-17q0 -15 6 -48t6 -40t-5.5 -12.5t-12.5 -5.5t-12 9.5
t-8 24t-16.5 37.5t-35.5 45q-49 48 -119 48q-58 0 -77 -34q-15 -28 -15 -59t19.5 -65.5t41.5 -57.5t66 -64t72 -70t43.5 -48.5t29 -53t13.5 -65.5t-10.5 -59t-35 -55.5t-73.5 -46.5t-135.5 -18t-124.5 22q-14 8 -25.5 53t-11.5 70.5t16 25.5q7 0 11 -11q16 -52 60.5 -88
t116.5 -36q42 0 72.5 12t44.5 31q25 34 25 68t-17 63t-54 66l-117 116q-95 97 -95 177q0 39 11 67t23 40q51 54 134 54q35 0 88.5 -17.5t56 -17.5t15 8t17.5 8q13 0 13 -21z" />
    <glyph glyph-name="scircumflex" unicode="&#x15d;" horiz-adv-x="333" 
d="M156.5 537q-48.5 -42 -55 -42t-6.5 2.5t10 15.5t23.5 31t22.5 30.5t16.5 23.5t11.5 18t8 13l6 9q5 8 12 8h26q10 0 14 -10q14 -30 33 -63q38 -69 38 -74t-8 -5t-49.5 42.5t-47.5 42.5t-54.5 -42zM50.5 3.5q-35.5 15.5 -35.5 51t32 35.5q17 0 28 -11t16 -23.5t18 -23.5
t35.5 -11t40.5 8t25 20q12 21 12 37t-4 29.5t-18.5 31.5t-19.5 23l-51.5 51.5t-29 31.5t-13.5 21q-11 25 -11 50q0 50 38.5 81.5t97.5 31.5q93 0 93 -52q0 -14 -9 -23q-12 -11 -29.5 -11t-38 28t-40.5 28q-53 0 -53 -53q0 -31 51 -78q27 -25 29.5 -28t17 -18.5t20 -23
t14.5 -22.5q16 -25 16 -53t-7 -48t-22.5 -42.5t-48.5 -37.5t-75.5 -15t-78 15.5z" />
    <glyph glyph-name="Scedilla" unicode="&#x15e;" horiz-adv-x="481" 
d="M171 -79q34 33 48 33q18 0 34 -19.5t16 -39.5q0 -42 -31.5 -68t-49.5 -26q-5 0 -5 4q0 2 10 8q30 18 30 43t-13 36t-26 17t-13 12zM441 676l-1 -35v-17q0 -15 6 -48t6 -40t-5.5 -12.5t-12.5 -5.5t-12 9.5t-8 24t-16.5 37.5t-35.5 45q-49 48 -119 48q-58 0 -77 -34
q-15 -28 -15 -59t19.5 -65.5t41.5 -57.5t66 -64t72 -70t43.5 -48.5t29 -53t13.5 -65.5t-10.5 -59t-35 -55.5t-73.5 -46.5t-135.5 -18t-124.5 22q-14 8 -25.5 53t-11.5 70.5t16 25.5q7 0 11 -11q16 -52 60.5 -88t116.5 -36q42 0 72.5 12t44.5 31q25 34 25 68t-17 63t-54 66
l-117 116q-95 97 -95 177q0 39 11 67t23 40q51 54 134 54q35 0 88.5 -17.5t56 -17.5t15 8t17.5 8q13 0 13 -21z" />
    <glyph glyph-name="scedilla" unicode="&#x15f;" horiz-adv-x="333" 
d="M86 -79q34 33 48 33q18 0 34 -19.5t16 -39.5q0 -42 -31.5 -68t-49.5 -26q-5 0 -5 4q0 2 10 8q30 18 30 43t-13 36t-26 17t-13 12zM50.5 3.5q-35.5 15.5 -35.5 51t32 35.5q17 0 28 -11t16 -23.5t18 -23.5t35.5 -11t40.5 8t25 20q12 21 12 37t-4 29.5t-18.5 31.5t-19.5 23
l-51.5 51.5t-29 31.5t-13.5 21q-11 25 -11 50q0 50 38.5 81.5t97.5 31.5q93 0 93 -52q0 -14 -9 -23q-12 -11 -29.5 -11t-38 28t-40.5 28q-53 0 -53 -53q0 -31 51 -78q27 -25 29.5 -28t17 -18.5t20 -23t14.5 -22.5q16 -25 16 -53t-7 -48t-22.5 -42.5t-48.5 -37.5t-75.5 -15
t-78 15.5z" />
    <glyph glyph-name="Scaron" unicode="&#x160;" horiz-adv-x="481" 
d="M176 904.5q0 5.5 7 5.5h2q6 0 47.5 -42.5t47.5 -42.5t34 24.5t38.5 34.5t14.5 14q11 11 19.5 11t8.5 -4.5t-9 -16t-22.5 -29.5t-22.5 -30.5t-16.5 -23.5t-11.5 -17.5t-8 -12.5l-6 -9q-5 -8 -12 -8h-26q-10 0 -14 10q-15 32 -43 81.5t-28 55zM441 676l-1 -35v-17
q0 -15 6 -48t6 -40t-5.5 -12.5t-12.5 -5.5t-12 9.5t-8 24t-16.5 37.5t-35.5 45q-49 48 -119 48q-58 0 -77 -34q-15 -28 -15 -59t19.5 -65.5t41.5 -57.5t66 -64t72 -70t43.5 -48.5t29 -53t13.5 -65.5t-10.5 -59t-35 -55.5t-73.5 -46.5t-135.5 -18t-124.5 22q-14 8 -25.5 53
t-11.5 70.5t16 25.5q7 0 11 -11q16 -52 60.5 -88t116.5 -36q42 0 72.5 12t44.5 31q25 34 25 68t-17 63t-54 66l-117 116q-95 97 -95 177q0 39 11 67t23 40q51 54 134 54q35 0 88.5 -17.5t56 -17.5t15 8t17.5 8q13 0 13 -21z" />
    <glyph glyph-name="scaron" unicode="&#x161;" horiz-adv-x="333" 
d="M109 640.5q0 5.5 7 5.5h2q6 0 47.5 -42.5t47.5 -42.5t34 24.5t38.5 34.5t14.5 14q11 11 19.5 11t8.5 -4.5t-9 -16t-22.5 -29.5t-22.5 -30.5t-16.5 -23.5t-11.5 -17.5t-8 -12.5l-6 -9q-5 -8 -12 -8h-26q-10 0 -14 10q-15 32 -43 81.5t-28 55zM50.5 3.5
q-35.5 15.5 -35.5 51t32 35.5q17 0 28 -11t16 -23.5t18 -23.5t35.5 -11t40.5 8t25 20q12 21 12 37t-4 29.5t-18.5 31.5t-19.5 23l-51.5 51.5t-29 31.5t-13.5 21q-11 25 -11 50q0 50 38.5 81.5t97.5 31.5q93 0 93 -52q0 -14 -9 -23q-12 -11 -29.5 -11t-38 28t-40.5 28
q-53 0 -53 -53q0 -31 51 -78q27 -25 29.5 -28t17 -18.5t20 -23t14.5 -22.5q16 -25 16 -53t-7 -48t-22.5 -42.5t-48.5 -37.5t-75.5 -15t-78 15.5z" />
    <glyph glyph-name="uni0162" unicode="&#x162;" horiz-adv-x="692" 
d="M236 -79q34 33 48 33q18 0 34 -19.5t16 -39.5q0 -42 -31.5 -68t-49.5 -26q-5 0 -5 4q0 2 10 8q30 18 30 43t-13 36t-26 17t-13 12zM296 4l-86 -5q-32 0 -32 14q0 13 12 15h5q6 2 14 2q29 4 38.5 18.5t13.5 44.5q69 517 69 545q0 11 -13 13.5t-83.5 2.5t-99.5 -7t-43 -23
t-20.5 -30t-8.5 -22q-5 -21 -20 -21q-13 0 -13 17.5t3.5 27t12 31t14.5 45.5t15.5 29t32.5 5l258 -3q102 0 191 2l90 2q24 0 27 -11q1 -3 1 -9l4 -111q0 -23 -19 -23q-8 0 -10 6t-3 11q-3 15 -12.5 42.5t-33 32.5t-117.5 5h-45q-24 0 -29 -10t-8 -39.5t-3.5 -34.5t-1 -13
t-5.5 -57t-19 -156q-30 -229 -30 -255.5t13.5 -39.5t29.5 -14q43 -3 43 -18t-25 -15z" />
    <glyph glyph-name="uni0163" unicode="&#x163;" horiz-adv-x="299" 
d="M57 -79q34 33 48 33q18 0 34 -19.5t16 -39.5q0 -42 -31.5 -68t-49.5 -26q-5 0 -5 4q0 2 10 8q30 18 30 43t-13 36t-26 17t-13 12zM256 369l-81 5q-13 0 -17 -4t-6 -6.5t-3 -8.5t-2 -10t-2 -14t-3 -25t-10 -66q-21 -123 -21 -140t10.5 -30.5t17.5 -15.5t22 -2t35 11t32 22
t18 11q11 0 11 -14q0 -22 -52 -58t-95 -36q-26 0 -45 21t-19 74t21 164t21 116q0 10 -29.5 11t-29.5 16q0 8 10.5 14.5t32 19t36.5 28.5t26 29t16 18q9 11 19 11t10 -12q0 -6 -9 -36.5t-9 -37t5.5 -7.5t29.5 -1l58 1q26 0 26 -18t-5 -24t-19 -6z" />
    <glyph glyph-name="Tcaron" unicode="&#x164;" horiz-adv-x="692" 
d="M282 904.5q0 5.5 7 5.5h2q6 0 47.5 -42.5t47.5 -42.5t34 24.5t38.5 34.5t14.5 14q11 11 19.5 11t8.5 -4.5t-9 -16t-22.5 -29.5t-22.5 -30.5t-16.5 -23.5t-11.5 -17.5t-8 -12.5l-6 -9q-5 -8 -12 -8h-26q-10 0 -14 10q-15 32 -43 81.5t-28 55zM296 4l-86 -5q-32 0 -32 14
q0 13 12 15h5q6 2 14 2q29 4 38.5 18.5t13.5 44.5q69 517 69 545q0 11 -13 13.5t-83.5 2.5t-99.5 -7t-43 -23t-20.5 -30t-8.5 -22q-5 -21 -20 -21q-13 0 -13 17.5t3.5 27t12 31t14.5 45.5t15.5 29t32.5 5l258 -3q102 0 191 2l90 2q24 0 27 -11q1 -3 1 -9l4 -111
q0 -23 -19 -23q-8 0 -10 6t-3 11q-3 15 -12.5 42.5t-33 32.5t-117.5 5h-45q-24 0 -29 -10t-8 -39.5t-3.5 -34.5t-1 -13t-5.5 -57t-19 -156q-30 -229 -30 -255.5t13.5 -39.5t29.5 -14q43 -3 43 -18t-25 -15z" />
    <glyph glyph-name="tcaron" unicode="&#x165;" horiz-adv-x="299" 
d="M209 634q34 32 48 32q17 0 33 -19.5t16 -39.5q0 -42 -31 -67.5t-49 -25.5q-6 0 -6 4q0 2 10 8q31 19 31 43.5t-13 35.5t-26 17t-13 12zM256 369l-81 5q-13 0 -17 -4t-6 -6.5t-3 -8.5t-2 -10t-2 -14t-3 -25t-10 -66q-21 -123 -21 -140t10.5 -30.5t17.5 -15.5t22 -2t35 11
t32 22t18 11q11 0 11 -14q0 -22 -52 -58t-95 -36q-26 0 -45 21t-19 74t21 164t21 116q0 10 -29.5 11t-29.5 16q0 8 10.5 14.5t32 19t36.5 28.5t26 29t16 18q9 11 19 11t10 -12q0 -6 -9 -36.5t-9 -37t5.5 -7.5t29.5 -1l58 1q26 0 26 -18t-5 -24t-19 -6z" />
    <glyph glyph-name="Tbar" unicode="&#x166;" horiz-adv-x="692" 
d="M108 386l81 1h92q9 0 14 5.5t5.5 9t15 117t14.5 119.5q0 11 -13 13.5t-83.5 2.5t-99.5 -7t-43 -23t-20.5 -30t-8.5 -22q-5 -21 -20 -21q-13 0 -13 17.5t3.5 27t12 31t14.5 45.5t15.5 29t32.5 5l258 -3q102 0 191 2l90 2q24 0 27 -11q1 -3 1 -9l4 -111q0 -23 -19 -23
q-8 0 -10 6t-3 11q-3 15 -12.5 42.5t-33 32.5t-117.5 5h-45q-24 0 -30 -14t-12.5 -81t-9.5 -93.5t-4 -34.5l-2 -12q0 -4 -0.5 -7t-0.5 -4v-3q0 -14 11 -14h176q13 0 13 -13t-3.5 -22t-7.5 -9l-104 1h-74q-13 0 -16.5 -4t-4.5 -16q-27 -211 -27 -238.5t13.5 -40.5t29.5 -14
q43 -3 43 -18t-25 -15l-107 6l-86 -5q-32 0 -32 14q0 18 27 17q29 -2 45 22q7 11 11 41q21 165 26 203t5 39q0 10 -16 10l-174 -3q-6 0 -6 13q0 31 12 31z" />
    <glyph glyph-name="tbar" unicode="&#x167;" horiz-adv-x="299" 
d="M148 255l102 2q10 0 10 -13q0 -31 -23 -31h-103q-8 0 -9 -7q-14 -86 -14 -104.5t10.5 -32t17.5 -15.5t22 -2t35 11t32 22t18 11q11 0 11 -14q0 -22 -52 -58t-95 -36q-26 0 -45 21t-19 73t7.5 88.5t7.5 39.5t-10 3h-23q-13 0 -13 16q0 9 3.5 18t7.5 9h35q7 0 8.5 3.5
t10 49t8.5 55t-29.5 10.5t-29.5 16q0 8 10.5 14.5t32 19t36.5 28.5t26 29t16 18q9 11 19 11t10 -12q0 -6 -9 -36.5t-9 -37t5.5 -7.5t29.5 -1l58 1q26 0 26 -18t-5 -24t-19 -6l-81 5q-13 0 -17 -4t-6 -6.5t-3 -8.5t-2 -10t-2 -14t-5.5 -35.5t-4.5 -30.5q0 -10 13 -10z" />
    <glyph glyph-name="Utilde" unicode="&#x168;" horiz-adv-x="827" 
d="M336.5 802q-9.5 -14 -16.5 -14t-7 13t40 54.5t65 41.5t61 -24t56.5 -24t33.5 14t22 28t15 14q9 0 9 -14.5t-39.5 -54t-65.5 -39.5t-63 24t-55.5 24t-32 -14.5t-23 -28.5zM94 215l37 411q0 24 -13.5 36t-29.5 13q-44 3 -44 19q0 14 17 14l35 -3q35 -3 79 -3l90 6
q20 0 20 -14q0 -15 -33 -20q-13 -2 -25 -16t-15.5 -52.5t-15.5 -135.5q-24 -205 -24 -254.5t7 -74t25.5 -53t58.5 -46t98 -17.5q194 0 259 159q22 56 47.5 219t25.5 214q0 31 -21.5 43t-43.5 16t-22 16.5t24 12.5l55 -4l104 4q7 0 12.5 -4t5.5 -10t-12 -9q-41 -13 -52 -51
q-2 -7 -15 -103q-36 -280 -71 -364q-22 -53 -53 -83.5t-89 -65.5q-24 -14 -72.5 -24t-78.5 -10q-87 0 -138 17t-83 49.5t-40.5 67.5t-8.5 100z" />
    <glyph glyph-name="utilde" unicode="&#x169;" horiz-adv-x="525" 
d="M154.5 538q-9.5 -14 -16.5 -14t-7 13t40 54.5t65 41.5t61 -24t56.5 -24t33.5 14t22 28t15 14q9 0 9 -14.5t-39.5 -54t-65.5 -39.5t-63 24t-55.5 24t-32 -14.5t-23 -28.5zM20 294q0 38 33.5 86t79.5 48q16 0 25 -17q13 -22 13 -61.5t-18.5 -137t-18.5 -121.5t6 -31.5
t11.5 -7.5t11 1.5t11.5 5t11 7.5t12.5 11t12 12t13 14.5t13.5 15.5l30 36q71 86 116 259q4 16 33 16t29 -22q0 -10 -30.5 -151t-30.5 -167t22 -26q42 0 69 56q9 18 17 18q14 0 14 -24t-47 -73.5t-109 -49.5q-30 0 -30 54q0 50 9 100t9 56.5t-3.5 6.5t-7.5 -6.5t-13 -23
t-22 -34.5q-109 -155 -192 -155q-34 0 -34 62t22.5 159t22.5 120t-20 23q-7 0 -21 -17.5t-22 -36t-17.5 -18.5t-9.5 13z" />
    <glyph glyph-name="Umacron" unicode="&#x16a;" horiz-adv-x="827" 
d="M553 827l-188 1q-8 0 -8 17q0 27 20 27l180 -2q8 0 10.5 -2.5t2.5 -11.5q0 -29 -17 -29zM94 215l37 411q0 24 -13.5 36t-29.5 13q-44 3 -44 19q0 14 17 14l35 -3q35 -3 79 -3l90 6q20 0 20 -14q0 -15 -33 -20q-13 -2 -25 -16t-15.5 -52.5t-15.5 -135.5
q-24 -205 -24 -254.5t7 -74t25.5 -53t58.5 -46t98 -17.5q194 0 259 159q22 56 47.5 219t25.5 214q0 31 -21.5 43t-43.5 16t-22 16.5t24 12.5l55 -4l104 4q7 0 12.5 -4t5.5 -10t-12 -9q-41 -13 -52 -51q-2 -7 -15 -103q-36 -280 -71 -364q-22 -53 -53 -83.5t-89 -65.5
q-24 -14 -72.5 -24t-78.5 -10q-87 0 -138 17t-83 49.5t-40.5 67.5t-8.5 100z" />
    <glyph glyph-name="umacron" unicode="&#x16b;" horiz-adv-x="525" 
d="M371 563l-188 1q-8 0 -8 17q0 27 20 27l180 -2q8 0 10.5 -2.5t2.5 -11.5q0 -29 -17 -29zM20 294q0 38 33.5 86t79.5 48q16 0 25 -17q13 -22 13 -61.5t-18.5 -137t-18.5 -121.5t6 -31.5t11.5 -7.5t11 1.5t11.5 5t11 7.5t12.5 11t12 12t13 14.5t13.5 15.5l30 36
q71 86 116 259q4 16 33 16t29 -22q0 -10 -30.5 -151t-30.5 -167t22 -26q42 0 69 56q9 18 17 18q14 0 14 -24t-47 -73.5t-109 -49.5q-30 0 -30 54q0 50 9 100t9 56.5t-3.5 6.5t-7.5 -6.5t-13 -23t-22 -34.5q-109 -155 -192 -155q-34 0 -34 62t22.5 159t22.5 120t-20 23
q-7 0 -21 -17.5t-22 -36t-17.5 -18.5t-9.5 13z" />
    <glyph glyph-name="Ubreve" unicode="&#x16c;" horiz-adv-x="827" 
d="M360 872q0 19 5 19h11q3 0 7 -11t10.5 -24t26.5 -24t49.5 -11t50.5 11t30 24t15.5 24t9.5 11h7q7 0 7 -2q0 -20 -29 -67q-14 -22 -40.5 -38t-66 -16t-66.5 31.5t-27 72.5zM94 215l37 411q0 24 -13.5 36t-29.5 13q-44 3 -44 19q0 14 17 14l35 -3q35 -3 79 -3l90 6
q20 0 20 -14q0 -15 -33 -20q-13 -2 -25 -16t-15.5 -52.5t-15.5 -135.5q-24 -205 -24 -254.5t7 -74t25.5 -53t58.5 -46t98 -17.5q194 0 259 159q22 56 47.5 219t25.5 214q0 31 -21.5 43t-43.5 16t-22 16.5t24 12.5l55 -4l104 4q7 0 12.5 -4t5.5 -10t-12 -9q-41 -13 -52 -51
q-2 -7 -15 -103q-36 -280 -71 -364q-22 -53 -53 -83.5t-89 -65.5q-24 -14 -72.5 -24t-78.5 -10q-87 0 -138 17t-83 49.5t-40.5 67.5t-8.5 100z" />
    <glyph glyph-name="ubreve" unicode="&#x16d;" horiz-adv-x="525" 
d="M178 608q0 19 5 19h11q3 0 7 -11t10.5 -24t26.5 -24t49.5 -11t50.5 11t30 24t15.5 24t9.5 11h7q7 0 7 -2q0 -20 -29 -67q-14 -22 -40.5 -38t-66 -16t-66.5 31.5t-27 72.5zM20 294q0 38 33.5 86t79.5 48q16 0 25 -17q13 -22 13 -61.5t-18.5 -137t-18.5 -121.5t6 -31.5
t11.5 -7.5t11 1.5t11.5 5t11 7.5t12.5 11t12 12t13 14.5t13.5 15.5l30 36q71 86 116 259q4 16 33 16t29 -22q0 -10 -30.5 -151t-30.5 -167t22 -26q42 0 69 56q9 18 17 18q14 0 14 -24t-47 -73.5t-109 -49.5q-30 0 -30 54q0 50 9 100t9 56.5t-3.5 6.5t-7.5 -6.5t-13 -23
t-22 -34.5q-109 -155 -192 -155q-34 0 -34 62t22.5 159t22.5 120t-20 23q-7 0 -21 -17.5t-22 -36t-17.5 -18.5t-9.5 13z" />
    <glyph glyph-name="Uring" unicode="&#x16e;" horiz-adv-x="827" 
d="M458 776q-67 0 -67 72q0 30 26.5 56t58 26t47.5 -22.5t16 -54.5t-31 -54.5t-50 -22.5zM439.5 882q-15.5 -13 -15.5 -32t10 -29.5t25 -10.5t31 12t16 37q0 36 -36 36q-15 0 -30.5 -13zM94 215l37 411q0 24 -13.5 36t-29.5 13q-44 3 -44 19q0 14 17 14l35 -3q35 -3 79 -3
l90 6q20 0 20 -14q0 -15 -33 -20q-13 -2 -25 -16t-15.5 -52.5t-15.5 -135.5q-24 -205 -24 -254.5t7 -74t25.5 -53t58.5 -46t98 -17.5q194 0 259 159q22 56 47.5 219t25.5 214q0 31 -21.5 43t-43.5 16t-22 16.5t24 12.5l55 -4l104 4q7 0 12.5 -4t5.5 -10t-12 -9
q-41 -13 -52 -51q-2 -7 -15 -103q-36 -280 -71 -364q-22 -53 -53 -83.5t-89 -65.5q-24 -14 -72.5 -24t-78.5 -10q-87 0 -138 17t-83 49.5t-40.5 67.5t-8.5 100z" />
    <glyph glyph-name="uring" unicode="&#x16f;" horiz-adv-x="525" 
d="M276 512q-67 0 -67 72q0 30 26.5 56t58 26t47.5 -22.5t16 -54.5t-31 -54.5t-50 -22.5zM257.5 618q-15.5 -13 -15.5 -32t10 -29.5t25 -10.5t31 12t16 37q0 36 -36 36q-15 0 -30.5 -13zM20 294q0 38 33.5 86t79.5 48q16 0 25 -17q13 -22 13 -61.5t-18.5 -137t-18.5 -121.5
t6 -31.5t11.5 -7.5t11 1.5t11.5 5t11 7.5t12.5 11t12 12t13 14.5t13.5 15.5l30 36q71 86 116 259q4 16 33 16t29 -22q0 -10 -30.5 -151t-30.5 -167t22 -26q42 0 69 56q9 18 17 18q14 0 14 -24t-47 -73.5t-109 -49.5q-30 0 -30 54q0 50 9 100t9 56.5t-3.5 6.5t-7.5 -6.5
t-13 -23t-22 -34.5q-109 -155 -192 -155q-34 0 -34 62t22.5 159t22.5 120t-20 23q-7 0 -21 -17.5t-22 -36t-17.5 -18.5t-9.5 13z" />
    <glyph glyph-name="Uhungarumlaut" unicode="&#x170;" horiz-adv-x="827" 
d="M353 754q0 5 9.5 18t18.5 27q28 40 63 107q9 18 20 18t29 -6.5t18 -16.5q0 -17 -69 -86t-79 -69t-10 8zM516 772.5q10 12.5 19 26.5q28 40 63 107q9 18 20 18t29 -6.5t18 -16.5q0 -17 -69 -86t-79.5 -69t-10.5 7t10 19.5zM94 215l37 411q0 24 -13.5 36t-29.5 13
q-44 3 -44 19q0 14 17 14l35 -3q35 -3 79 -3l90 6q20 0 20 -14q0 -15 -33 -20q-13 -2 -25 -16t-15.5 -52.5t-15.5 -135.5q-24 -205 -24 -254.5t7 -74t25.5 -53t58.5 -46t98 -17.5q194 0 259 159q22 56 47.5 219t25.5 214q0 31 -21.5 43t-43.5 16t-22 16.5t24 12.5l55 -4
l104 4q7 0 12.5 -4t5.5 -10t-12 -9q-41 -13 -52 -51q-2 -7 -15 -103q-36 -280 -71 -364q-22 -53 -53 -83.5t-89 -65.5q-24 -14 -72.5 -24t-78.5 -10q-87 0 -138 17t-83 49.5t-40.5 67.5t-8.5 100z" />
    <glyph glyph-name="uhungarumlaut" unicode="&#x171;" horiz-adv-x="525" 
d="M171 490q0 5 9.5 18t18.5 27q28 40 63 107q9 18 20 18t29 -6.5t18 -16.5q0 -17 -69 -86t-79 -69t-10 8zM334 508.5q10 12.5 19 26.5q28 40 63 107q9 18 20 18t29 -6.5t18 -16.5q0 -17 -69 -86t-79.5 -69t-10.5 7t10 19.5zM20 294q0 38 33.5 86t79.5 48q16 0 25 -17
q13 -22 13 -61.5t-18.5 -137t-18.5 -121.5t6 -31.5t11.5 -7.5t11 1.5t11.5 5t11 7.5t12.5 11t12 12t13 14.5t13.5 15.5l30 36q71 86 116 259q4 16 33 16t29 -22q0 -10 -30.5 -151t-30.5 -167t22 -26q42 0 69 56q9 18 17 18q14 0 14 -24t-47 -73.5t-109 -49.5q-30 0 -30 54
q0 50 9 100t9 56.5t-3.5 6.5t-7.5 -6.5t-13 -23t-22 -34.5q-109 -155 -192 -155q-34 0 -34 62t22.5 159t22.5 120t-20 23q-7 0 -21 -17.5t-22 -36t-17.5 -18.5t-9.5 13z" />
    <glyph glyph-name="Uogonek" unicode="&#x172;" horiz-adv-x="827" 
d="M94 215l37 411q0 24 -13.5 36t-29.5 13q-44 3 -44 19q0 14 17 14l35 -3q35 -3 79 -3l90 6q20 0 20 -14q0 -15 -33 -20q-13 -2 -25 -16t-15.5 -52.5t-15.5 -135.5q-24 -205 -24 -254.5t7 -74t25.5 -53t58.5 -46t98 -17.5q194 0 259 159q22 56 47.5 219t25.5 214
q0 31 -21.5 43t-43.5 16t-22 16.5t24 12.5l55 -4l104 4q7 0 12.5 -4t5.5 -10t-12 -9q-41 -13 -52 -51q-2 -7 -15 -103q-36 -280 -71 -364q-22 -53 -53 -83.5t-89 -65.5q-26 -16 -89 -27q-21 0 -28 -4q-21 -10 -40 -30t-19 -47.5t15 -45.5t32 -18t33 7.5t19 7.5q6 0 6 -5
q0 -13 -28.5 -30.5t-59.5 -17.5q-75 0 -75 66q0 38 46 85q15 16 15 23q0 2 -13 3t-35 3t-48 7q-61 12 -105 58q-30 30 -38.5 65t-8.5 100z" />
    <glyph glyph-name="uogonek" unicode="&#x173;" horiz-adv-x="525" 
d="M20 294q0 38 33.5 86t79.5 48q16 0 25 -17q13 -22 13 -61.5t-18.5 -137t-18.5 -121.5t6 -31.5t11.5 -7.5t11 1.5t11.5 5t11 7.5t12.5 11t12 12t13 14.5t13.5 15.5q15 18 37.5 45.5t46.5 75.5t35.5 83t26.5 91q4 16 33 16t29 -22q0 -10 -30.5 -151t-30.5 -167t22 -26
q42 0 69 56q9 18 17 18q14 0 14 -18t-20.5 -47.5t-42.5 -48t-57 -37t-57 -38t-22 -45t15 -43.5t32.5 -18t33.5 13t20 13t4 -10.5t-28.5 -32t-59.5 -21.5q-75 0 -75 66q0 25 13 46.5t28 32.5q41 32 41 43q0 3 -5.5 16t-5.5 38.5t4.5 61.5t9 61t4.5 31.5t-3.5 6.5t-7.5 -6.5
t-13 -23t-22 -34.5q-109 -155 -192 -155q-34 0 -34 62t22.5 159t22.5 120t-20 23q-7 0 -21 -17.5t-22 -36t-17.5 -18.5t-9.5 13z" />
    <glyph glyph-name="Wcircumflex" unicode="&#x174;" horiz-adv-x="1053" 
d="M486.5 801q-48.5 -42 -55 -42t-6.5 2.5t10 15.5t23.5 31t22.5 30.5t16.5 23.5t11.5 18t8 13l6 9q5 8 12 8h26q10 0 14 -10q14 -30 33 -63q38 -69 38 -74t-8 -5t-49.5 42.5t-47.5 42.5t-54.5 -42zM933 706l66 4q34 0 34 -15q0 -13 -19 -15q-22 -1 -41.5 -17t-49.5 -71
t-71.5 -139t-69.5 -131t-71 -124q-96 -171 -125 -213q-6 -10 -16.5 -10t-14 2.5t-5.5 8.5t-3.5 12.5t-4 18.5t-5.5 22l-59 224q-5 20 -7.5 20t-43.5 -69q-128 -216 -138 -228q-7 -7 -13.5 -7t-11.5 11q-6 13 -75.5 293.5t-83.5 325.5t-32 56q-3 1 -8.5 4.5t-19.5 8.5
t-19.5 9t-5.5 13.5t20 9.5q3 0 34 -3.5t58 -3.5l79 4q28 0 28 -12q0 -10 -13 -11q-28 -2 -38.5 -12.5t-10.5 -38.5t64.5 -279t75.5 -251q2 0 35.5 52.5t66 110t32.5 69t-5 31.5l-43 170q-2 6 -7 26.5t-7 28t-7 23.5t-10 24q-13 22 -25.5 30t-26 12t-20 7.5t-6.5 10.5
q0 10 29 10l77 -5l79 4q31 0 31 -12q0 -13 -28 -15q-10 0 -18.5 -9.5t-8.5 -24.5t25.5 -112.5t29.5 -97.5q11 0 56.5 96t45.5 113t-17 26t-33.5 13.5t-16.5 14t26 9.5l78 -3l64 3q30 0 30 -13.5t-13 -13.5q-18 0 -30 -10t-18 -16t-13 -17t-11.5 -18t-13.5 -23t-13 -23
t-14.5 -27t-17.5 -32t-17 -30.5t-16.5 -30.5t-13 -23t-10 -17.5t-7 -12.5t-5 -9.5t-2.5 -6t-1.5 -5t-0.5 -4.5v-5q0 -18 38 -144t45.5 -126t144 256.5t136.5 285.5q0 18 -11.5 26.5t-25.5 9.5q-37 3 -37 18q0 13 21 13z" />
    <glyph glyph-name="wcircumflex" unicode="&#x175;" horiz-adv-x="675" 
d="M352.5 537q-48.5 -42 -55 -42t-6.5 2.5t10 15.5t23.5 31t22.5 30.5t16.5 23.5t11.5 18t8 13l6 9q5 8 12 8h26q10 0 14 -10q14 -30 33 -63q38 -69 38 -74t-8 -5t-49.5 42.5t-47.5 42.5t-54.5 -42zM10 248q0 69 43 125t78 56q22 0 32 -25t10 -59t-6 -105t-6 -123
q0 -23 12.5 -42t26.5 -19q33 0 68 46t58.5 102.5t40.5 176.5q3 21 5 28q5 18 31.5 18t26.5 -25q0 -14 -13.5 -83t-13.5 -118t8 -86t17 -49.5t27 -12.5q35 0 72 47t58.5 101.5t21.5 96t-9.5 65.5t-9.5 34.5t13 21t25 10.5q29 0 29 -43t-16.5 -111t-38.5 -109
q-45 -86 -101.5 -131t-92.5 -45q-57 0 -59 173q0 19 -3 19q-1 0 -11.5 -20t-28 -48t-39 -56.5t-49.5 -48.5t-55 -20q-61 0 -61 155q0 5 -14 8.5t-31 8t-31 27t-14 60.5zM43 243q0 -61 43 -61q11 0 15 11t8.5 51.5t4.5 69t-14.5 28.5t-35.5 -32.5t-21 -66.5z" />
    <glyph glyph-name="Ycircumflex" unicode="&#x176;" horiz-adv-x="690" 
d="M322.5 801q-48.5 -42 -55 -42t-6.5 2.5t10 15.5t23.5 31t22.5 30.5t16.5 23.5t11.5 18t8 13l6 9q5 8 12 8h26q10 0 14 -10q14 -30 33 -63q38 -69 38 -74t-8 -5t-49.5 42.5t-47.5 42.5t-54.5 -42zM413 -6l-113 7q-26 0 -50.5 -4t-33.5 -4q-27 0 -27 13q0 14 25 18
q9 2 13 3q14 4 20 17.5t21.5 121t15.5 125t-1.5 24t-6 18t-9.5 22.5t-17 33.5t-23 43.5t-31.5 60.5t-40.5 77.5q-50 98 -88 110q-3 1 -17 2q-30 1 -30 18q0 14 33 14l93 -4l89 4q30 0 30 -15q0 -10 -25 -19t-25 -23q0 -41 44 -117q16 -30 37 -77q48 -104 51 -104t49 62
t92 136t46 92.5t-11 24.5t-25 6q-35 -2 -35 18q0 14 26 14l53 -2l103 3q26 0 26 -15q0 -6 -11 -11t-27.5 -11.5t-32.5 -23.5t-102 -143t-104 -146.5t-26.5 -41.5t-14.5 -73q-16 -153 -16 -171t16.5 -32t30.5 -18t24 -5q24 -1 24 -14q0 -9 -5 -11.5t-14 -2.5z" />
    <glyph glyph-name="ycircumflex" unicode="&#x177;" horiz-adv-x="407" 
d="M175.5 537q-48.5 -42 -55 -42t-6.5 2.5t10 15.5t23.5 31t22.5 30.5t16.5 23.5t11.5 18t8 13l6 9q5 8 12 8h26q10 0 14 -10q14 -30 33 -63q38 -69 38 -74t-8 -5t-49.5 42.5t-47.5 42.5t-54.5 -42zM7 -125q0 13 9.5 23t25.5 10t38 -16.5t46 -16.5q39 0 81.5 65.5
t42.5 107.5t-63.5 174.5t-99.5 132.5q-25 0 -35.5 -18.5t-15 -37.5t-16.5 -19q-10 0 -10 23.5t7 51t26.5 52t50 24.5t68 -44.5t63.5 -97.5t46 -97.5t23 -44.5q10 0 23 62t13 112q0 15 -12.5 39t-12.5 38t8.5 25t25.5 11t28 -15t11 -47.5t-21.5 -127t-61.5 -195.5
q-92 -233 -205 -233q-83 0 -83 59z" />
    <glyph glyph-name="Ydieresis" unicode="&#x178;" horiz-adv-x="690" 
d="M282 821q-13 17 -13 30.5t17.5 33t32 19.5t27.5 -16t13 -31t-19 -34t-27 -19q-18 0 -31 17zM436 821q-13 17 -13 30.5t18 33t32.5 19.5t27.5 -16t13 -31t-19.5 -34t-27.5 -19q-18 0 -31 17zM413 -6l-113 7q-26 0 -50.5 -4t-33.5 -4q-27 0 -27 13q0 14 25 18q9 2 13 3
q14 4 20 17.5t21.5 121t15.5 125t-1.5 24t-6 18t-9.5 22.5t-17 33.5t-23 43.5t-31.5 60.5t-40.5 77.5q-50 98 -88 110q-3 1 -17 2q-30 1 -30 18q0 14 33 14l93 -4l89 4q30 0 30 -15q0 -10 -25 -19t-25 -23q0 -41 44 -117q16 -30 37 -77q48 -104 51 -104t49 62t92 136
t46 92.5t-11 24.5t-25 6q-35 -2 -35 18q0 14 26 14l53 -2l103 3q26 0 26 -15q0 -6 -11 -11t-27.5 -11.5t-32.5 -23.5t-102 -143t-104 -146.5t-26.5 -41.5t-14.5 -73q-16 -153 -16 -171t16.5 -32t30.5 -18t24 -5q24 -1 24 -14q0 -9 -5 -11.5t-14 -2.5z" />
    <glyph glyph-name="Zacute" unicode="&#x179;" horiz-adv-x="587" 
d="M309 772.5q10 12.5 20 26.5q22 33 61 107q9 18 20 18t29 -6.5t18 -16.5q0 -16 -69 -85.5t-79 -69.5t-10 7t10 19.5zM155 -4l-109 -5q-26 0 -26 13q0 12 20 36q40 49 72 93q357 476 357 499q0 4 -33 4l-53 -1l-112 10q-58 0 -95.5 -8.5t-62 -35t-24.5 -51t5.5 -36.5
t12.5 -14q18 -7 18 -20q0 -16 -24 -16t-34 24.5t-10 51t12.5 58.5t49.5 67.5t69.5 42.5t91.5 7t127 -7t89 -7l49 6q15 0 18.5 -4t3.5 -14t-217.5 -305t-217.5 -305q0 -8 12.5 -9.5t60.5 -1.5h43q56 0 114.5 -3t72.5 -3q75 0 75 27q0 6 -14 11t-28 14t-14 27.5t15.5 31
t35.5 12.5t31 -17.5t11 -31.5q0 -65 -59 -113q-14 -15 -28.5 -19.5t-26.5 -7.5q-24 -6 -90.5 -6t-126 3t-61.5 3z" />
    <glyph glyph-name="zacute" unicode="&#x17a;" horiz-adv-x="409" 
d="M210 508.5q10 12.5 20 26.5q22 33 61 107q9 18 20 18t29 -6.5t18 -16.5q0 -16 -69 -85.5t-79 -69.5t-10 7t10 19.5zM25 5q-5 5 -5 11.5t9 15.5q242 248 242 264q0 3 -19.5 11t-49 21t-42 19t-22.5 11q-16 6 -25.5 6t-19 -11t-9.5 -22.5t8.5 -26t8.5 -16.5q0 -9 -12 -9
q-5 0 -13.5 7.5t-16.5 25t-8 43.5t24 50.5t51 24.5t73 -24q87 -44 122 -44q15 0 22 29.5t24 29.5q9 0 16 -5t7 -14t-21 -33l-193 -215q-35 -39 -35 -44t12.5 -15t31 -24.5t30 -27t31.5 -44t35 -51t25 -19.5q18 0 29.5 27t31.5 27q10 0 16 -7.5t6 -15.5q0 -22 -30 -39.5
t-71 -17.5q-28 0 -44.5 12.5t-27.5 22.5q-16 14 -35 40q-61 71 -88 71q-6 0 -27 -24.5t-28.5 -24.5t-12.5 5z" />
    <glyph glyph-name="Zdotaccent" unicode="&#x17b;" horiz-adv-x="587" 
d="M317.5 824q-16.5 22 -16.5 31.5t19 32t32.5 22.5t25.5 -19.5t12 -34t-18 -34.5t-28 -20t-26.5 22zM155 -4l-109 -5q-26 0 -26 13q0 12 20 36q40 49 72 93q357 476 357 499q0 4 -33 4l-53 -1l-112 10q-58 0 -95.5 -8.5t-62 -35t-24.5 -51t5.5 -36.5t12.5 -14q18 -7 18 -20
q0 -16 -24 -16t-34 24.5t-10 51t12.5 58.5t49.5 67.5t69.5 42.5t91.5 7t127 -7t89 -7l49 6q15 0 18.5 -4t3.5 -14t-217.5 -305t-217.5 -305q0 -8 12.5 -9.5t60.5 -1.5h43q56 0 114.5 -3t72.5 -3q75 0 75 27q0 6 -14 11t-28 14t-14 27.5t15.5 31t35.5 12.5t31 -17.5t11 -31.5
q0 -65 -59 -113q-14 -15 -28.5 -19.5t-26.5 -7.5q-24 -6 -90.5 -6t-126 3t-61.5 3z" />
    <glyph glyph-name="zdotaccent" unicode="&#x17c;" horiz-adv-x="409" 
d="M218.5 560q-16.5 22 -16.5 31.5t19 32t32.5 22.5t25.5 -19.5t12 -34t-18 -34.5t-28 -20t-26.5 22zM25 5q-5 5 -5 11.5t9 15.5q242 248 242 264q0 3 -19.5 11t-49 21t-42 19t-22.5 11q-16 6 -25.5 6t-19 -11t-9.5 -22.5t8.5 -26t8.5 -16.5q0 -9 -12 -9q-5 0 -13.5 7.5
t-16.5 25t-8 43.5t24 50.5t51 24.5t73 -24q87 -44 122 -44q15 0 22 29.5t24 29.5q9 0 16 -5t7 -14t-21 -33l-193 -215q-35 -39 -35 -44t12.5 -15t31 -24.5t30 -27t31.5 -44t35 -51t25 -19.5q18 0 29.5 27t31.5 27q10 0 16 -7.5t6 -15.5q0 -22 -30 -39.5t-71 -17.5
q-28 0 -44.5 12.5t-27.5 22.5q-16 14 -35 40q-61 71 -88 71q-6 0 -27 -24.5t-28.5 -24.5t-12.5 5z" />
    <glyph glyph-name="Zcaron" unicode="&#x17d;" horiz-adv-x="587" 
d="M240 904.5q0 5.5 7 5.5h2q6 0 47.5 -42.5t47.5 -42.5t34 24.5t38.5 34.5t14.5 14q11 11 19.5 11t8.5 -4.5t-9 -16t-22.5 -29.5t-22.5 -30.5t-16.5 -23.5t-11.5 -17.5t-8 -12.5l-6 -9q-5 -8 -12 -8h-26q-10 0 -14 10q-15 32 -43 81.5t-28 55zM155 -4l-109 -5q-26 0 -26 13
q0 12 20 36q40 49 72 93q357 476 357 499q0 4 -33 4l-53 -1l-112 10q-58 0 -95.5 -8.5t-62 -35t-24.5 -51t5.5 -36.5t12.5 -14q18 -7 18 -20q0 -16 -24 -16t-34 24.5t-10 51t12.5 58.5t49.5 67.5t69.5 42.5t91.5 7t127 -7t89 -7l49 6q15 0 18.5 -4t3.5 -14t-217.5 -305
t-217.5 -305q0 -8 12.5 -9.5t60.5 -1.5h43q56 0 114.5 -3t72.5 -3q75 0 75 27q0 6 -14 11t-28 14t-14 27.5t15.5 31t35.5 12.5t31 -17.5t11 -31.5q0 -65 -59 -113q-14 -15 -28.5 -19.5t-26.5 -7.5q-24 -6 -90.5 -6t-126 3t-61.5 3z" />
    <glyph glyph-name="zcaron" unicode="&#x17e;" horiz-adv-x="409" 
d="M141 640.5q0 5.5 7 5.5h2q6 0 47.5 -42.5t47.5 -42.5t34 24.5t38.5 34.5t14.5 14q11 11 19.5 11t8.5 -4.5t-9 -16t-22.5 -29.5t-22.5 -30.5t-16.5 -23.5t-11.5 -17.5t-8 -12.5l-6 -9q-5 -8 -12 -8h-26q-10 0 -14 10q-15 32 -43 81.5t-28 55zM25 5q-5 5 -5 11.5t9 15.5
q242 248 242 264q0 3 -19.5 11t-49 21t-42 19t-22.5 11q-16 6 -25.5 6t-19 -11t-9.5 -22.5t8.5 -26t8.5 -16.5q0 -9 -12 -9q-5 0 -13.5 7.5t-16.5 25t-8 43.5t24 50.5t51 24.5t73 -24q87 -44 122 -44q15 0 22 29.5t24 29.5q9 0 16 -5t7 -14t-21 -33l-193 -215
q-35 -39 -35 -44t12.5 -15t31 -24.5t30 -27t31.5 -44t35 -51t25 -19.5q18 0 29.5 27t31.5 27q10 0 16 -7.5t6 -15.5q0 -22 -30 -39.5t-71 -17.5q-28 0 -44.5 12.5t-27.5 22.5q-16 14 -35 40q-61 71 -88 71q-6 0 -27 -24.5t-28.5 -24.5t-12.5 5z" />
    <glyph glyph-name="longs" unicode="&#x17f;" horiz-adv-x="199" 
d="M-136 -181.5q-16 11.5 -16 27t9 25t22 9.5t32 -14t27 -14q87 0 116 260q5 25 16.5 152.5t16.5 168t16.5 96t29.5 92.5t45.5 71.5t71 57.5t96 23t89.5 -22.5t37 -54.5q0 -11 -11 -20.5t-25.5 -9.5t-25 6.5t-18.5 21.5t-9 16q-23 30 -56.5 30t-57 -13.5t-39 -35
t-28.5 -50.5t-20 -57.5t-12 -59.5q-7 -34 -10 -90l-2 -18q-6 -47 -15 -125t-14.5 -120.5t-13.5 -94.5q-15 -100 -41 -144q-35 -63 -82 -94t-93 -31q-19 0 -35 11.5z" />
    </font>
</defs>
</svg>
